<svg xmlns="http://www.w3.org/2000/svg" xmlns:xlink="http://www.w3.org/1999/xlink" viewBox="0 0 16 12"><defs><rect id="cr-flag-AW-a" width="16" height="12" rx="1"/><path id="cr-flag-AW-c" d="M1.125 1.125L1.5 0l.375 1.125L3 1.5l-1.125.375L1.5 3l-.375-1.125L0 1.5l1.125-.375z"/></defs><g fill="none" fill-rule="evenodd"><mask id="cr-flag-AW-b" fill="#fff"><use xlink:href="#cr-flag-AW-a"/></mask><use fill="#FFF" xlink:href="#cr-flag-AW-a"/><path fill="#4189DD" d="M0 0h16v12H0z" mask="url(#cr-flag-AW-b)"/><path fill="#F9D616" d="M0 7h16v1H0z" mask="url(#cr-flag-AW-b)"/><g mask="url(#cr-flag-AW-b)"><g transform="translate(2 2)"><use fill="#D21034" xlink:href="#cr-flag-AW-c"/><path stroke="#FFF" stroke-width=".5" d="M.927.927L1.5-.79 2.073.927 3.79 1.5l-1.718.573L1.5 3.79.927 2.073-.79 1.5.927.927z"/></g></g><path fill="#F9D616" d="M0 9h16v1H0z" mask="url(#cr-flag-AW-b)"/><g stroke="#000" stroke-opacity=".1" mask="url(#cr-flag-AW-b)"><path d="M.5.5h15v11H.5z" style="mix-blend-mode:multiply"/></g></g></svg>