<svg xmlns="http://www.w3.org/2000/svg" xmlns:xlink="http://www.w3.org/1999/xlink" viewBox="0 0 16 12"><defs><rect id="cr-flag-BI-a" width="16" height="12" rx="1"/></defs><g fill="none" fill-rule="evenodd"><mask id="cr-flag-BI-b" fill="#fff"><use xlink:href="#cr-flag-BI-a"/></mask><use fill="#FFF" xlink:href="#cr-flag-BI-a"/><path fill="#2875C6" d="M0 0h16v12H0z" mask="url(#cr-flag-BI-b)"/><path fill="#CE1126" d="M8 6l8 6H0zm0 0l8-6H0z" mask="url(#cr-flag-BI-b)"/><path fill="#1EB53A" d="M0 0l8 6-8 6z" mask="url(#cr-flag-BI-b)"/><path fill="#1EB53A" d="M8 0l8 6-8 6z" mask="url(#cr-flag-BI-b)" transform="matrix(-1 0 0 1 24 0)"/><path fill="#FFF" d="M6.818 6L0 1V0h1l7 5.133L15 0h1v1L9.182 6 16 11v1h-1L8 6.867 1 12H0v-1l6.818-5z" mask="url(#cr-flag-BI-b)"/><circle cx="8" cy="6" r="3" fill="#FFF" mask="url(#cr-flag-BI-b)"/><g fill="#CE1126" mask="url(#cr-flag-BI-b)"><path d="M7.746 5.433L7.13 5.5l.366-.5-.366-.5.616.067.25-.567.25.567.616-.067-.366.5.366.5-.616-.067-.25.567zm-1.13 2L6 7.5l.366-.5L6 6.5l.616.067.25-.567.25.567.616-.067-.366.5.366.5-.616-.067-.25.567zm2.27 0L8.27 7.5l.366-.5-.366-.5.616.067.25-.567.25.567.616-.067-.366.5.366.5-.616-.067-.25.567z"/></g><g stroke="#000" stroke-opacity=".1" mask="url(#cr-flag-BI-b)"><path d="M.5.5h15v11H.5z" style="mix-blend-mode:multiply"/></g></g></svg>