<svg xmlns="http://www.w3.org/2000/svg" xmlns:xlink="http://www.w3.org/1999/xlink" viewBox="0 0 16 12"><defs><rect id="cr-flag-BM-a" width="16" height="12" rx="1"/><path id="cr-flag-BM-c" d="M0 0h8v6H0z"/></defs><g fill="none" fill-rule="evenodd"><mask id="cr-flag-BM-b" fill="#fff"><use xlink:href="#cr-flag-BM-a"/></mask><use fill="#FFF" xlink:href="#cr-flag-BM-a"/><path fill="#FFF" d="M0 0h16v12H0z" mask="url(#cr-flag-BM-b)"/><path fill="#CF142B" d="M0 0h16v12H0z" mask="url(#cr-flag-BM-b)"/><g mask="url(#cr-flag-BM-b)"><path fill="#FFF" d="M10 3h4v4l-2 2-2-2z"/><path fill="#2F8F22" d="M14 7l-2 2-2-2z"/><path fill="#CF142B" d="M11 4h2v1h-2z"/><path fill="#E4CB5E" d="M11 6h1v1h-1z"/><path fill="#784421" d="M12 6h1v1h-1z"/><path fill="#64B4D1" d="M10 5h4v1h-4z"/></g><g mask="url(#cr-flag-BM-b)"><mask id="cr-flag-BM-d" fill="#fff"><use xlink:href="#cr-flag-BM-c"/></mask><use fill="#FFF" xlink:href="#cr-flag-BM-c"/><g mask="url(#cr-flag-BM-d)"><path fill="#00247D" d="M0 0h8v6H0z"/><path fill="#FFF" d="M-.118-1l8.97 6.516L7.97 6.73-1 .213z"/><path fill="#FFF" d="M7.97-1L-1 5.517l.88 1.213L8.851.213z"/></g><g fill="#CF142B" mask="url(#cr-flag-BM-d)"><path d="M-.206-.15l4.14 3.007-.588.81L-.794.658zm4.5 2.8l4.14 3.007-.588.81-4.14-3.008z"/><path d="M3.615 2.561L8.105-.7l.587.809-4.49 3.261z"/><path d="M-.153 5.758l4.14-3.008.587.809-4.14 3.008z"/></g><g mask="url(#cr-flag-BM-d)"><path fill="#FFF" d="M3 2V0h2v2h3v2H5v2H3V4H0V2h3z"/><path fill="#CF142B" d="M8 2.5v1H4.5V6h-1V3.5H0v-1h3.5V0h1v2.5z"/></g></g><g stroke="#000" stroke-opacity=".1" mask="url(#cr-flag-BM-b)"><path d="M.5.5h15v11H.5z" style="mix-blend-mode:multiply"/></g></g></svg>