<svg xmlns="http://www.w3.org/2000/svg" xmlns:xlink="http://www.w3.org/1999/xlink" viewBox="0 0 16 12"><defs><rect id="cr-flag-BT-a" width="16" height="12" rx="1"/></defs><g fill="none" fill-rule="evenodd"><mask id="cr-flag-BT-b" fill="#fff"><use xlink:href="#cr-flag-BT-a"/></mask><use fill="#FFF" xlink:href="#cr-flag-BT-a"/><path fill="#FFD520" d="M0 0h16v12H0z" mask="url(#cr-flag-BT-b)"/><path fill="#FF4E12" d="M16 0v12H0z" mask="url(#cr-flag-BT-b)"/><path fill="#FFF" fill-rule="nonzero" d="M10.343 3.14c1.146.08 1.873.078 1.954.038l.447.894c-.29.145-.94.164-2.129.089.248 1.012.221 1.393-.2 1.73a1.167 1.167 0 0 1-.41.209 2.2 2.2 0 0 0-.164.194l.064.023c.255.09.64.186 1.15.286l-.193.981c-1.324-.26-1.913-.466-2.066-.926a.806.806 0 0 1-.013-.475c-.249-.01-.533-.027-.86-.05l-.188-.014c-1.086-.08-1.594-.082-1.667-.033-.065.043-.124.167-.212.504l-.111.435c-.052.192-.102.36-.161.528a5.193 5.193 0 0 1-.234.56c.295 1.023.362 1.716.155 2.16l-.906-.422c.04-.087.04-.29-.008-.592-.586.705-1.147 1.05-1.729.988l.108-.994c.222.024.636-.294 1.162-1.041.393-.557.47-.779.756-1.874.147-.565.289-.86.625-1.084.37-.247.75-.245 2.295-.132l.186.013c1.087.078 1.689.06 1.797-.026-.012.01-.081-.498-.325-1.386l-.012-.042c-.2-.73-.27-1.014-.309-1.344-.073-.616.056-1.075.596-1.2.661-.152 1.842.067 3.638.636l-.302.953c-1.443-.457-2.448-.664-2.95-.635.002.036.005.08.011.129.026.22.077.444.205.92z" mask="url(#cr-flag-BT-b)"/><g stroke="#000" stroke-opacity=".1" mask="url(#cr-flag-BT-b)"><path d="M.5.5h15v11H.5z" style="mix-blend-mode:multiply"/></g></g></svg>