<svg xmlns="http://www.w3.org/2000/svg" xmlns:xlink="http://www.w3.org/1999/xlink" viewBox="0 0 16 12"><defs><rect id="cr-flag-CA-NB-a" width="16" height="12" rx="1"/><path id="cr-flag-CA-NB-c" d="M3 0h3c-.151.681-.227 1.181-.227 1.5 0 .319.076.819.227 1.5-.884-.397-1.5-.596-1.848-.596-.348 0-.732.199-1.152.596-.275-.825-.412-1.427-.412-1.806C2.588.816 2.725.418 3 0z"/><path id="cr-flag-CA-NB-d" d="M0 0h16v3H0z"/></defs><g fill="none" fill-rule="evenodd"><mask id="cr-flag-CA-NB-b" fill="#fff"><use xlink:href="#cr-flag-CA-NB-a"/></mask><use fill="#F4C600" xlink:href="#cr-flag-CA-NB-a"/><g mask="url(#cr-flag-CA-NB-b)"><path fill="#00247D" d="M0 10h16v2H0z"/><path fill="#00247D" fill-rule="nonzero" d="M3.2 10.216c.034 0 .199-.139.526-.489l.024-.026C4.24 9.177 4.454 9 4.8 9c.357 0 .506.133 1.04.734.31.347.476.482.56.482.034 0 .199-.139.526-.489l.024-.026C7.44 9.177 7.654 9 8 9c.357 0 .506.133 1.04.734.31.347.476.482.56.482.034 0 .199-.139.526-.489l.024-.026c.49-.524.704-.701 1.05-.701.357 0 .506.133 1.04.734.31.347.476.482.56.482.034 0 .199-.139.526-.489l.024-.026c.49-.524.704-.701 1.05-.701.357 0 .506.133 1.04.734.31.347.476.482.56.482V11c-.39 0-.64-.204-1.112-.734-.322-.362-.457-.482-.488-.482-.039 0-.206.137-.51.463l-.024.026c-.53.568-.718.727-1.066.727-.39 0-.64-.204-1.112-.734-.322-.362-.457-.482-.488-.482-.039 0-.206.137-.51.463l-.024.026c-.53.568-.718.727-1.066.727-.39 0-.64-.204-1.112-.734-.322-.362-.457-.482-.488-.482-.039 0-.206.137-.51.463l-.024.026c-.53.568-.718.727-1.066.727-.39 0-.64-.204-1.112-.734-.322-.362-.457-.482-.488-.482-.039 0-.206.137-.51.463l-.024.026c-.53.568-.718.727-1.066.727-.39 0-.64-.204-1.112-.734-.322-.362-.457-.482-.488-.482-.039 0-.206.137-.51.463l-.024.026C.536 10.841.348 11 0 11v-.784c.034 0 .199-.139.526-.489l.024-.026C1.04 9.177 1.254 9 1.6 9c.357 0 .506.133 1.04.734.31.347.476.482.56.482zm0 2c.034 0 .199-.139.526-.489l.024-.026c.49-.524.704-.701 1.05-.701.357 0 .506.133 1.04.734.31.347.476.482.56.482.034 0 .199-.139.526-.489l.024-.026C7.44 11.177 7.654 11 8 11c.357 0 .506.133 1.04.734.31.347.476.482.56.482.034 0 .199-.139.526-.489l.024-.026c.49-.524.704-.701 1.05-.701.357 0 .506.133 1.04.734.31.347.476.482.56.482.034 0 .199-.139.526-.489l.024-.026c.49-.524.704-.701 1.05-.701.357 0 .506.133 1.04.734.31.347.476.482.56.482V13c-.39 0-.64-.204-1.112-.734-.322-.362-.457-.482-.488-.482-.039 0-.206.137-.51.463l-.024.026c-.53.568-.718.727-1.066.727-.39 0-.64-.204-1.112-.734-.322-.362-.457-.482-.488-.482-.039 0-.206.137-.51.463l-.024.026c-.53.568-.718.727-1.066.727-.39 0-.64-.204-1.112-.734-.322-.362-.457-.482-.488-.482-.039 0-.206.137-.51.463l-.024.026c-.53.568-.718.727-1.066.727-.39 0-.64-.204-1.112-.734-.322-.362-.457-.482-.488-.482-.039 0-.206.137-.51.463l-.024.026c-.53.568-.718.727-1.066.727-.39 0-.64-.204-1.112-.734-.322-.362-.457-.482-.488-.482-.039 0-.206.137-.51.463l-.024.026C.536 12.841.348 13 0 13v-.784c.034 0 .199-.139.526-.489l.024-.026c.49-.524.704-.701 1.05-.701.357 0 .506.133 1.04.734.31.347.476.482.56.482z"/><path fill="#FFF" fill-rule="nonzero" d="M3.2 11.216c.034 0 .199-.139.526-.489l.024-.026c.49-.524.704-.701 1.05-.701.357 0 .506.133 1.04.734.31.347.476.482.56.482.034 0 .199-.139.526-.489l.024-.026C7.44 10.177 7.654 10 8 10c.357 0 .506.133 1.04.734.31.347.476.482.56.482.034 0 .199-.139.526-.489l.024-.026c.49-.524.704-.701 1.05-.701.357 0 .506.133 1.04.734.31.347.476.482.56.482.034 0 .199-.139.526-.489l.024-.026c.49-.524.704-.701 1.05-.701.357 0 .506.133 1.04.734.31.347.476.482.56.482V12c-.39 0-.64-.204-1.112-.734-.322-.362-.457-.482-.488-.482-.039 0-.206.137-.51.463l-.024.026c-.53.568-.718.727-1.066.727-.39 0-.64-.204-1.112-.734-.322-.362-.457-.482-.488-.482-.039 0-.206.137-.51.463l-.024.026c-.53.568-.718.727-1.066.727-.39 0-.64-.204-1.112-.734-.322-.362-.457-.482-.488-.482-.039 0-.206.137-.51.463l-.024.026c-.53.568-.718.727-1.066.727-.39 0-.64-.204-1.112-.734-.322-.362-.457-.482-.488-.482-.039 0-.206.137-.51.463l-.024.026c-.53.568-.718.727-1.066.727-.39 0-.64-.204-1.112-.734-.322-.362-.457-.482-.488-.482-.039 0-.206.137-.51.463l-.024.026C.536 11.841.348 12 0 12v-.784c.034 0 .199-.139.526-.489l.024-.026c.49-.524.704-.701 1.05-.701.357 0 .506.133 1.04.734.31.347.476.482.56.482z"/></g><g mask="url(#cr-flag-CA-NB-b)"><path fill="#000" fill-rule="nonzero" d="M3 7.5h2.402C6.04 7.807 6.975 8 8 8s1.96-.193 2.598-.5H13c0 1.38-2.239 2.5-5 2.5S3 8.88 3 7.5z"/><g transform="translate(3 4)"><use fill="#FFF" xlink:href="#cr-flag-CA-NB-c"/><path stroke="#000" stroke-width=".5" d="M2.865-.25h3.447l-.068.304c-.148.665-.221 1.15-.221 1.446 0 .296.073.781.221 1.446l.108.486-.455-.204c-.852-.383-1.444-.574-1.745-.574-.273 0-.602.17-.98.528l-.285.27-.124-.373c-.283-.85-.425-1.473-.425-1.885 0-.431.153-.875.453-1.331l.074-.113z"/></g><path fill="#D32927" d="M4 6h1v1H4zm7 0h1v1h-1z"/></g><g mask="url(#cr-flag-CA-NB-b)"><mask id="cr-flag-CA-NB-e" fill="#fff"><use xlink:href="#cr-flag-CA-NB-d"/></mask><use fill="#D32927" xlink:href="#cr-flag-CA-NB-d"/><path fill="#F4C600" fill-rule="nonzero" d="M14.225 1.476l1.146.387-1.532 1.034-.191-.589-.662-.223.011-.068-2.32.052v1.029H8.293v-.975l-3.776.086v.441l-3.558.503-.193-.982 2.75-.343v-.18l-2.978-.22.11-.994 3.869.319v.361l.213-.71.958.286-.149.495L9.8 1.09l-.35-.047.132-.99 5.54.734-.897.69zm-4.814.622h.266v-.006l-.266.006z" mask="url(#cr-flag-CA-NB-e)" opacity=".8"/></g><g stroke="#000" stroke-opacity=".1" mask="url(#cr-flag-CA-NB-b)"><path d="M.5.5h15v11H.5z" style="mix-blend-mode:multiply"/></g></g></svg>