<svg xmlns="http://www.w3.org/2000/svg" xmlns:xlink="http://www.w3.org/1999/xlink" viewBox="0 0 16 12"><defs><rect id="cr-flag-CA-NU-a" width="16" height="12" rx="1"/></defs><g fill="none" fill-rule="evenodd"><mask id="cr-flag-CA-NU-b" fill="#fff"><use xlink:href="#cr-flag-CA-NU-a"/></mask><use fill="#FFF" xlink:href="#cr-flag-CA-NU-a"/><path fill="#0164BB" d="M13 3.923l-1.236.881.456-1.448L11 2.453l1.518-.014L13 1l.482 1.439L15 2.453l-1.22.903.456 1.448z" mask="url(#cr-flag-CA-NU-b)" transform="rotate(-36 13 2.902)"/><path fill="#FDD500" d="M0 0h8v12H0z" mask="url(#cr-flag-CA-NU-b)"/><rect width="2" height="3" x="7" y="1" fill="#D51516" stroke="#000" stroke-width=".5" mask="url(#cr-flag-CA-NU-b)" rx="1"/><rect width="2" height="2" x="7" y="6" fill="#D51516" stroke="#000" stroke-width=".5" mask="url(#cr-flag-CA-NU-b)" rx="1"/><rect width="3" height="2" x="6.5" y="8" fill="#D51516" stroke="#000" stroke-width=".5" mask="url(#cr-flag-CA-NU-b)" rx="1"/><rect width="4" height="2" x="6" y="10" fill="#D51516" stroke="#000" stroke-width=".5" mask="url(#cr-flag-CA-NU-b)" rx="1"/><rect width="6" height="2" x="5" y="4" fill="#D51516" stroke="#000" stroke-width=".5" mask="url(#cr-flag-CA-NU-b)" rx="1"/><g stroke="#000" stroke-opacity=".1" mask="url(#cr-flag-CA-NU-b)"><path d="M.5.5h15v11H.5z" style="mix-blend-mode:multiply"/></g></g></svg>