<svg xmlns="http://www.w3.org/2000/svg" xmlns:xlink="http://www.w3.org/1999/xlink" viewBox="0 0 16 12"><defs><rect id="cr-flag-CA-NS-a" width="16" height="12" rx="1"/><path id="cr-flag-CA-NS-c" d="M0 0h4v4L2 6 0 4z"/></defs><g fill="none" fill-rule="evenodd"><mask id="cr-flag-CA-NS-b" fill="#fff"><use xlink:href="#cr-flag-CA-NS-a"/></mask><use fill="#FFF" xlink:href="#cr-flag-CA-NS-a"/><path fill="#0047B6" d="M6.818 6L0 1V0h1l7 5.133L15 0h1v1L9.182 6 16 11v1h-1L8 6.867 1 12H0v-1l6.818-5z" mask="url(#cr-flag-CA-NS-b)"/><g mask="url(#cr-flag-CA-NS-b)"><g transform="translate(6 3)"><use fill="#FDD44F" xlink:href="#cr-flag-CA-NS-c"/><path stroke="#D21034" d="M-.5-.5h5v4.707L2 6.707l-2.5-2.5V-.5z"/></g><path fill="#D21034" fill-rule="nonzero" d="M7.253 6.338l-.392.066-.167-.986.883-.149-1.172-1.314.746-.666.846.949.23-.876.968.254-.435 1.657.693 2.104-.95.313-.293-.89-.815.801-.701-.713z"/></g><g stroke="#000" stroke-opacity=".1" mask="url(#cr-flag-CA-NS-b)"><path d="M.5.5h15v11H.5z" style="mix-blend-mode:multiply"/></g></g></svg>