<svg xmlns="http://www.w3.org/2000/svg" xmlns:xlink="http://www.w3.org/1999/xlink" viewBox="0 0 16 12"><defs><rect id="cr-flag-CA-ON-a" width="16" height="12" rx="1"/><rect id="cr-flag-CA-ON-c" width="8" height="6" rx="1"/><path id="cr-flag-CA-ON-e" d="M0 0h8v6H0z"/></defs><g fill="none" fill-rule="evenodd"><mask id="cr-flag-CA-ON-b" fill="#fff"><use xlink:href="#cr-flag-CA-ON-a"/></mask><use fill="#CF142B" xlink:href="#cr-flag-CA-ON-a"/><g mask="url(#cr-flag-CA-ON-b)"><path fill="#007934" d="M10 3h4v4l-2 2-2-2z"/><path fill="#F3CC00" fill-rule="nonzero" d="M12.057 8.025h-.063l-.36.287-1.575-1.975.782-.624.634.795V5.499h1v1.1l.679-.88.792.612-1.525 1.975z"/></g><g mask="url(#cr-flag-CA-ON-b)"><path fill="#FFF" d="M10 3h4v2h-4z"/><path fill="#CE1124" d="M12.25 3.833H14v.334h-1.75V5h-.5v-.833H10v-.334h1.75V3h.5z"/></g><g mask="url(#cr-flag-CA-ON-b)"><mask id="cr-flag-CA-ON-d" fill="#fff"><use xlink:href="#cr-flag-CA-ON-c"/></mask><use fill="#FFF" xlink:href="#cr-flag-CA-ON-c"/><g mask="url(#cr-flag-CA-ON-d)"><use fill="#FFF" xlink:href="#cr-flag-CA-ON-e"/><g mask="url(#cr-ca-on-f)"><path fill="#00247D" d="M0 0h8v6H0z"/><path fill="#FFF" d="M-.118-1l8.97 6.516L7.97 6.73-1 .213z"/><path fill="#FFF" d="M7.97-1L-1 5.517l.88 1.213L8.851.213z"/></g><g fill="#CF142B" mask="url(#cr-ca-on-f)"><path d="M-.206-.15l4.14 3.007-.588.81L-.794.658zm4.5 2.8l4.14 3.007-.588.81-4.14-3.008z"/><path d="M3.615 2.561L8.105-.7l.587.809-4.49 3.261z"/><path d="M-.153 5.758l4.14-3.008.587.809-4.14 3.008z"/></g><g mask="url(#cr-ca-on-f)"><path fill="#FFF" d="M3 2V0h2v2h3v2H5v2H3V4H0V2h3z"/><path fill="#CF142B" d="M8 2.5v1H4.5V6h-1V3.5H0v-1h3.5V0h1v2.5z"/></g></g><g stroke="#000" stroke-opacity=".1" mask="url(#cr-flag-CA-ON-d)"><path d="M.5.5h7v5h-7z" style="mix-blend-mode:multiply"/></g></g><g stroke="#000" stroke-opacity=".1" mask="url(#cr-flag-CA-ON-b)"><path d="M.5.5h15v11H.5z" style="mix-blend-mode:multiply"/></g></g></svg>