<svg xmlns="http://www.w3.org/2000/svg" xmlns:xlink="http://www.w3.org/1999/xlink" viewBox="0 0 16 12"><defs><rect id="cr-flag-CA-YT-c" width="16" height="12" rx="1"/><path id="cr-flag-CA-YT-a" d="M10.934 8.624a3 3 0 1 1-5.868-1.248 3 3 0 0 1 5.868 1.248z"/><mask id="cr-flag-CA-YT-e" width="6.001" height="6.001" x="0" y="0" fill="#fff"><use xlink:href="#cr-flag-CA-YT-a"/></mask><path id="cr-flag-CA-YT-b" d="M10.572 9.545a3 3 0 1 1-5.144-3.09 3 3 0 0 1 5.144 3.09z"/><mask id="cr-flag-CA-YT-f" width="6.001" height="6.001" x="0" y="0" fill="#fff"><use xlink:href="#cr-flag-CA-YT-b"/></mask><path id="cr-flag-CA-YT-g" d="M0 0h4v4L2 6 0 4z"/></defs><g fill="none" fill-rule="evenodd"><mask id="cr-flag-CA-YT-d" fill="#fff"><use xlink:href="#cr-flag-CA-YT-c"/></mask><use fill="#FFF" xlink:href="#cr-flag-CA-YT-c"/><g stroke="#D5105A" stroke-dasharray="8 13" stroke-width="2" mask="url(#cr-flag-CA-YT-d)"><use mask="url(#cr-flag-CA-YT-e)" xlink:href="#cr-flag-CA-YT-a"/></g><g stroke="#1E501F" stroke-dasharray="6 13" stroke-width="2" mask="url(#cr-flag-CA-YT-d)"><use mask="url(#cr-flag-CA-YT-f)" xlink:href="#cr-flag-CA-YT-b"/></g><g mask="url(#cr-flag-CA-YT-d)"><g transform="translate(6 3)"><mask id="cr-flag-CA-YT-h" fill="#fff"><use xlink:href="#cr-flag-CA-YT-g"/></mask><use fill="#0738AC" xlink:href="#cr-flag-CA-YT-g"/><path stroke="#000" stroke-width=".5" d="M-.25-.25h4.5V4l-.073.177L2 6.354-.177 4.177-.25 4V-.25z"/><g mask="url(#cr-flag-CA-YT-h)"><path fill="#FFF" d="M0 0h4v1H0z"/><path fill="#CE1124" d="M2.25.417H4v.166H2.25V1h-.5V.583H0V.417h1.75V0h.5z"/></g><path fill="#D51810" d="M-.5 5.8L.71 1.5 1.749 6zm5.249 0L2.5 6l1.04-4.5z" mask="url(#cr-flag-CA-YT-h)"/><path fill="#FFF" d="M1.5 1h1v5h-1z" mask="url(#cr-flag-CA-YT-h)"/></g></g><path fill="#CDCDCD" d="M7 1.5h2v1H7z" mask="url(#cr-flag-CA-YT-d)"/><path fill="#187B01" d="M0 0h5v12H0z" mask="url(#cr-flag-CA-YT-d)"/><path fill="#0738AC" d="M11 0h5v12h-5z" mask="url(#cr-flag-CA-YT-d)"/><g stroke="#000" stroke-opacity=".1" mask="url(#cr-flag-CA-YT-d)"><path d="M.5.5h15v11H.5z" style="mix-blend-mode:multiply"/></g></g></svg>