<svg xmlns="http://www.w3.org/2000/svg" xmlns:xlink="http://www.w3.org/1999/xlink" viewBox="0 0 16 12"><defs><rect id="cr-flag-CC-a" width="16" height="12" rx="1"/></defs><g fill="none" fill-rule="evenodd"><mask id="cr-flag-CC-b" fill="#fff"><use xlink:href="#cr-flag-CC-a"/></mask><use fill="#FFF" xlink:href="#cr-flag-CC-a"/><path fill="green" d="M0 0h16v12H0z" mask="url(#cr-flag-CC-b)"/><path fill="#FFE000" d="M12 2h1v1h-1zm-1 3h1v1h-1zm3-1h1v1h-1zm-1 2h1v1h-1zm-1 3h1v1h-1z" mask="url(#cr-flag-CC-b)"/><path fill="#FFC639" d="M10.289 4.625a2.027 2.027 0 1 0 0 2.75 2.495 2.495 0 1 1 0-2.75z" mask="url(#cr-flag-CC-b)"/><circle cx="3" cy="3" r="2" fill="#FFC639" mask="url(#cr-flag-CC-b)"/><path fill="green" d="M2 2h2v1H2z" mask="url(#cr-flag-CC-b)"/><path fill="#802000" d="M2.5 3h1v1h-1z" mask="url(#cr-flag-CC-b)"/><g stroke="#000" stroke-opacity=".1" mask="url(#cr-flag-CC-b)"><path d="M.5.5h15v11H.5z" style="mix-blend-mode:multiply"/></g></g></svg>