<svg xmlns="http://www.w3.org/2000/svg" xmlns:xlink="http://www.w3.org/1999/xlink" viewBox="0 0 16 12"><defs><rect id="cr-flag-EC-a" width="16" height="12" rx="1"/><linearGradient id="cr-flag-EC-c" x1="50%" x2="50%" y1="0%" y2="100%"><stop offset="0%" stop-color="#1262A1"/><stop offset="100%" stop-color="#2898C8"/></linearGradient></defs><g fill="none" fill-rule="evenodd"><mask id="cr-flag-EC-b" fill="#fff"><use xlink:href="#cr-flag-EC-a"/></mask><use fill="#FFF" xlink:href="#cr-flag-EC-a"/><path fill="#FD0" d="M0 0h16v12H0z" mask="url(#cr-flag-EC-b)"/><path fill="#ED1C24" d="M0 9h16v3H0z" mask="url(#cr-flag-EC-b)"/><path fill="#034EA2" d="M0 6h16v3H0z" mask="url(#cr-flag-EC-b)"/><circle cx="8" cy="5" r="2.5" stroke="#FD0" mask="url(#cr-flag-EC-b)"/><path fill="#ED1C24" fill-rule="nonzero" d="M8 7a2 2 0 1 1 0-4 2 2 0 0 1 0 4z" mask="url(#cr-flag-EC-b)"/><path fill="#FD0" d="M5 3h6v2H5z" mask="url(#cr-flag-EC-b)"/><circle cx="8" cy="5" r="1" fill="url(#cr-flag-EC-c)" mask="url(#cr-flag-EC-b)"/><path fill="#452C25" fill-rule="nonzero" d="M8 2.728a1.996 1.996 0 0 0-2.456-.508L6 3.11A1 1 0 0 1 7.457 4h1.087a1 1 0 0 1 1.455-.89l.457-.89A1.996 1.996 0 0 0 8 2.729z" mask="url(#cr-flag-EC-b)"/><g stroke="#000" stroke-opacity=".1" mask="url(#cr-flag-EC-b)"><path d="M.5.5h15v11H.5z" style="mix-blend-mode:multiply"/></g></g></svg>