<svg xmlns="http://www.w3.org/2000/svg" xmlns:xlink="http://www.w3.org/1999/xlink" viewBox="0 0 16 12"><defs><rect id="cr-flag-FJ-a" width="16" height="12" rx="1"/><path id="cr-flag-FJ-c" d="M0 0h4v4L2 6 0 4z"/><path id="cr-flag-FJ-e" d="M0 0h8v6H0z"/></defs><g fill="none" fill-rule="evenodd"><mask id="cr-flag-FJ-b" fill="#fff"><use xlink:href="#cr-flag-FJ-a"/></mask><use fill="#FFF" xlink:href="#cr-flag-FJ-a"/><path fill="#68BFE5" d="M0 0h16v12H0z" mask="url(#cr-flag-FJ-b)"/><g mask="url(#cr-flag-FJ-b)"><g transform="translate(10 3)"><mask id="cr-flag-FJ-d" fill="#fff"><use xlink:href="#cr-flag-FJ-c"/></mask><use fill="#FFF" xlink:href="#cr-flag-FJ-c"/><path fill="#00A651" d="M.25 1.25h1v1h-1zm2.5 0h1v1h-1zm0 2.5h1v1h-1z" mask="url(#cr-flag-FJ-d)"/><path fill="#D21034" d="M0 0h4v1H0zm0 2.5h4v1H0z" mask="url(#cr-flag-FJ-d)"/><path fill="#D21034" d="M1.5 0h1v6h-1z" mask="url(#cr-flag-FJ-d)"/></g></g><g mask="url(#cr-flag-FJ-b)"><use fill="#FFF" xlink:href="#cr-flag-FJ-e"/><g mask="url(#cr-fj-f)"><path fill="#00247D" d="M0 0h8v6H0z"/><path fill="#FFF" d="M-.118-1l8.97 6.516L7.97 6.73-1 .213z"/><path fill="#FFF" d="M7.97-1L-1 5.517l.88 1.213L8.851.213z"/></g><g fill="#CF142B" mask="url(#cr-fj-f)"><path d="M-.206-.15l4.14 3.007-.588.81L-.794.658zm4.5 2.8l4.14 3.007-.588.81-4.14-3.008z"/><path d="M3.615 2.561L8.105-.7l.587.809-4.49 3.261z"/><path d="M-.153 5.758l4.14-3.008.587.809-4.14 3.008z"/></g><g mask="url(#cr-fj-f)"><path fill="#FFF" d="M3 2V0h2v2h3v2H5v2H3V4H0V2h3z"/><path fill="#CF142B" d="M8 2.5v1H4.5V6h-1V3.5H0v-1h3.5V0h1v2.5z"/></g></g><g stroke="#000" stroke-opacity=".1" mask="url(#cr-flag-FJ-b)"><path d="M.5.5h15v11H.5z" style="mix-blend-mode:multiply"/></g></g></svg>