<svg xmlns="http://www.w3.org/2000/svg" xmlns:xlink="http://www.w3.org/1999/xlink" viewBox="0 0 16 12"><defs><rect id="cr-flag-FK-a" width="16" height="12" rx="1"/><path id="cr-flag-FK-c" d="M0 0h8v6H0z"/><path id="cr-flag-FK-e" d="M1 0h4v4L3 6 1 4z"/><linearGradient id="cr-flag-FK-f" x1="0%" y1="70.776%" y2="70.776%"><stop offset="0%" stop-color="#E7C3A3"/><stop offset="100%" stop-color="#A43907"/></linearGradient></defs><g fill="none" fill-rule="evenodd"><mask id="cr-flag-FK-b" fill="#fff"><use xlink:href="#cr-flag-FK-a"/></mask><use fill="#FFF" xlink:href="#cr-flag-FK-a"/><path fill="#00247D" d="M0 0h16v12H0z" mask="url(#cr-flag-FK-b)"/><g mask="url(#cr-flag-FK-b)"><mask id="cr-flag-FK-d" fill="#fff"><use xlink:href="#cr-flag-FK-c"/></mask><use fill="#FFF" xlink:href="#cr-flag-FK-c"/><g mask="url(#cr-flag-FK-d)"><path fill="#00247D" d="M0 0h8v6H0z"/><path fill="#FFF" d="M-.118-1l8.97 6.516L7.97 6.73-1 .213z"/><path fill="#FFF" d="M7.97-1L-1 5.517l.88 1.213L8.851.213z"/></g><g fill="#CF142B" mask="url(#cr-flag-FK-d)"><path d="M-.206-.15l4.14 3.007-.588.81L-.794.658zm4.5 2.8l4.14 3.007-.588.81-4.14-3.008z"/><path d="M3.615 2.561L8.105-.7l.587.809-4.49 3.261z"/><path d="M-.153 5.758l4.14-3.008.587.809-4.14 3.008z"/></g><g mask="url(#cr-flag-FK-d)"><path fill="#FFF" d="M3 2V0h2v2h3v2H5v2H3V4H0V2h3z"/><path fill="#CF142B" d="M8 2.5v1H4.5V6h-1V3.5H0v-1h3.5V0h1v2.5z"/></g></g><g mask="url(#cr-flag-FK-b)"><g transform="translate(9 3)"><use fill="#0072C4" xlink:href="#cr-flag-FK-e"/><path fill="#FFF" fill-rule="nonzero" d="M3 4c-.366 0-.6-.204-1.042-.734-.302-.362-.429-.482-.458-.482-.036 0-.193.137-.478.463l-.023.026C.502 3.841.326 4 0 4v-.784c.032 0 .186-.139.493-.489l.023-.026C.975 2.177 1.176 2 1.5 2c.335 0 .475.133.976.734.29.347.445.482.524.482.032 0 .186-.139.493-.489l.023-.026C3.975 2.177 4.176 2 4.5 2c.335 0 .475.133.976.734.29.347.445.482.524.482V4c-.366 0-.6-.204-1.042-.734-.302-.362-.429-.482-.458-.482-.036 0-.193.137-.478.463l-.023.026C3.502 3.841 3.326 4 3 4zm0 2c-.366 0-.6-.204-1.042-.734-.302-.362-.429-.482-.458-.482-.036 0-.193.137-.478.463l-.023.026C.502 5.841.326 6 0 6v-.784c.032 0 .186-.139.493-.489l.023-.026C.975 4.177 1.176 4 1.5 4c.335 0 .475.133.976.734.29.347.445.482.524.482.032 0 .186-.139.493-.489l.023-.026C3.975 4.177 4.176 4 4.5 4c.335 0 .475.133.976.734.29.347.445.482.524.482V6c-.366 0-.6-.204-1.042-.734-.302-.362-.429-.482-.458-.482-.036 0-.193.137-.478.463l-.023.026C3.502 5.841 3.326 6 3 6z" mask="url(#cr-flag-FK-f)"/></g></g><path fill="url(#cr-flag-FK-f)" fill-rule="nonzero" d="M10 7a2 2 0 1 0 4 0h1a3 3 0 0 1-6 0h1z" mask="url(#cr-flag-FK-b)"/><rect width="2" height="1" x="11" y="4" fill="#FFF" mask="url(#cr-flag-FK-b)" rx=".5"/><g stroke="#000" stroke-opacity=".1" mask="url(#cr-flag-FK-b)"><path d="M.5.5h15v11H.5z" style="mix-blend-mode:multiply"/></g></g></svg>