<svg xmlns="http://www.w3.org/2000/svg" xmlns:xlink="http://www.w3.org/1999/xlink" viewBox="0 0 16 12"><defs><rect id="cr-flag-FM-a" width="16" height="12" rx="1"/></defs><g fill="none" fill-rule="evenodd"><mask id="cr-flag-FM-b" fill="#fff"><use xlink:href="#cr-flag-FM-a"/></mask><use fill="#FFF" xlink:href="#cr-flag-FM-a"/><path fill="#75B2DD" d="M0 0h16v12H0z" mask="url(#cr-flag-FM-b)"/><path fill="#FFF" d="M8 3.192l-.927.661.342-1.086L6.5 2.09l1.138-.01L8 1l.362 1.08 1.138.01-.915.677.342 1.086z" mask="url(#cr-flag-FM-b)"/><path fill="#FFF" d="M8 10.342l-.927.661.342-1.086L6.5 9.24l1.138-.01L8 8.15l.362 1.08 1.138.01-.915.677.342 1.086z" mask="url(#cr-flag-FM-b)" transform="rotate(180 8 9.577)"/><path fill="#FFF" d="M4.427 6.766l-.927.661.342-1.086-.915-.678 1.138-.01.362-1.08.361 1.08 1.139.01-.915.678.342 1.086z" mask="url(#cr-flag-FM-b)" transform="rotate(-90 4.427 6)"/><path fill="#FFF" d="M11.577 6.766l-.927.661.342-1.086-.915-.678 1.138-.01.362-1.08.361 1.08 1.139.01-.915.678.342 1.086z" mask="url(#cr-flag-FM-b)" transform="rotate(90 11.577 6)"/><g stroke="#000" stroke-opacity=".1" mask="url(#cr-flag-FM-b)"><path d="M.5.5h15v11H.5z" style="mix-blend-mode:multiply"/></g></g></svg>