<svg xmlns="http://www.w3.org/2000/svg" xmlns:xlink="http://www.w3.org/1999/xlink" viewBox="0 0 16 12"><defs><rect id="cr-flag-GB-a" width="16" height="12" rx="1"/><path id="cr-flag-GB-c" d="M0 0h16v12H0z"/></defs><g fill="none" fill-rule="evenodd"><mask id="cr-flag-GB-b" fill="#fff"><use xlink:href="#cr-flag-GB-a"/></mask><use fill="#FFF" xlink:href="#cr-flag-GB-a"/><g mask="url(#cr-flag-GB-b)"><mask id="cr-flag-GB-d" fill="#fff"><use xlink:href="#cr-flag-GB-c"/></mask><use fill="#FFF" xlink:href="#cr-flag-GB-c"/><g mask="url(#cr-flag-GB-d)"><path fill="#00247D" d="M0 0h16v12H0z"/><path fill="#FFF" d="M-.237-2l17.94 13.033-1.764 2.427L-2.001.427z"/><path fill="#FFF" d="M15.939-2l-17.94 13.033 1.764 2.427L17.703.427z"/></g><g fill="#CF142B" mask="url(#cr-flag-GB-d)"><path d="M-.412-.3l8.28 6.015-.588.81L-1 .508zm9 5.6l8.28 6.015-.588.81L8 6.108z"/><path d="M7.23 5.124l8.98-6.523.587.809L7.82 5.933z"/><path d="M-.306 11.515L7.974 5.5l.587.809-8.28 6.015z"/></g><g mask="url(#cr-flag-GB-d)"><path fill="#FFF" d="M6 4V0h4v4h6v4h-6v4H6V8H0V4h6z"/><path fill="#CF142B" d="M16 5v2H9v5H7V7H0V5h7V0h2v5z"/></g></g><g stroke="#000" stroke-opacity=".1" mask="url(#cr-flag-GB-b)"><path d="M.5.5h15v11H.5z" style="mix-blend-mode:multiply"/></g></g></svg>