<svg xmlns="http://www.w3.org/2000/svg" xmlns:xlink="http://www.w3.org/1999/xlink" viewBox="0 0 16 12"><defs><rect id="cr-flag-GQ-a" width="16" height="12" rx="1"/></defs><g fill="none" fill-rule="evenodd"><mask id="cr-flag-GQ-b" fill="#fff"><use xlink:href="#cr-flag-GQ-a"/></mask><use fill="#FFF" xlink:href="#cr-flag-GQ-a"/><path fill="#FFF" d="M0 0h16v12H0z" mask="url(#cr-flag-GQ-b)"/><path fill="#3E9A00" d="M0 0h16v4H0z" mask="url(#cr-flag-GQ-b)"/><path fill="#E32118" d="M0 8h16v4H0z" mask="url(#cr-flag-GQ-b)"/><path fill="#0073CE" d="M0 0l3 6-3 6z" mask="url(#cr-flag-GQ-b)"/><g mask="url(#cr-flag-GQ-b)"><path fill="#73452B" d="M8.5 5v3h-1V5z"/><path fill="#A36629" d="M8 5v3h-.5V5z"/><path fill="#009A3B" d="M6.5 5h3v1h-3z"/></g><path fill="#FFD700" fill-rule="nonzero" d="M6.68 6.135A3.66 3.66 0 0 0 9.737 4.49a.5.5 0 1 0-.834-.551 2.66 2.66 0 0 1-2.225 1.197.5.5 0 1 0 0 1z" mask="url(#cr-flag-GQ-b)" transform="rotate(-152 8 4.924)"/><g stroke="#000" stroke-opacity=".1" mask="url(#cr-flag-GQ-b)"><path d="M.5.5h15v11H.5z" style="mix-blend-mode:multiply"/></g></g></svg>