<svg xmlns="http://www.w3.org/2000/svg" xmlns:xlink="http://www.w3.org/1999/xlink" viewBox="0 0 16 12"><defs><rect id="cr-flag-GS-a" width="16" height="12" rx="1"/><path id="cr-flag-GS-c" d="M0 0h4v4L2 6 0 4z"/><path id="cr-flag-GS-e" d="M.012.988L2 7 3.988.988z"/><path id="cr-flag-GS-f" d="M0 0h8v6H0z"/></defs><g fill="none" fill-rule="evenodd"><mask id="cr-flag-GS-b" fill="#fff"><use xlink:href="#cr-flag-GS-a"/></mask><use fill="#FFF" xlink:href="#cr-flag-GS-a"/><path fill="#00247D" d="M0 0h16v12H0z" mask="url(#cr-flag-GS-b)"/><path fill="#2D9C4B" d="M10 3h4v4l-2 2-2-2z" mask="url(#cr-flag-GS-b)"/><g mask="url(#cr-flag-GS-b)"><g transform="translate(10 3)"><mask id="cr-flag-GS-d" fill="#fff"><use xlink:href="#cr-flag-GS-c"/></mask><use fill="#1E5AA6" xlink:href="#cr-flag-GS-c"/><g fill="#FFF" mask="url(#cr-flag-GS-d)"><path d="M2.656.025l.708.707-.708.707L1.95.732zM1.242-1.39l.707.708-.707.707-.707-.707zM4.07 1.44l.708.706-.707.708-.707-.708zm0-1.415l.708.707-.707.707-.707-.707zm0 2.829l.708.707-.707.707-.707-.707zM5.485 1.44l.707.706-.707.708-.707-.708zm-2.829 0l.708.706-.708.708-.707-.708z"/><path d="M1.242.025l.707.707-.707.707L.535.732zm1.414 2.829l.708.707-.708.707-.707-.707zM1.242 1.44l.707.706-.707.708-.707-.708zM-.172.025l.707.707-.707.707-.707-.707zm1.414 2.829l.707.707-.707.707-.707-.707zM-.172 1.44l.707.706-.707.708-.707-.708zm2.828 2.828l.708.707-.708.707-.707-.707zM-.172 2.854l.707.707-.707.707-.707-.707zm1.414 1.414l.707.707-.707.707-.707-.707zm-1.414 0l.707.707-.707.707-.707-.707z"/></g><g mask="url(#cr-flag-GS-d)"><g transform="translate(0 -1)"><use fill="#006B00" xlink:href="#cr-flag-GS-e"/><path fill="#FFC900" d="M1 1h2v4H1z" mask="url(#cr-flag-GS-f)" opacity=".5"/></g></g></g></g><path fill="#8A9396" d="M9 3h1v5H9z" mask="url(#cr-flag-GS-b)"/><path fill="#923F00" d="M11 1h2v1h-2z" mask="url(#cr-flag-GS-b)"/><path fill="#656263" d="M11 2h2v1h-2z" mask="url(#cr-flag-GS-b)"/><path fill="#000" d="M14 3h1v5h-1z" mask="url(#cr-flag-GS-b)"/><path fill="#FB0" fill-rule="nonzero" d="M13 9.996a2 2 0 0 1-2 2v-1a1 1 0 0 0 .067-1.998L11.133 8A2 2 0 0 1 13 9.996zm0 0a2 2 0 0 1-2 2v-1a1 1 0 0 0 .067-1.998L11.133 8A2 2 0 0 1 13 9.996z" mask="url(#cr-flag-GS-b)" transform="rotate(-90 12 9.998)"/><g mask="url(#cr-flag-GS-b)"><use fill="#FFF" xlink:href="#cr-flag-GS-f"/><g mask="url(#cr-gs-g)"><path fill="#00247D" d="M0 0h8v6H0z"/><path fill="#FFF" d="M-.118-1l8.97 6.516L7.97 6.73-1 .213z"/><path fill="#FFF" d="M7.97-1L-1 5.517l.88 1.213L8.851.213z"/></g><g fill="#CF142B" mask="url(#cr-gs-g)"><path d="M-.206-.15l4.14 3.007-.588.81L-.794.658zm4.5 2.8l4.14 3.007-.588.81-4.14-3.008z"/><path d="M3.615 2.561L8.105-.7l.587.809-4.49 3.261z"/><path d="M-.153 5.758l4.14-3.008.587.809-4.14 3.008z"/></g><g mask="url(#cr-gs-g)"><path fill="#FFF" d="M3 2V0h2v2h3v2H5v2H3V4H0V2h3z"/><path fill="#CF142B" d="M8 2.5v1H4.5V6h-1V3.5H0v-1h3.5V0h1v2.5z"/></g></g><g stroke="#000" stroke-opacity=".1" mask="url(#cr-flag-GS-b)"><path d="M.5.5h15v11H.5z" style="mix-blend-mode:multiply"/></g></g></svg>