<svg xmlns="http://www.w3.org/2000/svg" xmlns:xlink="http://www.w3.org/1999/xlink" viewBox="0 0 16 12"><defs><rect id="cr-flag-HK-a" width="16" height="12" rx="1"/></defs><g fill="none" fill-rule="evenodd"><mask id="cr-flag-HK-b" fill="#fff"><use xlink:href="#cr-flag-HK-a"/></mask><use fill="#FFF" xlink:href="#cr-flag-HK-a"/><path fill="#DE2910" d="M0 0h16v12H0z" mask="url(#cr-flag-HK-b)"/><path fill="#FFF" d="M7.952 6.207c-.2-.409-.445-.689-.359-1.17.087-.48.869-.617.97-1.177.1-.56-.367-.79-.367-.926s.036-.208.208-.316c-1.327-.18-2.993 1.364-.452 3.59zm-.005.019c.327-.318.518-.636 1.002-.703.484-.067.855.635 1.419.558.563-.077.638-.592.767-.634.13-.043.21-.03.365.1-.24-1.318-2.222-2.425-3.553.679zm-.02 0c.403.214.765.297.978.736.213.44-.34 1.01-.092 1.522.248.512.76.424.84.534.08.11.094.19.018.378 1.18-.635 1.62-2.863-1.744-3.17zm-.006-.018c-.078.45-.045.82-.398 1.158-.352.338-1.065-.011-1.476.383-.41.393-.168.854-.248.964-.08.11-.151.147-.354.133.969.926 3.223.656 2.476-2.638zm.015-.012c-.451.065-.793.21-1.224-.02-.43-.23-.318-1.017-.82-1.285-.501-.27-.864.104-.994.062-.13-.043-.187-.099-.236-.296-.58 1.208.372 3.268 3.274 1.54z" mask="url(#cr-flag-HK-b)"/><g stroke="#000" stroke-opacity=".1" mask="url(#cr-flag-HK-b)"><path d="M.5.5h15v11H.5z" style="mix-blend-mode:multiply"/></g></g></svg>