<svg xmlns="http://www.w3.org/2000/svg" xmlns:xlink="http://www.w3.org/1999/xlink" viewBox="0 0 16 12"><defs><rect id="cr-flag-IM-a" width="16" height="12" rx="1"/></defs><g fill="none" fill-rule="evenodd"><mask id="cr-flag-IM-b" fill="#fff"><use xlink:href="#cr-flag-IM-a"/></mask><use fill="#FFF" xlink:href="#cr-flag-IM-a"/><path fill="#CF142B" d="M0 0h16v12H0z" mask="url(#cr-flag-IM-b)"/><g fill="#FFF" mask="url(#cr-flag-IM-b)"><g transform="translate(2 .5) rotate(10 -5.426 36.716)"><rect width="3" height="1" y="3" rx=".5"/><g transform="rotate(-8 8.647 -11.334)"><rect width="1" height="3" rx=".5"/><rect width="2" height="1" rx=".5"/></g></g><g transform="translate(2 .5) rotate(-120 3.782 2.628)"><rect width="3" height="1" y="3" rx=".5"/><g transform="rotate(-8 8.647 -11.334)"><rect width="1" height="3" rx=".5"/><rect width="2" height="1" rx=".5"/></g></g><g transform="translate(2 .5) rotate(120 2.896 5.906)"><rect width="3" height="1" y="3" rx=".5"/><g transform="rotate(-8 8.647 -11.334)"><rect width="1" height="3" rx=".5"/><rect width="2" height="1" rx=".5"/></g></g></g><g stroke="#000" stroke-opacity=".1" mask="url(#cr-flag-IM-b)"><path d="M.5.5h15v11H.5z" style="mix-blend-mode:multiply"/></g></g></svg>