<svg xmlns="http://www.w3.org/2000/svg" xmlns:xlink="http://www.w3.org/1999/xlink" viewBox="0 0 16 12"><defs><rect id="cr-flag-KE-a" width="16" height="12" rx="1"/></defs><g fill="none" fill-rule="evenodd"><mask id="cr-flag-KE-b" fill="#fff"><use xlink:href="#cr-flag-KE-a"/></mask><use fill="#FFF" xlink:href="#cr-flag-KE-a"/><path fill="#060" d="M0 9h16v3H0z" mask="url(#cr-flag-KE-b)"/><path fill="#B00" d="M0 4h16v4H0z" mask="url(#cr-flag-KE-b)"/><path fill="#000" d="M0 0h16v3H0z" mask="url(#cr-flag-KE-b)"/><g mask="url(#cr-flag-KE-b)"><path fill="#FFF" d="M10.702 1.703l-4.537 7.86-.867-.5 4.538-7.86z"/><path fill="#FFF" d="M5.298 1.703l4.537 7.86.866-.5-4.537-7.86z"/><path fill="#FFF" d="M8 9.5c.344 0 1.5-1.567 1.5-3.5S8.376 2.5 8 2.5c-.376 0-1.5 1.567-1.5 3.5S7.656 9.5 8 9.5z"/><path fill="#B00" d="M8 9.5c.344 0 1.5-1.567 1.5-3.5S8.376 2.5 8 2.5c-.376 0-1.5 1.567-1.5 3.5S7.656 9.5 8 9.5zm0-3c.138 0 .25-.224.25-.5s-.112-.5-.25-.5-.25.224-.25.5.112.5.25.5zm0 3c.138 0 .25-.672.25-1.5S8.138 6.5 8 6.5s-.25.672-.25 1.5.112 1.5.25 1.5zm0-4c.138 0 .25-.672.25-1.5S8.138 2.5 8 2.5s-.25.672-.25 1.5.112 1.5.25 1.5z"/><path fill="#000" d="M6.889 7.97A5.356 5.356 0 0 1 6.5 6c0-.74.165-1.426.389-1.991.224.565.389 1.251.389 1.991 0 .73-.165 1.408-.389 1.97zm2.222 0A5.356 5.356 0 0 0 9.5 6c0-.74-.165-1.426-.389-1.991A5.446 5.446 0 0 0 8.722 6c0 .73.165 1.408.389 1.97z"/></g><g stroke="#000" stroke-opacity=".1" mask="url(#cr-flag-KE-b)"><path d="M.5.5h15v11H.5z" style="mix-blend-mode:multiply"/></g></g></svg>