<svg xmlns="http://www.w3.org/2000/svg" xmlns:xlink="http://www.w3.org/1999/xlink" viewBox="0 0 16 12"><defs><rect id="cr-flag-KI-a" width="16" height="12" rx="1"/></defs><g fill="none" fill-rule="evenodd"><mask id="cr-flag-KI-b" fill="#fff"><use xlink:href="#cr-flag-KI-a"/></mask><path fill="#CE1126" d="M0 0h16v6H0z" mask="url(#cr-flag-KI-b)"/><path fill="#00247D" d="M0 10.75c.694.167 1.22.25 1.578.25.109 0 .724-.23 1.656-.25.367-.008.863.268 1.61.25.377-.009.867-.246 1.562-.25.373-.002.905.237 1.594.25.375.007.932-.252 1.64-.25.367.001.856.225 1.563.25.357.012.883-.25 1.61-.25.348 0 .826.182 1.593.25.291.026.823-.058 1.594-.25V12H0v-1.25z" mask="url(#cr-flag-KI-b)"/><circle cx="8" cy="6" r="3" fill="#FCD116" mask="url(#cr-flag-KI-b)"/><path fill="#FCD116" d="M5 1h6v1H5z" mask="url(#cr-flag-KI-b)"/><path fill="#00247D" fill-rule="nonzero" d="M1.6 8c-.39 0-.64-.204-1.111-.734C.166 6.904.03 6.784 0 6.784c-.039 0-.206.137-.51.463l-.024.026C-1.064 7.841-1.252 8-1.6 8v-.784c.034 0 .199-.139.526-.489l.024-.026C-.56 6.177-.346 6 0 6c.357 0 .506.133 1.041.734.309.347.475.482.559.482.034 0 .199-.139.526-.489l.024-.026C2.64 6.177 2.854 6 3.2 6c.357 0 .506.133 1.041.734.309.347.475.482.559.482.034 0 .199-.139.526-.489l.024-.026C5.84 6.177 6.054 6 6.4 6c.357 0 .506.133 1.041.734.309.347.475.482.559.482.034 0 .199-.139.526-.489l.024-.026C9.04 6.177 9.254 6 9.6 6c.357 0 .506.133 1.041.734.309.347.475.482.559.482.034 0 .199-.139.526-.489l.024-.026c.49-.524.704-.701 1.05-.701.357 0 .506.133 1.041.734.309.347.475.482.559.482.034 0 .199-.139.526-.489l.024-.026C15.44 6.177 15.654 6 16 6c.357 0 .506.133 1.041.734.309.347.475.482.559.482V8c-.39 0-.64-.204-1.111-.734-.323-.362-.458-.482-.489-.482-.039 0-.206.137-.51.463l-.024.026c-.53.568-.718.727-1.066.727-.39 0-.64-.204-1.111-.734-.323-.362-.458-.482-.489-.482-.039 0-.206.137-.51.463l-.024.026c-.53.568-.718.727-1.066.727-.39 0-.64-.204-1.111-.734-.323-.362-.458-.482-.489-.482-.039 0-.206.137-.51.463l-.024.026C8.536 7.841 8.348 8 8 8c-.39 0-.64-.204-1.111-.734-.323-.362-.458-.482-.489-.482-.039 0-.206.137-.51.463l-.024.026C5.336 7.841 5.148 8 4.8 8c-.39 0-.64-.204-1.111-.734-.323-.362-.458-.482-.489-.482-.039 0-.206.137-.51.463l-.024.026C2.136 7.841 1.948 8 1.6 8zm12.8 1.216c.034 0 .199-.139.526-.489l.024-.026C15.44 8.177 15.654 8 16 8c.357 0 .506.133 1.041.734.309.347.475.482.559.482V10c-.39 0-.64-.204-1.111-.734-.323-.362-.458-.482-.489-.482-.039 0-.206.137-.51.463l-.024.026c-.53.568-.718.727-1.066.727-.39 0-.64-.204-1.111-.734-.323-.362-.458-.482-.489-.482-.039 0-.206.137-.51.463l-.024.026c-.53.568-.718.727-1.066.727-.39 0-.64-.204-1.111-.734-.323-.362-.458-.482-.489-.482-.039 0-.206.137-.51.463l-.024.026C8.536 9.841 8.348 10 8 10c-.39 0-.64-.204-1.111-.734-.323-.362-.458-.482-.489-.482-.039 0-.206.137-.51.463l-.024.026c-.53.568-.718.727-1.066.727-.39 0-.64-.204-1.111-.734-.323-.362-.458-.482-.489-.482-.039 0-.206.137-.51.463l-.024.026c-.53.568-.718.727-1.066.727-.39 0-.64-.204-1.111-.734C.166 8.904.03 8.784 0 8.784c-.039 0-.206.137-.51.463l-.024.026c-.53.568-.718.727-1.066.727v-.784c.034 0 .199-.139.526-.489l.024-.026C-.56 8.177-.346 8 0 8c.357 0 .506.133 1.041.734.309.347.475.482.559.482.034 0 .199-.139.526-.489l.024-.026C2.64 8.177 2.854 8 3.2 8c.357 0 .506.133 1.041.734.309.347.475.482.559.482.034 0 .199-.139.526-.489l.024-.026C5.84 8.177 6.054 8 6.4 8c.357 0 .506.133 1.041.734.309.347.475.482.559.482.034 0 .199-.139.526-.489l.024-.026C9.04 8.177 9.254 8 9.6 8c.357 0 .506.133 1.041.734.309.347.475.482.559.482.034 0 .199-.139.526-.489l.024-.026c.49-.524.704-.701 1.05-.701.357 0 .506.133 1.041.734.309.347.475.482.559.482zm0 2c.034 0 .199-.139.526-.489l.024-.026c.49-.524.704-.701 1.05-.701.357 0 .506.133 1.041.734.309.347.475.482.559.482V12c-.39 0-.64-.204-1.111-.734-.323-.362-.458-.482-.489-.482-.039 0-.206.137-.51.463l-.024.026c-.53.568-.718.727-1.066.727-.39 0-.64-.204-1.111-.734-.323-.362-.458-.482-.489-.482-.039 0-.206.137-.51.463l-.024.026c-.53.568-.718.727-1.066.727-.39 0-.64-.204-1.111-.734-.323-.362-.458-.482-.489-.482-.039 0-.206.137-.51.463l-.024.026C8.536 11.841 8.348 12 8 12c-.39 0-.64-.204-1.111-.734-.323-.362-.458-.482-.489-.482-.039 0-.206.137-.51.463l-.024.026c-.53.568-.718.727-1.066.727-.39 0-.64-.204-1.111-.734-.323-.362-.458-.482-.489-.482-.039 0-.206.137-.51.463l-.024.026c-.53.568-.718.727-1.066.727-.39 0-.64-.204-1.111-.734-.323-.362-.458-.482-.489-.482-.039 0-.206.137-.51.463l-.024.026c-.53.568-.718.727-1.066.727v-.784c.034 0 .199-.139.526-.489l.024-.026C-.56 10.177-.346 10 0 10c.357 0 .506.133 1.041.734.309.347.475.482.559.482.034 0 .199-.139.526-.489l.024-.026c.49-.524.704-.701 1.05-.701.357 0 .506.133 1.041.734.309.347.475.482.559.482.034 0 .199-.139.526-.489l.024-.026c.49-.524.704-.701 1.05-.701.357 0 .506.133 1.041.734.309.347.475.482.559.482.034 0 .199-.139.526-.489l.024-.026c.49-.524.704-.701 1.05-.701.357 0 .506.133 1.041.734.309.347.475.482.559.482.034 0 .199-.139.526-.489l.024-.026c.49-.524.704-.701 1.05-.701.357 0 .506.133 1.041.734.309.347.475.482.559.482z" mask="url(#cr-flag-KI-b)"/><path fill="#FFF" fill-rule="nonzero" d="M1.6 7c-.39 0-.64-.204-1.111-.734C.166 5.904.03 6 0 6c-.039 0-.206-.079-.51.247l-.024.026C-1.064 6.841-1.252 7-1.6 7v-.784c.034 0 .199-.139.526-.489l.024-.026C-.56 5.177-.346 5 0 5c.357 0 .506.133 1.041.734.309.347.475.482.559.482.034 0 .199-.139.526-.489l.024-.026C2.64 5.177 2.854 5 3.2 5c.357 0 .506.133 1.041.734.309.347.475.482.559.482.034 0 .199-.139.526-.489l.024-.026C5.84 5.177 6.054 5 6.4 5c.357 0 .506.133 1.041.734.309.347.475.482.559.482.034 0 .199-.139.526-.489l.024-.026C9.04 5.177 9.254 5 9.6 5c.357 0 .506.133 1.041.734.309.347.475.482.559.482.034 0 .199-.139.526-.489l.024-.026c.49-.524.704-.701 1.05-.701.357 0 .506.133 1.041.734.309.347.475.482.559.482.034 0 .199-.139.526-.489l.024-.026C15.44 5.177 15.654 5 16 5c.357 0 .506.133 1.041.734.309.347.475.482.559.482V7c-.39 0-.64-.204-1.111-.734C16.166 5.904 16.03 6 16 6c-.039 0-.206-.079-.51.247l-.024.026c-.53.568-.718.727-1.066.727-.39 0-.64-.204-1.111-.734C12.966 5.904 12.83 6 12.8 6c-.039 0-.206-.079-.51.247l-.024.026c-.53.568-.718.727-1.066.727-.39 0-.64-.204-1.111-.734C9.766 5.904 9.63 6 9.6 6c-.039 0-.206-.079-.51.247l-.024.026c-.53.568-.718.954-1.066.954v.007c-.39 0-.64-.438-1.111-.968C6.566 5.904 6.43 6 6.4 6c-.039 0-.206-.079-.51.247l-.024.026C5.336 6.841 5.148 7 4.8 7c-.39 0-.64-.204-1.111-.734C3.366 5.904 3.23 6 3.2 6c-.039 0-.206-.079-.51.247l-.024.026C2.136 6.841 1.948 7 1.6 7zm12.8 1.216c.034 0 .199-.139.526-.489l.024-.026C15.44 7.177 15.654 7 16 7c.357 0 .506.133 1.041.734.309.347.475.482.559.482V9c-.39 0-.64-.204-1.111-.734-.323-.362-.458-.482-.489-.482-.039 0-.206.137-.51.463l-.024.026c-.53.568-.718.727-1.066.727-.39 0-.64-.204-1.111-.734-.323-.362-.458-.482-.489-.482-.039 0-.206.137-.51.463l-.024.026c-.53.568-.718.727-1.066.727-.39 0-.64-.204-1.111-.734-.323-.362-.458-.482-.489-.482-.039 0-.206.137-.51.463l-.024.026C8.536 8.841 8.348 9 8 9c-.39 0-.64-.204-1.111-.734-.323-.362-.458-.482-.489-.482-.039 0-.206.137-.51.463l-.024.026C5.336 8.841 5.148 9 4.8 9c-.39 0-.64-.204-1.111-.734-.323-.362-.458-.482-.489-.482-.039 0-.206.137-.51.463l-.024.026C2.136 8.841 1.948 9 1.6 9c-.39 0-.64-.204-1.111-.734C.166 7.904.03 7.784 0 7.784c-.039 0-.206.137-.51.463l-.024.026C-1.064 8.841-1.252 9-1.6 9v-.784c.034 0 .199-.139.526-.489l.024-.026C-.56 7.177-.346 7 0 7c.357 0 .506.133 1.041.734.309.347.475.482.559.482.034 0 .199-.139.526-.489l.024-.026C2.64 7.177 2.854 7 3.2 7c.357 0 .506.133 1.041.734.309.347.475.482.559.482.034 0 .199-.139.526-.489l.024-.026c.49-.524.704-.92 1.05-.92.357 0 .506.352 1.041.953.309.347.475.482.559.482.034 0 .199-.139.526-.489l.024-.026c.49-.524.704-.92 1.05-.92.357 0 .506.352 1.041.953.309.347.475.482.559.482.034 0 .199-.139.526-.489l.024-.026c.49-.524.704-.701 1.05-.701.357 0 .506.133 1.041.734.309.347.475.482.559.482zm0 2c.034 0 .199-.139.526-.489l.024-.026C15.44 9.177 15.654 9 16 9c.357 0 .506.133 1.041.734.309.347.475.482.559.482V11c-.39 0-.64-.204-1.111-.734-.323-.362-.458-.482-.489-.482-.039 0-.206.137-.51.463l-.024.026c-.53.568-.718.727-1.066.727-.39 0-.64-.204-1.111-.734-.323-.362-.458-.482-.489-.482-.039 0-.206.137-.51.463l-.024.026c-.53.568-.718.727-1.066.727-.39 0-.64-.204-1.111-.734-.323-.362-.458-.482-.489-.482-.039 0-.206.137-.51.463l-.024.026C8.536 10.841 8.348 11 8 11c-.39 0-.64-.204-1.111-.734-.323-.362-.458-.482-.489-.482-.039 0-.206.137-.51.463l-.024.026c-.53.568-.718.727-1.066.727-.39 0-.64-.204-1.111-.734-.323-.362-.458-.482-.489-.482-.039 0-.206.137-.51.463l-.024.026c-.53.568-.718.727-1.066.727-.39 0-.64-.204-1.111-.734C.166 9.904.03 9.784 0 9.784c-.039 0-.206.137-.51.463l-.024.026c-.53.568-.718.727-1.066.727v-.784c.034 0 .199-.139.526-.489l.024-.026C-.56 9.177-.346 9 0 9c.357 0 .506.133 1.041.734.309.347.475.482.559.482.034 0 .199-.139.526-.489l.024-.026C2.64 9.177 2.854 9 3.2 9c.357 0 .506.133 1.041.734.309.347.475.482.559.482.034 0 .199-.139.526-.489l.024-.026C5.84 9.177 6.054 9 6.4 9c.357 0 .506.133 1.041.734.309.347.475.482.559.482.034 0 .199-.139.526-.489l.024-.026C9.04 9.177 9.254 9 9.6 9c.357 0 .506.133 1.041.734.309.347.475.482.559.482.034 0 .199-.139.526-.489l.024-.026c.49-.524.704-.701 1.05-.701.357 0 .506.133 1.041.734.309.347.475.482.559.482z" mask="url(#cr-flag-KI-b)"/><g stroke="#000" stroke-opacity=".1" mask="url(#cr-flag-KI-b)"><path d="M.5.5h15v11H.5z" style="mix-blend-mode:multiply"/></g></g></svg>