<svg xmlns="http://www.w3.org/2000/svg" xmlns:xlink="http://www.w3.org/1999/xlink" viewBox="0 0 16 12"><defs><rect id="cr-flag-KM-a" width="16" height="12" rx="1"/></defs><g fill="none" fill-rule="evenodd"><mask id="cr-flag-KM-b" fill="#fff"><use xlink:href="#cr-flag-KM-a"/></mask><use fill="#FFF" xlink:href="#cr-flag-KM-a"/><path fill="#3A75C4" d="M0 9h16v3H0z" mask="url(#cr-flag-KM-b)"/><path fill="#CE1126" d="M0 6h16v3H0z" mask="url(#cr-flag-KM-b)"/><path fill="#FFF" d="M0 3h16v3H0z" mask="url(#cr-flag-KM-b)"/><path fill="#FFC61E" d="M0 0h16v3H0z" mask="url(#cr-flag-KM-b)"/><path fill="#3D8E33" d="M0 0l8 6-8 6z" mask="url(#cr-flag-KM-b)"/><path fill="#FFF" d="M3.333 4.028a2 2 0 0 0 0 3.944 2 2 0 1 1 0-3.945z" mask="url(#cr-flag-KM-b)"/><path fill="#FFF" fill-rule="nonzero" d="M3 4.25v1.5h.5v-1.5H3zm0 2v1.5h.5v-1.5H3z" mask="url(#cr-flag-KM-b)"/><g stroke="#000" stroke-opacity=".1" mask="url(#cr-flag-KM-b)"><path d="M.5.5h15v11H.5z" style="mix-blend-mode:multiply"/></g></g></svg>