<svg xmlns="http://www.w3.org/2000/svg" xmlns:xlink="http://www.w3.org/1999/xlink" viewBox="0 0 16 12"><defs><rect id="cr-flag-KN-a" width="16" height="12" rx="1"/><path id="cr-flag-KN-c" d="M0-.008h22v4H0z"/></defs><g fill="none" fill-rule="evenodd"><mask id="cr-flag-KN-b" fill="#fff"><use xlink:href="#cr-flag-KN-a"/></mask><use fill="#FFF" xlink:href="#cr-flag-KN-a"/><path fill="#009E49" d="M0 0h16v12H0z" mask="url(#cr-flag-KN-b)"/><path fill="#CE1126" d="M16 0v12H0z" mask="url(#cr-flag-KN-b)"/><g mask="url(#cr-flag-KN-b)"><g transform="rotate(-36.87 15.511 6.996)"><use fill="#000" xlink:href="#cr-flag-KN-c"/><path stroke="#FCD116" d="M-.5-.508h23v5h-23z"/></g><path fill="#FFF" d="M8.654 7.038l-.46 1.447-.504-1.432-1.518.009 1.206-.921L6.9 4.699l1.25.863 1.222-.9-.434 1.455 1.234.885zm4-3l-.46 1.447-.504-1.432-1.518.009 1.206-.921-.478-1.442 1.25.863 1.222-.9-.434 1.455 1.234.885zm-8 6l-.46 1.447-.504-1.432-1.518.009 1.206-.921L2.9 7.699l1.25.863 1.222-.9-.434 1.455 1.234.885z"/></g><g stroke="#000" stroke-opacity=".1" mask="url(#cr-flag-KN-b)"><path d="M.5.5h15v11H.5z" style="mix-blend-mode:multiply"/></g></g></svg>