<svg xmlns="http://www.w3.org/2000/svg" xmlns:xlink="http://www.w3.org/1999/xlink" viewBox="0 0 16 12"><defs><rect id="cr-flag-KR-a" width="16" height="12" rx="1"/></defs><g fill="none" fill-rule="evenodd"><mask id="cr-flag-KR-b" fill="#fff"><use xlink:href="#cr-flag-KR-a"/></mask><use fill="#FFF" xlink:href="#cr-flag-KR-a"/><path fill="#FFF" d="M0 0h16v12H0z" mask="url(#cr-flag-KR-b)"/><g fill="#666" mask="url(#cr-flag-KR-b)"><path d="M4.046 1.377l1.532 1.286-1.285 1.532L2.76 2.909zm7.661 6.428l1.532 1.286-1.286 1.532-1.532-1.286z"/></g><g fill="#666" mask="url(#cr-flag-KR-b)"><path d="M11.953 1.378l-1.532 1.285 1.286 1.532 1.532-1.285zm-7.66 6.427L2.76 9.091l1.285 1.532 1.532-1.286z"/></g><g mask="url(#cr-flag-KR-b)"><path fill="#0047A0" d="M5 6a3 3 0 1 0 6 0H5z"/><path fill="#CD2E3A" d="M5 6a3 3 0 1 1 6 0H5z"/></g><g stroke="#000" stroke-opacity=".1" mask="url(#cr-flag-KR-b)"><path d="M.5.5h15v11H.5z" style="mix-blend-mode:multiply"/></g></g></svg>