<svg xmlns="http://www.w3.org/2000/svg" xmlns:xlink="http://www.w3.org/1999/xlink" viewBox="0 0 16 12"><defs><rect id="cr-flag-LR-a" width="16" height="12" rx="1"/><rect id="cr-flag-LR-b" width="16" height="12" rx="1"/></defs><g fill="none" fill-rule="evenodd"><use fill="#C55D5D" xlink:href="#cr-flag-LR-a"/><mask id="cr-flag-LR-c" fill="#fff"><use xlink:href="#cr-flag-LR-b"/></mask><use fill="#FFF" xlink:href="#cr-flag-LR-b"/><path fill="#BF0A30" d="M3 0h13v1H3zm0 2h13v1H3z" mask="url(#cr-flag-LR-c)"/><path fill="#002868" d="M0 0h5v5H0z" mask="url(#cr-flag-LR-c)"/><path fill="#FFF" d="M2.5 3.085l-.882.629.326-1.033-.871-.645 1.083-.009L2.5 1l.344 1.027 1.083.009-.871.645.326 1.033z" mask="url(#cr-flag-LR-c)"/><path fill="#BF0A30" d="M5 4h11v1H5zm-8 2h19v1H-3zm0 4h19v1H-3zm0-2h19v1H-3z" mask="url(#cr-flag-LR-c)"/><g stroke="#000" stroke-opacity=".1" mask="url(#cr-flag-LR-c)"><path d="M.5.5h15v11H.5z" style="mix-blend-mode:multiply"/></g></g></svg>