<svg xmlns="http://www.w3.org/2000/svg" xmlns:xlink="http://www.w3.org/1999/xlink" viewBox="0 0 16 12"><defs><rect id="cr-flag-LY-a" width="16" height="12" rx="1"/></defs><g fill="none" fill-rule="evenodd"><mask id="cr-flag-LY-b" fill="#fff"><use xlink:href="#cr-flag-LY-a"/></mask><use fill="#FFF" xlink:href="#cr-flag-LY-a"/><path fill="#000" d="M0 0h16v12H0z" mask="url(#cr-flag-LY-b)"/><g fill="#FFF" mask="url(#cr-flag-LY-b)"><path d="M8.658 5.114a1.274 1.274 0 1 0 0 1.728 1.566 1.566 0 0 1-2.876-.864 1.568 1.568 0 0 1 2.876-.864z"/><path d="M9.006 6.243l-.313.489-.006-.58-.561-.147.55-.185-.035-.58.345.467.54-.212-.335.474.368.448z"/></g><path fill="#239E46" d="M0 9h16v3H0z" mask="url(#cr-flag-LY-b)"/><path fill="#E70013" d="M0 0h16v3H0z" mask="url(#cr-flag-LY-b)"/><g stroke="#000" stroke-opacity=".1" mask="url(#cr-flag-LY-b)"><path d="M.5.5h15v11H.5z" style="mix-blend-mode:multiply"/></g></g></svg>