<svg xmlns="http://www.w3.org/2000/svg" xmlns:xlink="http://www.w3.org/1999/xlink" viewBox="0 0 16 12"><defs><rect id="cr-flag-MO-a" width="16" height="12" rx="1"/></defs><g fill="none" fill-rule="evenodd"><mask id="cr-flag-MO-b" fill="#fff"><use xlink:href="#cr-flag-MO-a"/></mask><use fill="#FFF" xlink:href="#cr-flag-MO-a"/><path fill="#00785E" d="M0 0h16v12H0z" mask="url(#cr-flag-MO-b)"/><g fill="#FFDE00" mask="url(#cr-flag-MO-b)"><path d="M7 2h2v2H7zM5 4h1v1H5zM4 6h1v1H4zm6-2h1v1h-1zm1 2h1v1h-1z"/></g><g fill="#FFF" mask="url(#cr-flag-MO-b)"><path d="M8 9c.469-.25 1-.895 1-2s-.625-1.813-1-2c-.375.188-1 .895-1 2s.406 1.781 1 2z"/><path d="M8 9c.363.388 1.123.734 2.19.448s1.59-1.073 1.673-1.484c-.278-.313-1.123-.734-2.19-.448S8.057 8.369 8 9zm0 0c-.12-.518-.606-1.198-1.673-1.484-1.067-.286-1.912.135-2.19.448.084.411.606 1.198 1.673 1.484C6.877 9.734 7.635 9.516 8 9z"/><path d="M4.126 8h7.748a4.002 4.002 0 0 1-7.748 0z" opacity=".5"/></g><g stroke="#000" stroke-opacity=".1" mask="url(#cr-flag-MO-b)"><path d="M.5.5h15v11H.5z" style="mix-blend-mode:multiply"/></g></g></svg>