<svg xmlns="http://www.w3.org/2000/svg" xmlns:xlink="http://www.w3.org/1999/xlink" viewBox="0 0 16 12"><defs><rect id="cr-flag-MP-a" width="16" height="12" rx="1"/><linearGradient id="cr-flag-MP-c" x1="50%" x2="50%" y1="100%" y2="0%"><stop offset="0%" stop-color="#F7DF73"/><stop offset="100%" stop-color="#DE2010"/></linearGradient><path id="cr-flag-MP-d" d="M7.405 6h1.19a1 1 0 0 1 .995.9l.3 3a1 1 0 0 1-.995 1.1h-1.79a1 1 0 0 1-.995-1.1l.3-3a1 1 0 0 1 .995-.9z"/><path id="cr-flag-MP-e" d="M7.68 3h.64a1 1 0 0 1 .986 1.164l-.167 1A1 1 0 0 1 8.153 6h-.306a1 1 0 0 1-.986-.836l-.167-1A1 1 0 0 1 7.68 3z"/></defs><g fill="none" fill-rule="evenodd" transform="translate(-210 -107) translate(210 107)"><mask id="cr-flag-MP-b" fill="#fff"><use xlink:href="#cr-flag-MP-a"/></mask><use fill="#FFF" xlink:href="#cr-flag-MP-a"/><path fill="#0071BC" d="M0 0h16v12H0z" mask="url(#cr-flag-MP-b)"/><circle cx="8" cy="6" r="4.25" stroke="#FFF" stroke-width="1.5" mask="url(#cr-flag-MP-b)"/><circle cx="8" cy="6" r="4.25" stroke="url(#cr-flag-MP-c)" stroke-width=".5" mask="url(#cr-flag-MP-b)"/><g mask="url(#cr-flag-MP-b)"><use fill="#8C8A8C" xlink:href="#cr-flag-MP-d"/><path stroke="#000" stroke-width=".5" d="M7.405 5.75h1.19c.642 0 1.18.487 1.244 1.126l.3 3a1.25 1.25 0 0 1-1.244 1.374h-1.79a1.25 1.25 0 0 1-1.244-1.374l.3-3A1.25 1.25 0 0 1 7.405 5.75z"/></g><g mask="url(#cr-flag-MP-b)"><use fill="#8C8A8C" xlink:href="#cr-flag-MP-e"/><path stroke="#000" stroke-width=".5" d="M7.68 2.75h.64a1.25 1.25 0 0 1 1.233 1.455l-.167 1A1.25 1.25 0 0 1 8.153 6.25h-.306a1.25 1.25 0 0 1-1.233-1.045l-.167-1A1.25 1.25 0 0 1 7.68 2.75z"/></g><path fill="#FFF" d="M8 7.205L6.146 8.526l.684-2.171L5 5l2.277-.021L8 2.82l.723 2.159L11 5 9.17 6.355l.684 2.171z" mask="url(#cr-flag-MP-b)"/><g stroke="#000" stroke-opacity=".1" mask="url(#cr-flag-MP-b)"><path d="M.5.5h15v11H.5z" style="mix-blend-mode:multiply"/></g></g></svg>