<svg xmlns="http://www.w3.org/2000/svg" xmlns:xlink="http://www.w3.org/1999/xlink" viewBox="0 0 16 12"><defs><rect id="cr-flag-MQ-a" width="16" height="12" rx="1"/></defs><g fill="none" fill-rule="evenodd"><mask id="cr-flag-MQ-b" fill="#fff"><use xlink:href="#cr-flag-MQ-a"/></mask><use fill="#FFF" xlink:href="#cr-flag-MQ-a"/><path fill="#19317D" d="M0 0h16v12H0z" mask="url(#cr-flag-MQ-b)"/><path fill="#FFF" d="M7 5V0h2v5h7v2H9v5H7V7h-8V5h8z" mask="url(#cr-flag-MQ-b)"/><path stroke="#FFF" d="M11.91 1.118l2.09.387-2.632.987 2.529 1.179h-2.785M2.91 1.118L5 1.505l-2.632.987 2.529 1.179H2.112m.798 4.447L5 8.505l-2.632.987 2.529 1.179H2.112m9.798-2.553l2.09.387-2.632.987 2.529 1.179h-2.785" mask="url(#cr-flag-MQ-b)" opacity=".7"/><g stroke="#000" stroke-opacity=".1" mask="url(#cr-flag-MQ-b)"><path d="M.5.5h15v11H.5z" style="mix-blend-mode:multiply"/></g></g></svg>