<svg xmlns="http://www.w3.org/2000/svg" xmlns:xlink="http://www.w3.org/1999/xlink" viewBox="0 0 16 12"><defs><rect id="cr-flag-PA-a" width="16" height="12" rx="1"/></defs><g fill="none" fill-rule="evenodd"><mask id="cr-flag-PA-b" fill="#fff"><use xlink:href="#cr-flag-PA-a"/></mask><use fill="#FFF" xlink:href="#cr-flag-PA-a"/><path fill="#005293" d="M0 6h8v6H0z" mask="url(#cr-flag-PA-b)"/><path fill="#FFF" d="M0 0h8v6H0zm8 6h8v6H8z" mask="url(#cr-flag-PA-b)"/><path fill="#D21034" d="M8 0h8v6H8z" mask="url(#cr-flag-PA-b)"/><path fill="#005293" d="M4 3.462l-.618.44.228-.724L3 2.727l.759-.007L4 2l.241.72.759.007-.61.451.228.724z" mask="url(#cr-flag-PA-b)"/><path fill="#D21034" d="M12 9.462l-.618.44.228-.724-.61-.451.759-.007L12 8l.241.72.759.007-.61.451.228.724z" mask="url(#cr-flag-PA-b)"/><g stroke="#000" stroke-opacity=".1" mask="url(#cr-flag-PA-b)"><path d="M.5.5h15v11H.5z" style="mix-blend-mode:multiply"/></g></g></svg>