<svg xmlns="http://www.w3.org/2000/svg" xmlns:xlink="http://www.w3.org/1999/xlink" viewBox="0 0 16 12"><defs><rect id="cr-flag-RS-a" width="16" height="12" rx="1"/><path id="cr-flag-RS-c" d="M6 8a2 2 0 1 1-4 0V4h4v4z"/></defs><g fill="none" fill-rule="evenodd"><mask id="cr-flag-RS-b" fill="#fff"><use xlink:href="#cr-flag-RS-a"/></mask><use fill="#FFF" xlink:href="#cr-flag-RS-a"/><path fill="#C6363C" d="M0 0h16v4H0z" mask="url(#cr-flag-RS-b)"/><path fill="#FFF" d="M0 8h16v4H0z" mask="url(#cr-flag-RS-b)"/><path fill="#0C4076" d="M0 4h16v4H0z" mask="url(#cr-flag-RS-b)"/><g mask="url(#cr-flag-RS-b)"><use fill="#C6363C" xlink:href="#cr-flag-RS-c"/><path stroke="#FFF" stroke-width=".5" d="M5.75 4.25h-3.5V8a1.75 1.75 0 0 0 3.5 0V4.25z"/></g><path fill="#FFF" d="M3 5h2v1l-.5 1.5L5 9H3l.499-1.5L3 6z" mask="url(#cr-flag-RS-b)"/><path fill="#EDB92E" fill-rule="nonzero" d="M3.273 3.717L2.861 3.5h.847l-.48.36a13.946 13.946 0 0 0 .1-.36c.11-.423.166-.748.172-.968-.2.053-.467.173-.792.362l.565.823zM1.3 2.612l.423-.281C2.55 1.782 3.194 1.5 3.708 1.5c.976 0 .976.941.48 2.64l-.105.36H2.598L1.3 2.612z" mask="url(#cr-flag-RS-b)"/><path fill="#EDB92E" fill-rule="nonzero" d="M5.273 3.717L4.861 3.5h.847l-.48.36a13.946 13.946 0 0 0 .1-.36c.11-.423.166-.748.172-.968-.2.053-.467.173-.792.362l.565.823zM3.3 2.612l.423-.281C4.55 1.782 5.194 1.5 5.708 1.5c.976 0 .976.941.48 2.64l-.105.36H4.598L3.3 2.612z" mask="url(#cr-flag-RS-b)" transform="matrix(-1 0 0 1 9.815 0)"/><g stroke="#000" stroke-opacity=".1" mask="url(#cr-flag-RS-b)"><path d="M.5.5h15v11H.5z" style="mix-blend-mode:multiply"/></g></g></svg>