<svg xmlns="http://www.w3.org/2000/svg" xmlns:xlink="http://www.w3.org/1999/xlink" viewBox="0 0 16 12"><defs><rect id="cr-flag-RW-a" width="16" height="12" rx="1"/></defs><g fill="none" fill-rule="evenodd"><mask id="cr-flag-RW-b" fill="#fff"><use xlink:href="#cr-flag-RW-a"/></mask><use fill="#FFF" xlink:href="#cr-flag-RW-a"/><path fill="#00A1DE" d="M0 0h16v12H0z" mask="url(#cr-flag-RW-b)"/><circle cx="13" cy="3" r="1" fill="#E5BE01" mask="url(#cr-flag-RW-b)"/><path fill="#E5BE01" d="M12.835 1.75l-.317.085-.286.165-.232.232-.165.286-.085.317v.33l.085.317.165.286.232.232.286.165.317.085h.33l.317-.085.286-.165.232-.232.165-.286.085-.317v-.33l-.085-.317L14 2.232 13.768 2l-.286-.165-.317-.085h-.33zm-.05-.388L13 .5l.216.862.431-.777-.015.889.618-.64-.244.856.762-.458-.458.762.855-.244-.639.618.889-.015-.777.431L15.5 3l-.862.216.777.431-.889-.015.64.618-.856-.244.458.762-.762-.458.244.855-.618-.639.015.889-.431-.777L13 5.5l-.216-.862-.431.777.015-.889-.618.64.244-.856-.762.458.458-.762-.855.244.639-.618-.889.015.777-.431L10.5 3l.862-.216-.777-.431.889.015-.64-.618.856.244-.458-.762.762.458-.244-.855.618.639-.015-.889.431.777z" mask="url(#cr-flag-RW-b)"/><path fill="#20603D" d="M0 9h16v3H0z" mask="url(#cr-flag-RW-b)"/><path fill="#FAD201" d="M0 6h16v3H0z" mask="url(#cr-flag-RW-b)"/><g stroke="#000" stroke-opacity=".1" mask="url(#cr-flag-RW-b)"><path d="M.5.5h15v11H.5z" style="mix-blend-mode:multiply"/></g></g></svg>