<svg xmlns="http://www.w3.org/2000/svg" xmlns:xlink="http://www.w3.org/1999/xlink" viewBox="0 0 16 12"><defs><rect id="cr-flag-SG-a" width="16" height="12" rx="1"/></defs><g fill="none" fill-rule="evenodd"><mask id="cr-flag-SG-b" fill="#fff"><use xlink:href="#cr-flag-SG-a"/></mask><use fill="#FFF" xlink:href="#cr-flag-SG-a"/><path fill="#FFF" d="M0 0h16v12H0z" mask="url(#cr-flag-SG-b)"/><path fill="#ED2939" d="M0 0h16v6H0z" mask="url(#cr-flag-SG-b)"/><path fill="#FFF" d="M5.405 2.207a.404.404 0 1 1 0-.807.404.404 0 0 1 0 .807zm.768.558a.404.404 0 1 1 .767-.25.404.404 0 0 1-.767.25zm-.294.902a.404.404 0 1 1 .475.653.404.404 0 0 1-.475-.653zm-.948 0a.404.404 0 1 1-.475.653.404.404 0 0 1 .475-.653zm-.294-.902a.404.404 0 1 1-.767-.25.404.404 0 0 1 .767.25z" mask="url(#cr-flag-SG-b)" opacity=".5"/><path fill="#FFF" d="M4.775 1.156l-.046-.001a1.845 1.845 0 1 0 .046 3.69 2 2 0 1 1 0-3.689z" mask="url(#cr-flag-SG-b)"/><g stroke="#000" stroke-opacity=".1" mask="url(#cr-flag-SG-b)"><path d="M.5.5h15v11H.5z" style="mix-blend-mode:multiply"/></g></g></svg>