<svg xmlns="http://www.w3.org/2000/svg" xmlns:xlink="http://www.w3.org/1999/xlink" viewBox="0 0 16 12"><defs><rect id="cr-flag-SY-a" width="16" height="12" rx="1"/></defs><g fill="none" fill-rule="evenodd"><mask id="cr-flag-SY-b" fill="#fff"><use xlink:href="#cr-flag-SY-a"/></mask><use fill="#FFF" xlink:href="#cr-flag-SY-a"/><path fill="#FFF" d="M0 0h16v12H0z" mask="url(#cr-flag-SY-b)"/><path fill="#007A3D" d="M5 6.39l-.588.419.217-.688-.58-.43.722-.007L5 5l.229.684.722.007-.58.43.217.688zm6 0l-.588.419.217-.688-.58-.43.722-.007L11 5l.229.684.722.007-.58.43.217.688z" mask="url(#cr-flag-SY-b)"/><path fill="#000" d="M0 8h16v4H0z" mask="url(#cr-flag-SY-b)"/><path fill="#CE1126" d="M0 0h16v4H0z" mask="url(#cr-flag-SY-b)"/><g stroke="#000" stroke-opacity=".1" mask="url(#cr-flag-SY-b)"><path d="M.5.5h15v11H.5z" style="mix-blend-mode:multiply"/></g></g></svg>