<svg xmlns="http://www.w3.org/2000/svg" xmlns:xlink="http://www.w3.org/1999/xlink" viewBox="0 0 16 12"><defs><rect id="cr-flag-TV-a" width="16" height="12" rx="1"/><path id="cr-flag-TV-c" d="M0 0h8v6H0z"/></defs><g fill="none" fill-rule="evenodd"><mask id="cr-flag-TV-b" fill="#fff"><use xlink:href="#cr-flag-TV-a"/></mask><use fill="#FFF" xlink:href="#cr-flag-TV-a"/><path fill="#5B97B1" d="M0 0h16v12H0z" mask="url(#cr-flag-TV-b)"/><g mask="url(#cr-flag-TV-b)"><mask id="cr-flag-TV-d" fill="#fff"><use xlink:href="#cr-flag-TV-c"/></mask><use fill="#FFF" xlink:href="#cr-flag-TV-c"/><g mask="url(#cr-flag-TV-d)"><path fill="#00247D" d="M0 0h8v6H0z"/><path fill="#FFF" d="M-.118-1l8.97 6.516L7.97 6.73-1 .213z"/><path fill="#FFF" d="M7.97-1L-1 5.517l.88 1.213L8.851.213z"/></g><g fill="#CF142B" mask="url(#cr-flag-TV-d)"><path d="M-.206-.15l4.14 3.007-.588.81L-.794.658zm4.5 2.8l4.14 3.007-.588.81-4.14-3.008z"/><path d="M3.615 2.561L8.105-.7l.587.809-4.49 3.261z"/><path d="M-.153 5.758l4.14-3.008.587.809-4.14 3.008z"/></g><g mask="url(#cr-flag-TV-d)"><path fill="#FFF" d="M3 2V0h2v2h3v2H5v2H3V4H0V2h3z"/><path fill="#CF142B" d="M8 2.5v1H4.5V6h-1V3.5H0v-1h3.5V0h1v2.5z"/></g></g><g fill="#FFCE00" mask="url(#cr-flag-TV-b)"><path d="M14 2h1v1h-1zm-1 2h1v1h-1zm1 3h1v1h-1zm-1 1h1v1h-1zm-1 1h1v1h-1zm-2 0h1v1h-1zM8 9h1v1H8zm1-2h1v1H9zm2-3h1v1h-1z"/></g><g stroke="#000" stroke-opacity=".1" mask="url(#cr-flag-TV-b)"><path d="M.5.5h15v11H.5z" style="mix-blend-mode:multiply"/></g></g></svg>