<svg xmlns="http://www.w3.org/2000/svg" xmlns:xlink="http://www.w3.org/1999/xlink" viewBox="0 0 16 12"><defs><rect id="cr-flag-VI-a" width="16" height="12" rx="1"/><path id="cr-flag-VI-c" d="M0 0h5v4L2.5 6 0 4z"/></defs><g fill="none" fill-rule="evenodd" transform="translate(-178 -107) translate(178 107)"><mask id="cr-flag-VI-b" fill="#fff"><use xlink:href="#cr-flag-VI-a"/></mask><use fill="#FFF" xlink:href="#cr-flag-VI-a"/><path fill="#FFF" d="M0 0h16v12H0z" mask="url(#cr-flag-VI-b)"/><path fill="#F4C53D" d="M6.5 8h3v3h-3z" mask="url(#cr-flag-VI-b)" transform="rotate(45 8 9.5)"/><path fill="#0081C6" d="M3 4l1 4H2z" mask="url(#cr-flag-VI-b)" transform="matrix(1 0 0 -1 0 12)"/><path fill="#0081C6" d="M13 4h1v4h-1z" mask="url(#cr-flag-VI-b)"/><path fill="#369443" d="M4.483 6.081h1v3h-1z" mask="url(#cr-flag-VI-b)" transform="rotate(-20 4.983 7.58)"/><path fill="#F4C53D" d="M6 6h1v3H6z" mask="url(#cr-flag-VI-b)" transform="rotate(-130 6.5 7.5)"/><path fill="#0081C6" d="M11 6h1v3h-1z" mask="url(#cr-flag-VI-b)" transform="rotate(20 11.5 7.5)"/><path fill="#F4C53D" d="M9 6h1v3H9z" mask="url(#cr-flag-VI-b)" transform="rotate(130 9.5 7.5)"/><path fill="#F4C53D" d="M5.835 5.504c-.563.146-.959.146-1.188 0-.076-.049-.328-.674-.757-1.876L1.226 1l3.66 1 .234 1.361.715.443v1.7z" mask="url(#cr-flag-VI-b)"/><path fill="#F4C53D" d="M14.77 5.504c-.564.146-.96.146-1.188 0-.076-.049-.329-.674-.758-1.876L10.16 1l3.584 1 .31 1.361.715.443v1.7z" mask="url(#cr-flag-VI-b)" transform="matrix(-1 0 0 1 24.93 0)"/><path fill="#F4C53D" d="M6.5 2L7 1h1l1 1v1H7.5z" mask="url(#cr-flag-VI-b)"/><g mask="url(#cr-flag-VI-b)"><g transform="translate(5.5 3)"><mask id="cr-flag-VI-d" fill="#fff"><use xlink:href="#cr-flag-VI-c"/></mask><use fill="#0738AC" xlink:href="#cr-flag-VI-c"/><path fill="#A60032" d="M0 1h1v5H0z" mask="url(#cr-flag-VI-d)"/><path fill="#FFF" d="M1 1h1v5H1z" mask="url(#cr-flag-VI-d)"/><path fill="#A60032" d="M4 1h1v5H4zM2 1h1v5H2z" mask="url(#cr-flag-VI-d)"/><path fill="#FFF" d="M3 1h1v5H3z" mask="url(#cr-flag-VI-d)"/></g></g><g stroke="#000" stroke-opacity=".1" mask="url(#cr-flag-VI-b)"><path d="M.5.5h15v11H.5z" style="mix-blend-mode:multiply"/></g></g></svg>