<svg xmlns="http://www.w3.org/2000/svg" xmlns:xlink="http://www.w3.org/1999/xlink" viewBox="0 0 16 12"><defs><rect id="cr-flag-VU-a" width="16" height="12" rx="1"/><path id="cr-flag-VU-c" d="M8.268 7.333H17V4.667H8.268L-.586-.445l-1.333 2.31L5.244 6l-7.163 4.135 1.333 2.31z"/></defs><g fill="none" fill-rule="evenodd"><mask id="cr-flag-VU-b" fill="#fff"><use xlink:href="#cr-flag-VU-a"/></mask><use fill="#BB7474" xlink:href="#cr-flag-VU-a"/><path fill="#009543" d="M0 0h16v12H0z" mask="url(#cr-flag-VU-b)"/><path fill="#D21034" d="M0 0h16v6H0z" mask="url(#cr-flag-VU-b)"/><path fill="#000" fill-rule="nonzero" d="M0 1v10l6-5z" mask="url(#cr-flag-VU-b)"/><g mask="url(#cr-flag-VU-b)"><use fill="#FDCE12" xlink:href="#cr-flag-VU-c"/><path stroke="#000" stroke-width=".67" d="M16.665 6.998V5.002H8.268L8.1 4.957-.463.013l-.998 1.729L5.914 6l-7.375 4.258.998 1.73L8.1 7.042l.168-.045h8.397z"/></g><circle cx="2" cy="6" r="1" fill="#FDCE12" mask="url(#cr-flag-VU-b)"/><g stroke="#000" stroke-opacity=".1" mask="url(#cr-flag-VU-b)"><path d="M.5.5h15v11H.5z" style="mix-blend-mode:multiply"/></g></g></svg>