<svg xmlns="http://www.w3.org/2000/svg" xmlns:xlink="http://www.w3.org/1999/xlink" viewBox="0 0 16 12"><defs><rect id="cr-flag-ZW-a" width="16" height="12" rx="1"/><path id="cr-flag-ZW-c" d="M0 0l5.33 6L0 12z"/></defs><g fill="none" fill-rule="evenodd"><mask id="cr-flag-ZW-b" fill="#fff"><use xlink:href="#cr-flag-ZW-a"/></mask><use fill="#FFF" xlink:href="#cr-flag-ZW-a"/><path fill="#006400" d="M0 0h16v12H0z" mask="url(#cr-flag-ZW-b)"/><path fill="#FFD200" d="M0 1.714h16v8.57H0z" mask="url(#cr-flag-ZW-b)"/><path fill="#D40000" d="M0 3.449h16v5.103H0z" mask="url(#cr-flag-ZW-b)"/><path fill="#000" d="M0 4.975h16v2.05H0z" mask="url(#cr-flag-ZW-b)"/><g mask="url(#cr-flag-ZW-b)"><use fill="#FFF" xlink:href="#cr-flag-ZW-c"/><path stroke="#050505" stroke-width=".67" d="M-.335-.882L5.778 6l-6.113 6.882V-.882z"/></g><path fill="#D40000" d="M2.1 6.817l-.989.705.365-1.159L.5 5.641l1.214-.011.386-1.152.386 1.152 1.214.011-.976.722.365 1.159z" mask="url(#cr-flag-ZW-b)"/><path fill="#FC0" d="M1.6 5.364h1v1.553h-1z" mask="url(#cr-flag-ZW-b)"/><g stroke="#000" stroke-opacity=".1" mask="url(#cr-flag-ZW-b)"><path d="M.5.5h15v11H.5z" style="mix-blend-mode:multiply"/></g></g></svg>