<svg xmlns="http://www.w3.org/2000/svg" xmlns:xlink="http://www.w3.org/1999/xlink" viewBox="0 0 16 12"><defs><rect id="cr-flag-AF-a" width="16" height="12" rx="1"/></defs><g fill="none" fill-rule="evenodd"><mask id="cr-flag-AF-b" fill="#fff"><use xlink:href="#cr-flag-AF-a"/></mask><use fill="#FFF" xlink:href="#cr-flag-AF-a"/><path fill="#000" d="M0 0h16v12H0z" mask="url(#cr-flag-AF-b)"/><path fill="#FE0000" d="M5 0h6v12H5z" mask="url(#cr-flag-AF-b)"/><path fill="#028002" d="M11 0h5v12h-5z" mask="url(#cr-flag-AF-b)"/><path fill="#FFF" fill-rule="nonzero" d="M10.685 1.625a4.93 4.93 0 0 1 1.46 1.389c1.543 2.235.94 5.268-1.35 6.776-2.289 1.507-5.396.917-6.94-1.317-1.544-2.235-.94-5.269 1.349-6.776l.699 1.011C4.186 3.84 3.733 6.114 4.89 7.79c1.158 1.676 3.489 2.119 5.205.988 1.717-1.13 2.17-3.406 1.012-5.082a3.693 3.693 0 0 0-1.094-1.042l.67-1.03z" mask="url(#cr-flag-AF-b)" opacity=".8"/><path fill="#FFF" d="M6 3h4v5H6z" mask="url(#cr-flag-AF-b)" opacity=".8"/><g stroke="#000" stroke-opacity=".1" mask="url(#cr-flag-AF-b)"><path d="M.5.5h15v11H.5z" style="mix-blend-mode:multiply"/></g></g></svg>