<svg xmlns="http://www.w3.org/2000/svg" xmlns:xlink="http://www.w3.org/1999/xlink" viewBox="0 0 16 12"><defs><rect id="cr-flag-AO-b" width="16" height="12" rx="1"/><path id="cr-flag-AO-a" d="M8.439 2a3.5 3.5 0 1 1 .122 7 3.5 3.5 0 0 1-.122-7z"/><mask id="cr-flag-AO-d" width="7" height="7" x="0" y="0" fill="#fff"><use xlink:href="#cr-flag-AO-a"/></mask></defs><g fill="none" fill-rule="evenodd"><mask id="cr-flag-AO-c" fill="#fff"><use xlink:href="#cr-flag-AO-b"/></mask><use fill="#FFF" xlink:href="#cr-flag-AO-b"/><path fill="#000" d="M0 6h16v6H0z" mask="url(#cr-flag-AO-c)"/><path fill="#D8241B" d="M0 0h16v6H0z" mask="url(#cr-flag-AO-c)"/><path fill="#F7D418" d="M8.5 5.25l-.882.464.169-.982-.714-.696.986-.143L8.5 3l.441.893.986.143-.714.696.169.982z" mask="url(#cr-flag-AO-c)"/><g stroke="#F7D418" stroke-dasharray="13 20" stroke-width="2" mask="url(#cr-flag-AO-c)"><use mask="url(#cr-flag-AO-d)" xlink:href="#cr-flag-AO-a"/></g><path fill="#F7D418" d="M6.9 7.216h5v1h-5z" mask="url(#cr-flag-AO-c)" transform="rotate(31 9.4 7.716)"/><g stroke="#000" stroke-opacity=".1" mask="url(#cr-flag-AO-c)"><path d="M.5.5h15v11H.5z" style="mix-blend-mode:multiply"/></g></g></svg>