<svg xmlns="http://www.w3.org/2000/svg" xmlns:xlink="http://www.w3.org/1999/xlink" viewBox="0 0 16 12"><defs><rect id="cr-flag-BN-a" width="15.957" height="12" rx="1"/></defs><g fill="none" fill-rule="evenodd"><mask id="cr-flag-BN-b" fill="#fff"><use xlink:href="#cr-flag-BN-a"/></mask><use fill="#FFF" xlink:href="#cr-flag-BN-a"/><path fill="#F7E017" d="M0 0h16v12H0z" mask="url(#cr-flag-BN-b)"/><g mask="url(#cr-flag-BN-b)"><path fill="#FFF" d="M-2.486-.168L19.92 8.433l-.717 1.867-22.406-8.6z"/><path fill="#000" d="M-3.203 1.7l22.406 8.6-.717 1.868L-3.92 3.567z"/></g><circle cx="8" cy="6" r="2.5" stroke="#CF1126" mask="url(#cr-flag-BN-b)"/><path fill="#CF1126" fill-rule="nonzero" d="M9.972 8.952a3 3 0 0 1-4.233-.296L6.494 8a2 2 0 0 0 3.015.005l.752.66c-.089.1-.185.196-.29.287z" mask="url(#cr-flag-BN-b)"/><path fill="#CF1126" d="M4 4h1v3H4zm3.5-2h1v5h-1zM11 4h1v3h-1z" mask="url(#cr-flag-BN-b)"/><g stroke="#000" stroke-opacity=".1" mask="url(#cr-flag-BN-b)"><path d="M.5.5h15v11H.5z" style="mix-blend-mode:multiply"/></g></g></svg>