<svg xmlns="http://www.w3.org/2000/svg" xmlns:xlink="http://www.w3.org/1999/xlink" viewBox="0 0 16 12"><defs><rect id="cr-flag-BR-a" width="16" height="12" rx="1"/><circle id="cr-flag-BR-c" cx="4" cy="4" r="3.5"/><path id="cr-flag-BR-e" d="M1.198 1.902c.175.035.35.073.526.114 2.162.5 4.12 1.327 5.755 2.369-.039.357-.132.7-.27 1.016-1.583-1.057-3.53-1.907-5.71-2.41a19.083 19.083 0 0 0-.797-.167c.12-.333.288-.644.496-.922z"/></defs><g fill="none" fill-rule="evenodd"><mask id="cr-flag-BR-b" fill="#fff"><use xlink:href="#cr-flag-BR-a"/></mask><use fill="#FFF" xlink:href="#cr-flag-BR-a"/><path fill="#009B3A" d="M0 0h16v12H0z" mask="url(#cr-flag-BR-b)"/><path fill="#FEDF00" d="M1 6L8 .997l7 4.962L8 11z" mask="url(#cr-flag-BR-b)"/><g mask="url(#cr-flag-BR-b)"><g transform="translate(4 2)"><mask id="cr-flag-BR-d" fill="#fff"><use xlink:href="#cr-flag-BR-c"/></mask><use fill="#002776" xlink:href="#cr-flag-BR-c"/><path fill="#FFF" d="M2 5h1v1H2zM1 3h1v1H1zm2 3h1v1H3zm1-2h1v1H4zm1 2h1v1H5zm1-1h1v1H6z" mask="url(#cr-flag-BR-d)" opacity=".5"/><use fill="#FFF" xlink:href="#cr-flag-BR-e"/></g></g><g stroke="#000" stroke-opacity=".1" mask="url(#cr-flag-BR-b)"><path d="M.5.5h15v11H.5z" style="mix-blend-mode:multiply"/></g></g></svg>