<svg xmlns="http://www.w3.org/2000/svg" xmlns:xlink="http://www.w3.org/1999/xlink" viewBox="0 0 16 12"><defs><rect id="cr-flag-CA-BC-a" width="16" height="12" rx="1"/><ellipse id="cr-flag-CA-BC-c" cx="8" cy="11.5" rx="8" ry="3.5"/><rect id="cr-flag-CA-BC-d" width="16" height="4" rx="1"/><path id="cr-flag-CA-BC-f" d="M0 0h16v4H0z"/></defs><g fill="none" fill-rule="evenodd"><mask id="cr-flag-CA-BC-b" fill="#fff"><use xlink:href="#cr-flag-CA-BC-a"/></mask><use fill="#00247D" xlink:href="#cr-flag-CA-BC-a"/><path fill="#00247D" fill-rule="nonzero" d="M2.2 8c-.39 0-.64-.204-1.112-.734C.766 6.904.631 6.784.6 6.784c-.039 0-.206.137-.51.463l-.024.026C-.464 7.841-.652 8-1 8v-.784c.034 0 .199-.139.526-.489l.024-.026C.04 6.177.254 6 .6 6c.357 0 .506.133 1.04.734.31.347.476.482.56.482.034 0 .199-.139.526-.489l.024-.026C3.24 6.177 3.454 6 3.8 6c.357 0 .506.133 1.04.734.31.347.476.482.56.482.034 0 .199-.139.526-.489l.024-.026C6.44 6.177 6.654 6 7 6c.357 0 .506.133 1.04.734.31.347.476.482.56.482.034 0 .199-.139.526-.489l.024-.026C9.64 6.177 9.854 6 10.2 6c.357 0 .506.133 1.04.734.31.347.476.482.56.482.034 0 .199-.139.526-.489l.024-.026c.49-.524.704-.701 1.05-.701.357 0 .506.133 1.04.734.31.347.476.482.56.482.034 0 .199-.139.526-.489l.024-.026c.49-.524.704-.701 1.05-.701.357 0 .506.133 1.04.734.31.347.476.482.56.482V8c-.39 0-.64-.204-1.112-.734-.322-.362-.457-.482-.488-.482-.039 0-.206.137-.51.463l-.024.026C15.536 7.841 15.348 8 15 8c-.39 0-.64-.204-1.112-.734-.322-.362-.457-.482-.488-.482-.039 0-.206.137-.51.463l-.024.026c-.53.568-.718.727-1.066.727-.39 0-.64-.204-1.112-.734-.322-.362-.457-.482-.488-.482-.039 0-.206.137-.51.463l-.024.026C9.136 7.841 8.948 8 8.6 8c-.39 0-.64-.204-1.112-.734-.322-.362-.457-.482-.488-.482-.039 0-.206.137-.51.463l-.024.026C5.936 7.841 5.748 8 5.4 8c-.39 0-.64-.204-1.112-.734-.322-.362-.457-.482-.488-.482-.039 0-.206.137-.51.463l-.024.026C2.736 7.841 2.548 8 2.2 8zM15 9.216c.034 0 .199-.139.526-.489l.024-.026c.49-.524.704-.701 1.05-.701.357 0 .506.133 1.04.734.31.347.476.482.56.482V10c-.39 0-.64-.204-1.112-.734-.322-.362-.457-.482-.488-.482-.039 0-.206.137-.51.463l-.024.026c-.53.568-.718.727-1.066.727-.39 0-.64-.204-1.112-.734-.322-.362-.457-.482-.488-.482-.039 0-.206.137-.51.463l-.024.026c-.53.568-.718.727-1.066.727-.39 0-.64-.204-1.112-.734-.322-.362-.457-.482-.488-.482-.039 0-.206.137-.51.463l-.024.026c-.53.568-.718.727-1.066.727-.39 0-.64-.204-1.112-.734-.322-.362-.457-.482-.488-.482-.039 0-.206.137-.51.463l-.024.026c-.53.568-.718.727-1.066.727-.39 0-.64-.204-1.112-.734-.322-.362-.457-.482-.488-.482-.039 0-.206.137-.51.463l-.024.026c-.53.568-.718.727-1.066.727-.39 0-.64-.204-1.112-.734C.766 8.904.631 8.784.6 8.784c-.039 0-.206.137-.51.463l-.024.026C-.464 9.841-.652 10-1 10v-.784c.034 0 .199-.139.526-.489l.024-.026C.04 8.177.254 8 .6 8c.357 0 .506.133 1.04.734.31.347.476.482.56.482.034 0 .199-.139.526-.489l.024-.026C3.24 8.177 3.454 8 3.8 8c.357 0 .506.133 1.04.734.31.347.476.482.56.482.034 0 .199-.139.526-.489l.024-.026C6.44 8.177 6.654 8 7 8c.357 0 .506.133 1.04.734.31.347.476.482.56.482.034 0 .199-.139.526-.489l.024-.026C9.64 8.177 9.854 8 10.2 8c.357 0 .506.133 1.04.734.31.347.476.482.56.482.034 0 .199-.139.526-.489l.024-.026c.49-.524.704-.701 1.05-.701.357 0 .506.133 1.04.734.31.347.476.482.56.482zm0 2c.034 0 .199-.139.526-.489l.024-.026c.49-.524.704-.701 1.05-.701.357 0 .506.133 1.04.734.31.347.476.482.56.482V12c-.39 0-.64-.204-1.112-.734-.322-.362-.457-.482-.488-.482-.039 0-.206.137-.51.463l-.024.026c-.53.568-.718.727-1.066.727-.39 0-.64-.204-1.112-.734-.322-.362-.457-.482-.488-.482-.039 0-.206.137-.51.463l-.024.026c-.53.568-.718.727-1.066.727-.39 0-.64-.204-1.112-.734-.322-.362-.457-.482-.488-.482-.039 0-.206.137-.51.463l-.024.026c-.53.568-.718.727-1.066.727-.39 0-.64-.204-1.112-.734-.322-.362-.457-.482-.488-.482-.039 0-.206.137-.51.463l-.024.026c-.53.568-.718.727-1.066.727-.39 0-.64-.204-1.112-.734-.322-.362-.457-.482-.488-.482-.039 0-.206.137-.51.463l-.024.026c-.53.568-.718.727-1.066.727-.39 0-.64-.204-1.112-.734-.322-.362-.457-.482-.488-.482-.039 0-.206.137-.51.463l-.024.026C-.464 11.841-.652 12-1 12v-.784c.034 0 .199-.139.526-.489l.024-.026C.04 10.177.254 10 .6 10c.357 0 .506.133 1.04.734.31.347.476.482.56.482.034 0 .199-.139.526-.489l.024-.026c.49-.524.704-.701 1.05-.701.357 0 .506.133 1.04.734.31.347.476.482.56.482.034 0 .199-.139.526-.489l.024-.026C6.44 10.177 6.654 10 7 10c.357 0 .506.133 1.04.734.31.347.476.482.56.482.034 0 .199-.139.526-.489l.024-.026c.49-.524.704-.701 1.05-.701.357 0 .506.133 1.04.734.31.347.476.482.56.482.034 0 .199-.139.526-.489l.024-.026c.49-.524.704-.701 1.05-.701.357 0 .506.133 1.04.734.31.347.476.482.56.482z" mask="url(#cr-flag-CA-BC-b)"/><path fill="#FFF" d="M0 4h16v1H0z" mask="url(#cr-flag-CA-BC-b)"/><path fill="#FFF" fill-rule="nonzero" d="M2.2 6c-.39 0-.64-.204-1.112-.734C.766 4.904.631 5 .6 5c-.039 0-.206-.079-.51.247l-.024.026C-.464 5.841-.652 6-1 6v-.784c.034 0 .199-.139.526-.489l.024-.026C.04 4.177.254 4 .6 4c.357 0 .506.133 1.04.734.31.347.476-.518.56-.518.034 0 .199.861.526.511l.024-.026C3.24 4.177 3.454 4 3.8 4c.357 0 .506.133 1.04.734.31.347.476-.518.56-.518.034 0 .199.861.526.511l.024-.026C6.44 4.177 6.654 4 7 4c.357 0 .506.133 1.04.734.31.347.476-.518.56-.518.034 0 .199.861.526.511l.024-.026C9.64 4.177 9.854 4 10.2 4c.357 0 .506.133 1.04.734.31.347.476-.518.56-.518.034 0 .199.861.526.511l.024-.026c.49-.524.704-.701 1.05-.701.357 0 .506.133 1.04.734.31.347.476-.518.56-.518.034 0 .199.861.526.511l.024-.026c.49-.524.704-.701 1.05-.701.357 0 .506.133 1.04.734.31.347.476.482.56.482V6c-.39 0-.64-.204-1.112-.734C16.766 4.904 16.631 5 16.6 5c-.039 0-.206-.079-.51.247l-.024.026C15.536 5.841 15.348 6 15 6c-.39 0-.64-.204-1.112-.734C13.566 4.904 13.431 5 13.4 5c-.039 0-.206-.079-.51.247l-.024.026c-.53.568-.718.727-1.066.727-.39 0-.64-.204-1.112-.734C10.366 4.904 10.231 5 10.2 5c-.039 0-.206-.079-.51.247l-.024.026c-.53.568-.718.954-1.066.954v.007c-.39 0-.64-.438-1.112-.968C7.166 4.904 7.031 5 7 5c-.039 0-.206-.079-.51.247l-.024.026C5.936 5.841 5.748 6 5.4 6c-.39 0-.64-.204-1.112-.734C3.966 4.904 3.831 5 3.8 5c-.039 0-.206-.079-.51.247l-.024.026C2.736 5.841 2.548 6 2.2 6zm0 2c-.39 0-.64-.204-1.112-.734C.766 6.904.631 7 .6 7c-.039 0-.206-.079-.51.247l-.024.026C-.464 7.841-.652 8-1 8v-.784c.034 0 .199-.139.526-.489l.024-.026C.04 6.177.254 6 .6 6c.357 0 .506.133 1.04.734.31.347.476.482.56.482.034 0 .199-.139.526-.489l.024-.026C3.24 6.177 3.454 6 3.8 6c.357 0 .506.133 1.04.734.31.347.476.482.56.482.034 0 .199-.139.526-.489l.024-.026C6.44 6.177 6.654 6 7 6c.357 0 .506.133 1.04.734.31.347.476.482.56.482.034 0 .199-.139.526-.489l.024-.026C9.64 6.177 9.854 6 10.2 6c.357 0 .506.133 1.04.734.31.347.476.482.56.482.034 0 .199-.139.526-.489l.024-.026c.49-.524.704-.701 1.05-.701.357 0 .506.133 1.04.734.31.347.476.482.56.482.034 0 .199-.139.526-.489l.024-.026c.49-.524.704-.701 1.05-.701.357 0 .506.133 1.04.734.31.347.476.482.56.482V8c-.39 0-.64-.204-1.112-.734C16.766 6.904 16.631 7 16.6 7c-.039 0-.206-.079-.51.247l-.024.026C15.536 7.841 15.348 8 15 8c-.39 0-.64-.204-1.112-.734C13.566 6.904 13.431 7 13.4 7c-.039 0-.206-.079-.51.247l-.024.026c-.53.568-.718.727-1.066.727-.39 0-.64-.204-1.112-.734C10.366 6.904 10.231 7 10.2 7c-.039 0-.206-.079-.51.247l-.024.026c-.53.568-.718.954-1.066.954v.007c-.39 0-.64-.438-1.112-.968C7.166 6.904 7.031 7 7 7c-.039 0-.206-.079-.51.247l-.024.026C5.936 7.841 5.748 8 5.4 8c-.39 0-.64-.204-1.112-.734C3.966 6.904 3.831 7 3.8 7c-.039 0-.206-.079-.51.247l-.024.026C2.736 7.841 2.548 8 2.2 8zM15 9.216c.034 0 .199-.139.526-.489l.024-.026c.49-.524.704-.701 1.05-.701.357 0 .506.133 1.04.734.31.347.476.482.56.482V10c-.39 0-.64-.204-1.112-.734-.322-.362-.457-.482-.488-.482-.039 0-.206.137-.51.463l-.024.026c-.53.568-.718.727-1.066.727-.39 0-.64-.204-1.112-.734-.322-.362-.457-.482-.488-.482-.039 0-.206.137-.51.463l-.024.026c-.53.568-.718.727-1.066.727-.39 0-.64-.204-1.112-.734-.322-.362-.457-.482-.488-.482-.039 0-.206.137-.51.463l-.024.026c-.53.568-.718.727-1.066.727-.39 0-.64-.204-1.112-.734-.322-.362-.457-.482-.488-.482-.039 0-.206.137-.51.463l-.024.026c-.53.568-.718.727-1.066.727-.39 0-.64-.204-1.112-.734-.322-.362-.457-.482-.488-.482-.039 0-.206.137-.51.463l-.024.026c-.53.568-.718.727-1.066.727-.39 0-.64-.204-1.112-.734C.766 8.904.631 8.784.6 8.784c-.039 0-.206.137-.51.463l-.024.026C-.464 9.841-.652 10-1 10v-.784c.034 0 .199-.139.526-.489l.024-.026C.04 8.177.254 8 .6 8c.357 0 .506.133 1.04.734.31.347.476.482.56.482.034 0 .199-.139.526-.489l.024-.026C3.24 8.177 3.454 8 3.8 8c.357 0 .506.133 1.04.734.31.347.476.482.56.482.034 0 .199-.139.526-.489l.024-.026c.49-.524.704-.92 1.05-.92.357 0 .506.352 1.04.953.31.347.476.482.56.482.034 0 .199-.139.526-.489l.024-.026c.49-.524.704-.92 1.05-.92.357 0 .506.352 1.04.953.31.347.476.482.56.482.034 0 .199-.139.526-.489l.024-.026c.49-.524.704-.701 1.05-.701.357 0 .506.133 1.04.734.31.347.476.482.56.482zm0 2c.034 0 .199-.139.526-.489l.024-.026c.49-.524.704-.701 1.05-.701.357 0 .506.133 1.04.734.31.347.476.482.56.482V12c-.39 0-.64-.204-1.112-.734-.322-.362-.457-.482-.488-.482-.039 0-.206.137-.51.463l-.024.026c-.53.568-.718.727-1.066.727-.39 0-.64-.204-1.112-.734-.322-.362-.457-.482-.488-.482-.039 0-.206.137-.51.463l-.024.026c-.53.568-.718.727-1.066.727-.39 0-.64-.204-1.112-.734-.322-.362-.457-.482-.488-.482-.039 0-.206.137-.51.463l-.024.026c-.53.568-.718.727-1.066.727-.39 0-.64-.204-1.112-.734-.322-.362-.457-.482-.488-.482-.039 0-.206.137-.51.463l-.024.026c-.53.568-.718.727-1.066.727-.39 0-.64-.204-1.112-.734-.322-.362-.457-.482-.488-.482-.039 0-.206.137-.51.463l-.024.026c-.53.568-.718.727-1.066.727-.39 0-.64-.204-1.112-.734-.322-.362-.457-.482-.488-.482-.039 0-.206.137-.51.463l-.024.026C-.464 11.841-.652 12-1 12v-.784c.034 0 .199-.139.526-.489l.024-.026C.04 10.177.254 10 .6 10c.357 0 .506.133 1.04.734.31.347.476.482.56.482.034 0 .199-.139.526-.489l.024-.026c.49-.524.704-.701 1.05-.701.357 0 .506.133 1.04.734.31.347.476.482.56.482.034 0 .199-.139.526-.489l.024-.026C6.44 10.177 6.654 10 7 10c.357 0 .506.133 1.04.734.31.347.476.482.56.482.034 0 .199-.139.526-.489l.024-.026c.49-.524.704-.701 1.05-.701.357 0 .506.133 1.04.734.31.347.476.482.56.482.034 0 .199-.139.526-.489l.024-.026c.49-.524.704-.701 1.05-.701.357 0 .506.133 1.04.734.31.347.476.482.56.482z" mask="url(#cr-flag-CA-BC-b)"/><g mask="url(#cr-flag-CA-BC-b)"><use fill="#FC0" xlink:href="#cr-flag-CA-BC-c"/><ellipse cx="8" cy="11.5" stroke="#FC0" stroke-opacity=".5" stroke-width="3" rx="9.5" ry="5"/></g><g mask="url(#cr-flag-CA-BC-b)"><mask id="cr-flag-CA-BC-e" fill="#fff"><use xlink:href="#cr-flag-CA-BC-d"/></mask><use fill="#FFF" xlink:href="#cr-flag-CA-BC-d"/><g mask="url(#cr-flag-CA-BC-e)"><use fill="#FFF" xlink:href="#cr-flag-CA-BC-f"/><g mask="url(#cr-ca-bc-g)"><path fill="#00247D" d="M0 0h16v4H0z"/><path fill="#FFF" d="M-.825-5.011l17.94 13.033-.588.81-17.94-13.034z"/><path fill="#FFF" d="M16.527-5.011L-1.412 8.022l.588.81L17.115-4.203z"/></g><g mask="url(#cr-ca-bc-g)"><path fill="#FFF" d="M6 1.333V0h4v1.333h6v1.334h-6V4H6V2.667H0V1.333h6z"/><path fill="#CF142B" d="M16 1.667v.666H9V4H7V2.333H0v-.666h7V0h2v1.667z"/></g></g><g stroke="#000" stroke-opacity=".1" mask="url(#cr-flag-CA-BC-e)"><path d="M.5.5h15v3H.5z" style="mix-blend-mode:multiply"/></g></g><g stroke="#000" stroke-opacity=".1" mask="url(#cr-flag-CA-BC-b)"><path d="M.5.5h15v11H.5z" style="mix-blend-mode:multiply"/></g></g></svg>