<svg xmlns="http://www.w3.org/2000/svg" xmlns:xlink="http://www.w3.org/1999/xlink" viewBox="0 0 16 12"><defs><rect id="cr-flag-CA-MB-a" width="16" height="12" rx="1"/><rect id="cr-flag-CA-MB-c" width="8" height="6" rx="1"/><path id="cr-flag-CA-MB-e" d="M0 0h8v6H0z"/></defs><g fill="none" fill-rule="evenodd"><mask id="cr-flag-CA-MB-b" fill="#fff"><use xlink:href="#cr-flag-CA-MB-a"/></mask><use fill="#C00" xlink:href="#cr-flag-CA-MB-a"/><g mask="url(#cr-flag-CA-MB-b)"><mask id="cr-flag-CA-MB-d" fill="#fff"><use xlink:href="#cr-flag-CA-MB-c"/></mask><use fill="#FFF" xlink:href="#cr-flag-CA-MB-c"/><g mask="url(#cr-flag-CA-MB-d)"><use fill="#FFF" xlink:href="#cr-flag-CA-MB-e"/><g mask="url(#cr-ca-mb-f)"><path fill="#00247D" d="M0 0h8v6H0z"/><path fill="#FFF" d="M-.118-1l8.97 6.516L7.97 6.73-1 .213z"/><path fill="#FFF" d="M7.97-1L-1 5.517l.88 1.213L8.851.213z"/></g><g fill="#CF142B" mask="url(#cr-ca-mb-f)"><path d="M-.206-.15l4.14 3.007-.588.81L-.794.658zm4.5 2.8l4.14 3.007-.588.81-4.14-3.008z"/><path d="M3.615 2.561L8.105-.7l.587.809-4.49 3.261z"/><path d="M-.153 5.758l4.14-3.008.587.809-4.14 3.008z"/></g><g mask="url(#cr-ca-mb-f)"><path fill="#FFF" d="M3 2V0h2v2h3v2H5v2H3V4H0V2h3z"/><path fill="#CF142B" d="M8 2.5v1H4.5V6h-1V3.5H0v-1h3.5V0h1v2.5z"/></g></g><g stroke="#000" stroke-opacity=".1" mask="url(#cr-flag-CA-MB-d)"><path d="M.5.5h7v5h-7z" style="mix-blend-mode:multiply"/></g></g><g mask="url(#cr-flag-CA-MB-b)"><path fill="#165016" d="M10 3h4v4l-2 2-2-2z"/><path fill="#B48F42" d="M14 7l-2 2-2-2zm-3-2h2v2h-2z"/><path fill="#FFF" d="M10 3h4v2h-4z"/><path fill="#CE1124" d="M12.25 3.833H14v.334h-1.75V5h-.5v-.833H10v-.334h1.75V3h.5z"/></g><g stroke="#000" stroke-opacity=".1" mask="url(#cr-flag-CA-MB-b)"><path d="M.5.5h15v11H.5z" style="mix-blend-mode:multiply"/></g></g></svg>