<svg xmlns="http://www.w3.org/2000/svg" xmlns:xlink="http://www.w3.org/1999/xlink" viewBox="0 0 16 12"><defs><rect id="cr-flag-CA-NL-a" width="16" height="12" rx="1"/><path id="cr-flag-CA-NL-c" d="M9 5h6v2H9z"/></defs><g fill="none" fill-rule="evenodd"><mask id="cr-flag-CA-NL-b" fill="#fff"><use xlink:href="#cr-flag-CA-NL-a"/></mask><use fill="#FFF" xlink:href="#cr-flag-CA-NL-a"/><path fill="#002373" d="M1 1h7v10H1z" mask="url(#cr-flag-CA-NL-b)"/><path fill="#FFF" d="M5.455 5L0 1V0h1l6 4.4V1h2v3.4L15 0h1v1l-5.455 4H15v2h-4.455L16 11v1h-1L9 7.6V11H7V7.6L1 12H0v-1l5.455-4H1V5h4.455z" mask="url(#cr-flag-CA-NL-b)"/><path stroke="#CD0019" d="M9.5 1.5v2.913L13.473 1.5H9.5zm3.973 9L9.5 7.587V10.5h3.973z" mask="url(#cr-flag-CA-NL-b)"/><g mask="url(#cr-flag-CA-NL-b)"><use fill="#F8D80E" xlink:href="#cr-flag-CA-NL-c"/><path stroke="#CD0019" stroke-width=".5" d="M9.25 5.25h5.5v1.5h-5.5z"/></g><g stroke="#000" stroke-opacity=".1" mask="url(#cr-flag-CA-NL-b)"><path d="M.5.5h15v11H.5z" style="mix-blend-mode:multiply"/></g></g></svg>