<svg xmlns="http://www.w3.org/2000/svg" xmlns:xlink="http://www.w3.org/1999/xlink" viewBox="0 0 16 12"><defs><rect id="cr-flag-CA-PE-b" width="16" height="12" rx="1"/><path id="cr-flag-CA-PE-a" d="M0 0h16v12H0z"/><mask id="cr-flag-CA-PE-d" width="16" height="12" x="0" y="0" fill="#fff"><use xlink:href="#cr-flag-CA-PE-a"/></mask></defs><g fill="none" fill-rule="evenodd"><mask id="cr-flag-CA-PE-c" fill="#fff"><use xlink:href="#cr-flag-CA-PE-b"/></mask><use fill="#FFF" xlink:href="#cr-flag-CA-PE-b"/><path fill="#D54040" d="M0 1h16v3H0z" mask="url(#cr-flag-CA-PE-c)"/><path fill="#EDAA0C" fill-rule="nonzero" d="M14.225 2.476l1.146.387-1.532 1.034-.191-.589-.662-.223.011-.068-2.32.052V4H8.293v-.877l-3.776.086v.441L.959 4l-.193-.829 2.75-.343v-.18l-2.978-.22.11-.994 3.869.319v.361l.213-.71.958.286-.149.495L9.8 2.09l-.35-.047.132-.99 5.54.734-.897.69zm-4.814.622h.266v-.006l-.266.006z" mask="url(#cr-flag-CA-PE-c)"/><g stroke="#D54040" stroke-dasharray="3 2" stroke-width="2" mask="url(#cr-flag-CA-PE-c)"><use mask="url(#cr-flag-CA-PE-d)" xlink:href="#cr-flag-CA-PE-a"/></g><path fill="#FFF" d="M0 4h1v8H0z" mask="url(#cr-flag-CA-PE-c)"/><ellipse cx="8" cy="9" fill="#44ABA2" mask="url(#cr-flag-CA-PE-c)" rx="5" ry="1"/><path fill="#A4604C" d="M4 6h3v3H4zm6 0h1v3h-1z" mask="url(#cr-flag-CA-PE-c)"/><ellipse cx="5.5" cy="6" fill="#44ABA2" mask="url(#cr-flag-CA-PE-c)" rx="2.5" ry="1"/><ellipse cx="10.5" cy="6" fill="#44ABA2" mask="url(#cr-flag-CA-PE-c)" rx="1.5" ry="1"/><g stroke="#000" stroke-opacity=".1" mask="url(#cr-flag-CA-PE-c)"><path d="M.5.5h15v11H.5z" style="mix-blend-mode:multiply"/></g></g></svg>