<svg xmlns="http://www.w3.org/2000/svg" xmlns:xlink="http://www.w3.org/1999/xlink" viewBox="0 0 16 12"><defs><rect id="cr-flag-CX-a" width="16" height="12" rx="1"/></defs><g fill="none" fill-rule="evenodd"><mask id="cr-flag-CX-b" fill="#fff"><use xlink:href="#cr-flag-CX-a"/></mask><use fill="#FFF" xlink:href="#cr-flag-CX-a"/><path fill="#0021AD" d="M0 0h16v12H0z" mask="url(#cr-flag-CX-b)"/><path fill="#FFF" d="M2 5h1v1H2zM1 7h1v1H1zm3 0h1v1H4zM3 8h1v1H3zm-1 2h1v1H2z" mask="url(#cr-flag-CX-b)"/><path fill="#1C8A42" d="M0 0h16v12z" mask="url(#cr-flag-CX-b)"/><path fill="#FFC639" fill-rule="nonzero" d="M13.25 3.809c-.933.604-1.904 1.066-2.39 1.066v1c1.2 0 3.81-1.585 4.98-2.902l-.747-.664c-.136.152-.296.31-.475.47C14.493 1.644 14.145.72 13.542.4l-.47.883c.21.111.41.666.517 1.385-.695-.816-.812-.91-1.24-1.017l-.242.97c.143.036.279.174.901.91.087.101.167.193.242.277z" mask="url(#cr-flag-CX-b)"/><circle cx="8" cy="6" r="2" fill="#FFC639" mask="url(#cr-flag-CX-b)"/><g stroke="#000" stroke-opacity=".1" mask="url(#cr-flag-CX-b)"><path d="M.5.5h15v11H.5z" style="mix-blend-mode:multiply"/></g></g></svg>