<svg xmlns="http://www.w3.org/2000/svg" xmlns:xlink="http://www.w3.org/1999/xlink" viewBox="0 0 16 12"><defs><rect id="cr-flag-DM-a" width="16" height="12" rx="1"/></defs><g fill="none" fill-rule="evenodd"><mask id="cr-flag-DM-b" fill="#fff"><use xlink:href="#cr-flag-DM-a"/></mask><use fill="#FFF" xlink:href="#cr-flag-DM-a"/><path fill="#006B3F" d="M0 0h16v12H0z" mask="url(#cr-flag-DM-b)"/><path fill="#FFF" d="M0 7h16v1H0z" mask="url(#cr-flag-DM-b)"/><path fill="#FFF" d="M9 0h1v12H9z" mask="url(#cr-flag-DM-b)"/><path fill="#FCD116" d="M6 0h1v12H6z" mask="url(#cr-flag-DM-b)"/><path fill="#FCD116" d="M0 4h16v1H0z" mask="url(#cr-flag-DM-b)"/><path fill="#181A1A" d="M7 0h2v12H7z" mask="url(#cr-flag-DM-b)"/><path fill="#181A1A" d="M0 5h16v2H0z" mask="url(#cr-flag-DM-b)"/><circle cx="8" cy="6" r="4" fill="#E34F4F" mask="url(#cr-flag-DM-b)"/><path fill="#9461C9" d="M7 4h1v3H7z" mask="url(#cr-flag-DM-b)"/><path fill="#006B3F" d="M8 5h1v3H8zM5.429 6.447A.438.438 0 0 1 5 6c0-.247.192-.447.429-.447.236 0 .428.2.428.447a.438.438 0 0 1-.428.447zm.228-1.663a.438.438 0 0 1-.084-.613c.145-.2.418-.25.61-.11a.437.437 0 0 1 .083.613.438.438 0 0 1-.61.11zM6.78 3.586a.438.438 0 0 1 .293-.546.438.438 0 0 1 .558.27.438.438 0 0 1-.293.545.438.438 0 0 1-.558-.27zm1.59-.277a.438.438 0 0 1 .557-.27.44.44 0 0 1 .293.547.438.438 0 0 1-.558.269.438.438 0 0 1-.293-.546zm1.447.752a.438.438 0 0 1 .61.11c.145.2.108.474-.084.613a.438.438 0 0 1-.61-.11.438.438 0 0 1 .084-.613zm.754 1.492c.237 0 .429.2.429.447a.438.438 0 0 1-.429.447.438.438 0 0 1-.428-.447c0-.247.192-.447.428-.447zm-.228 1.663c.192.139.23.414.084.613a.438.438 0 0 1-.61.11.438.438 0 0 1-.083-.613c.145-.2.418-.25.61-.11zM9.22 8.414a.438.438 0 0 1-.293.546.438.438 0 0 1-.558-.27.438.438 0 0 1 .293-.545.438.438 0 0 1 .558.27zm-1.59.277a.438.438 0 0 1-.557.27.438.438 0 0 1-.293-.547.438.438 0 0 1 .558-.269c.235.076.366.32.293.546zm-1.447-.752a.438.438 0 0 1-.61-.11.438.438 0 0 1 .084-.613.438.438 0 0 1 .61.11c.145.2.107.474-.084.613z" mask="url(#cr-flag-DM-b)"/><g stroke="#000" stroke-opacity=".1" mask="url(#cr-flag-DM-b)"><path d="M.5.5h15v11H.5z" style="mix-blend-mode:multiply"/></g></g></svg>