<svg xmlns="http://www.w3.org/2000/svg" xmlns:xlink="http://www.w3.org/1999/xlink" viewBox="0 0 16 12"><defs><rect id="cr-flag-EH-a" width="16" height="12" rx="1"/></defs><g fill="none" fill-rule="evenodd"><mask id="cr-flag-EH-b" fill="#fff"><use xlink:href="#cr-flag-EH-a"/></mask><use fill="#FFF" xlink:href="#cr-flag-EH-a"/><path fill="#2875C6" d="M0 0h16v12H0z" mask="url(#cr-flag-EH-b)"/><path fill="#FFF" d="M0 0h16v12H0z" mask="url(#cr-flag-EH-b)"/><path fill="#000" d="M0 0h16v4H0z" mask="url(#cr-flag-EH-b)"/><path fill="#007A3D" d="M0 8h16v4H0z" mask="url(#cr-flag-EH-b)"/><path fill="#C4111B" d="M0 0l5 6-5 6z" mask="url(#cr-flag-EH-b)"/><g fill="#C4111B" mask="url(#cr-flag-EH-b)"><path d="M8.18 4.644a1.47 1.47 0 0 0 0 2.898 1.47 1.47 0 1 1 0-2.898z"/><path d="M7.948 6.291l-.698-.516.868-.008.276-.823.276.823.868.008-.698.516.261.829-.707-.504-.707.504z"/></g><g stroke="#000" stroke-opacity=".1" mask="url(#cr-flag-EH-b)"><path d="M.5.5h15v11H.5z" style="mix-blend-mode:multiply"/></g></g></svg>