<svg xmlns="http://www.w3.org/2000/svg" xmlns:xlink="http://www.w3.org/1999/xlink" viewBox="0 0 16 12"><defs><rect id="cr-flag-ET-a" width="16" height="12" rx="1"/></defs><g fill="none" fill-rule="evenodd"><mask id="cr-flag-ET-b" fill="#fff"><use xlink:href="#cr-flag-ET-a"/></mask><use fill="#FFF" xlink:href="#cr-flag-ET-a"/><path fill="#DA121A" d="M0 0h16v12H0z" mask="url(#cr-flag-ET-b)"/><path fill="#FCDD09" d="M0 0h16v8H0z" mask="url(#cr-flag-ET-b)"/><path fill="#078930" d="M0 0h16v4H0z" mask="url(#cr-flag-ET-b)"/><circle cx="8" cy="6" r="4" fill="#0F47AF" mask="url(#cr-flag-ET-b)"/><path fill="#FCDD09" d="M7.036 5.546h-.928l-.456-.137.45.157.75.545.184-.565zm.51 0l-.281.865.735.534.735-.534-.28-.865h-.91zm-.352-.484l.783-2.412-.003-.15.026.08.026-.08-.003.15.783 2.412h2.536l.142-.05-.068.05h.084l-.144.043-2.051 1.49.783 2.412.091.12-.068-.05.026.08-.086-.123L8 7.544l-2.051 1.49-.086.123.026-.08-.068.05.09-.12.784-2.411-2.05-1.49-.145-.044h.084l-.068-.05.142.05h2.536zm.509 0h.594l-.287-.883L8 3.703l-.01.476-.287.883zM6.549 8.169l.288-.38.751-.545-.48-.35-.287.883-.272.392zm2.902 0l-.272-.392-.286-.882-.481.35.75.545.289.379zM9.147 6.11l.751-.545.45-.157-.456.137h-.928l.183.565z" mask="url(#cr-flag-ET-b)"/><g stroke="#000" stroke-opacity=".1" mask="url(#cr-flag-ET-b)"><path d="M.5.5h15v11H.5z" style="mix-blend-mode:multiply"/></g></g></svg>