<svg xmlns="http://www.w3.org/2000/svg" xmlns:xlink="http://www.w3.org/1999/xlink" viewBox="0 0 16 12"><defs><rect id="cr-flag-GB-WLS-a" width="16" height="12" rx="1"/></defs><g fill="none" fill-rule="evenodd"><mask id="cr-flag-GB-WLS-b" fill="#fff"><use xlink:href="#cr-flag-GB-WLS-a"/></mask><use fill="#FFF" xlink:href="#cr-flag-GB-WLS-a"/><path fill="#00AB39" d="M0 6h16v6H0z" mask="url(#cr-flag-GB-WLS-b)"/><path fill="#D21034" d="M6.333 9H6v1H5v1H3v-1h1V9h1V7H3V6H2V5h2v1h1V4H3V3h2V2H3V1h3v1h2v1H7v1h1v1H7v1h2V5h1V4h1V3h1V2h2v2h-1v1h-1v1h-1v1h1v1h2v3h-1v-1h-1v1h-2v-1H9v1H7v-1H6l.333-1z" mask="url(#cr-flag-GB-WLS-b)"/><g stroke="#000" stroke-opacity=".1" mask="url(#cr-flag-GB-WLS-b)"><path d="M.5.5h15v11H.5z" style="mix-blend-mode:multiply"/></g></g></svg>