<svg xmlns="http://www.w3.org/2000/svg" xmlns:xlink="http://www.w3.org/1999/xlink" viewBox="0 0 16 12"><defs><rect id="cr-flag-GD-a" width="16" height="12" rx="1"/></defs><g fill="none" fill-rule="evenodd"><mask id="cr-flag-GD-b" fill="#fff"><use xlink:href="#cr-flag-GD-a"/></mask><use fill="#FFF" xlink:href="#cr-flag-GD-a"/><path fill="#CE1126" d="M0 0h16v12H0z" mask="url(#cr-flag-GD-b)"/><path fill="#FCD116" d="M2 2h12v8H2z" mask="url(#cr-flag-GD-b)"/><path fill="#007A5E" d="M2 2l6 4 6-4v8L8 6l-6 4z" mask="url(#cr-flag-GD-b)"/><path fill="#FCD116" d="M8 1.462l-.618.44.228-.724L7 .727 7.759.72 8 0l.241.72L9 .727l-.61.451.228.724z" mask="url(#cr-flag-GD-b)"/><circle cx="8" cy="6" r="1" fill="#CE1126" mask="url(#cr-flag-GD-b)"/><circle cx="8" cy="6" r="2" fill="#CE1126" mask="url(#cr-flag-GD-b)"/><path fill="#FCD116" d="M8 6.777l-1.174.837.433-1.375L6.1 5.38l1.442-.013L8 4l.458 1.367L9.9 5.38l-1.159.859.433 1.375zm0 4.685l-.618.44.228-.724-.61-.451.759-.007L8 10l.241.72.759.007-.61.451.228.724zm4-10l-.618.44.228-.724L11 .727l.759-.007L12 0l.241.72.759.007-.61.451.228.724zm0 10l-.618.44.228-.724-.61-.451.759-.007L12 10l.241.72.759.007-.61.451.228.724zm-8-10l-.618.44.228-.724L3 .727 3.759.72 4 0l.241.72L5 .727l-.61.451.228.724zm0 10l-.618.44.228-.724-.61-.451.759-.007L4 10l.241.72.759.007-.61.451.228.724z" mask="url(#cr-flag-GD-b)"/><circle cx="4" cy="6" r="1" fill="#FCD116" mask="url(#cr-flag-GD-b)"/><path fill="#CE1126" d="M4 6h1v1H4z" mask="url(#cr-flag-GD-b)"/><g stroke="#000" stroke-opacity=".1" mask="url(#cr-flag-GD-b)"><path d="M.5.5h15v11H.5z" style="mix-blend-mode:multiply"/></g></g></svg>