<svg xmlns="http://www.w3.org/2000/svg" xmlns:xlink="http://www.w3.org/1999/xlink" viewBox="0 0 16 12"><defs><rect id="cr-flag-GE-AB-b" width="16" height="12" rx="1"/><path id="cr-flag-GE-AB-d" d="M0 0h8v4.763H0z"/><path id="cr-flag-GE-AB-a" d="M.468 5.878a4 4 0 1 1 7.064-3.756A4 4 0 0 1 .468 5.878z"/><mask id="cr-flag-GE-AB-f" width="8.002" height="8.002" x="0" y="0" fill="#fff"><use xlink:href="#cr-flag-GE-AB-a"/></mask></defs><g fill="none" fill-rule="evenodd"><mask id="cr-flag-GE-AB-c" fill="#fff"><use xlink:href="#cr-flag-GE-AB-b"/></mask><use fill="#FFF" xlink:href="#cr-flag-GE-AB-b"/><path fill="#E34F4F" d="M0 0h8v5.133H0z" mask="url(#cr-flag-GE-AB-c)"/><path fill="#00993E" d="M8 0h8v1.7H8zm0 3.433h8v1.7H8zM0 10.3h16V12H0zm0-3.433h16v1.7H0z" mask="url(#cr-flag-GE-AB-c)"/><g mask="url(#cr-flag-GE-AB-c)"><mask id="cr-flag-GE-AB-e" fill="#fff"><use xlink:href="#cr-flag-GE-AB-d"/></mask><g stroke="#FFF" stroke-dasharray="1 1 1 1" stroke-width="2" mask="url(#cr-flag-GE-AB-e)" transform="rotate(-7 4 4)"><use mask="url(#cr-flag-GE-AB-f)" xlink:href="#cr-flag-GE-AB-a"/></g><path fill="#FFF" d="M3 2h2v2H3z"/></g><g stroke="#000" stroke-opacity=".1" mask="url(#cr-flag-GE-AB-c)"><path d="M.5.5h15v11H.5z" style="mix-blend-mode:multiply"/></g></g></svg>