<svg xmlns="http://www.w3.org/2000/svg" xmlns:xlink="http://www.w3.org/1999/xlink" viewBox="0 0 16 12"><defs><rect id="cr-flag-GE-a" width="16" height="12" rx="1"/><path id="cr-flag-GE-c" d="M9 5h7v2H9v5H7V7H0V5h7V0h2z"/></defs><g fill="none" fill-rule="evenodd"><mask id="cr-flag-GE-b" fill="#fff"><use xlink:href="#cr-flag-GE-a"/></mask><use fill="#FFF" xlink:href="#cr-flag-GE-a"/><g mask="url(#cr-flag-GE-b)"><use fill="#F00" xlink:href="#cr-flag-GE-c"/><path stroke="#FFF" d="M9.5 4.5h7v3h-7v5h-3v-5h-7v-3h7v-5h3v5z"/></g><path fill="#F00" d="M3 2V1h1v1h1v1H4v1H3V3H2V2h1zm9 0V1h1v1h1v1h-1v1h-1V3h-1V2h1zm0 7V8h1v1h1v1h-1v1h-1v-1h-1V9h1zM3 9V8h1v1h1v1H4v1H3v-1H2V9h1z" mask="url(#cr-flag-GE-b)"/><g stroke="#000" stroke-opacity=".1" mask="url(#cr-flag-GE-b)"><path d="M.5.5h15v11H.5z" style="mix-blend-mode:multiply"/></g></g></svg>