<svg xmlns="http://www.w3.org/2000/svg" xmlns:xlink="http://www.w3.org/1999/xlink" viewBox="0 0 16 12"><defs><rect id="cr-flag-HN-a" width="16" height="12" rx="1"/></defs><g fill="none" fill-rule="evenodd"><mask id="cr-flag-HN-b" fill="#fff"><use xlink:href="#cr-flag-HN-a"/></mask><use fill="#FFF" xlink:href="#cr-flag-HN-a"/><path fill="#0073CF" d="M0 0h16v12H0z" mask="url(#cr-flag-HN-b)"/><path fill="#FFF" d="M0 4h16v4H0z" mask="url(#cr-flag-HN-b)"/><path fill="#0073CF" d="M11.29 7.655l-.488.348.18-.572-.482-.357.6-.005.19-.569.19.569.6.005-.482.357.18.572zm-.001-2.502l-.488.347.18-.571-.481-.356.599-.005.19-.568.19.568.598.005-.481.356.18.571zM4.29 7.655l-.488.348.18-.572-.482-.357.6-.005.19-.569.19.569.6.005-.482.357.18.572zm-.001-2.502l-.488.347.18-.571-.481-.356.599-.005.19-.568.19.568.598.005-.481.356.18.571zm3.71 1.249l-.488.347.18-.571-.481-.356.599-.005.19-.568.19.568.598.005-.481.356.18.571z" mask="url(#cr-flag-HN-b)"/><g stroke="#000" stroke-opacity=".1" mask="url(#cr-flag-HN-b)"><path d="M.5.5h15v11H.5z" style="mix-blend-mode:multiply"/></g></g></svg>