<svg xmlns="http://www.w3.org/2000/svg" xmlns:xlink="http://www.w3.org/1999/xlink" viewBox="0 0 16 12"><defs><rect id="cr-flag-HR-a" width="16" height="12" rx="1"/><path id="cr-flag-HR-c" d="M0 0h4v4L2 5 0 4z"/></defs><g fill="none" fill-rule="evenodd"><mask id="cr-flag-HR-b" fill="#fff"><use xlink:href="#cr-flag-HR-a"/></mask><use fill="#FFF" xlink:href="#cr-flag-HR-a"/><path fill="#171796" d="M0 8h16v4H0z" mask="url(#cr-flag-HR-b)"/><path fill="#F00" d="M0 0h16v4H0z" mask="url(#cr-flag-HR-b)"/><path fill="#FFF" d="M0 4h16v4H0z" mask="url(#cr-flag-HR-b)"/><g mask="url(#cr-flag-HR-b)"><g transform="translate(6 3)"><mask id="cr-flag-HR-d" fill="#fff"><use xlink:href="#cr-flag-HR-c"/></mask><use fill="#F00" xlink:href="#cr-flag-HR-c"/><path stroke="#F00" d="M-.5-.5h5v4.809L2 5.559l-2.5-1.25V-.5z"/><path fill="#FFF" d="M0 0h1v1H0zm2 0h1v1H2zM1 1h1v1H1zm2 0h1v1H3zM2 2h1v1H2zM0 2h1v1H0zm1 1h1v1H1zm2 0h1v1H3zM0 4h1v1H0zm2 0h1v1H2z" mask="url(#cr-flag-HR-d)"/></g></g><path fill="#0093DD" d="M5 2h6v1H5z" mask="url(#cr-flag-HR-b)"/><g stroke="#000" stroke-opacity=".1" mask="url(#cr-flag-HR-b)"><path d="M.5.5h15v11H.5z" style="mix-blend-mode:multiply"/></g></g></svg>