<svg xmlns="http://www.w3.org/2000/svg" xmlns:xlink="http://www.w3.org/1999/xlink" viewBox="0 0 16 12"><defs><rect id="cr-flag-IO-a" width="15.957" height="12" rx="1"/><path id="cr-flag-IO-c" d="M0 0h8v6H0z"/></defs><g fill="none" fill-rule="evenodd"><mask id="cr-flag-IO-b" fill="#fff"><use xlink:href="#cr-flag-IO-a"/></mask><use fill="#FFF" xlink:href="#cr-flag-IO-a"/><path fill="#FFF" d="M0 0h16v12H0z" mask="url(#cr-flag-IO-b)"/><path fill="#00247D" fill-rule="nonzero" d="M3.2 1.216c.034 0 .199-.139.526-.489L3.75.701C4.24.177 4.454 0 4.8 0c.357 0 .506.133 1.04.734.31.347.476.482.56.482.034 0 .199-.139.526-.489L6.95.701C7.44.177 7.654 0 8 0c.357 0 .506.133 1.04.734.31.347.476.482.56.482.034 0 .199-.139.526-.489l.024-.026C10.64.177 10.854 0 11.2 0c.357 0 .506.133 1.04.734.31.347.476.482.56.482.034 0 .199-.139.526-.489l.024-.026C13.84.177 14.054 0 14.4 0c.357 0 .506.133 1.04.734.31.347.476.482.56.482V2c-.39 0-.64-.204-1.112-.734-.322-.362-.457-.482-.488-.482-.039 0-.206.137-.51.463l-.024.026c-.53.568-.718.727-1.066.727-.39 0-.64-.204-1.112-.734-.322-.362-.457-.482-.488-.482-.039 0-.206.137-.51.463l-.024.026C10.136 1.841 9.948 2 9.6 2c-.39 0-.64-.204-1.112-.734C8.166.904 8.031.784 8 .784c-.039 0-.206.137-.51.463l-.024.026C6.936 1.841 6.748 2 6.4 2c-.39 0-.64-.204-1.112-.734C4.966.904 4.831.784 4.8.784c-.039 0-.206.137-.51.463l-.024.026C3.736 1.841 3.548 2 3.2 2c-.39 0-.64-.204-1.112-.734C1.766.904 1.631.784 1.6.784c-.039 0-.206.137-.51.463l-.024.026C.536 1.841.348 2 0 2v-.784c.034 0 .199-.139.526-.489L.55.701C1.04.177 1.254 0 1.6 0c.357 0 .506.133 1.04.734.31.347.476.482.56.482zm0 2c.034 0 .199-.139.526-.489l.024-.026C4.24 2.177 4.454 2 4.8 2c.357 0 .506.133 1.04.734.31.347.476.482.56.482.034 0 .199-.139.526-.489l.024-.026C7.44 2.177 7.654 2 8 2c.357 0 .506.133 1.04.734.31.347.476.482.56.482.034 0 .199-.139.526-.489l.024-.026c.49-.524.704-.701 1.05-.701.357 0 .506.133 1.04.734.31.347.476.482.56.482.034 0 .199-.139.526-.489l.024-.026c.49-.524.704-.701 1.05-.701.357 0 .506.133 1.04.734.31.347.476.482.56.482V4c-.39 0-.64-.204-1.112-.734-.322-.362-.457-.482-.488-.482-.039 0-.206.137-.51.463l-.024.026c-.53.568-.718.727-1.066.727-.39 0-.64-.204-1.112-.734-.322-.362-.457-.482-.488-.482-.039 0-.206.137-.51.463l-.024.026C10.136 3.841 9.948 4 9.6 4c-.39 0-.64-.204-1.112-.734-.322-.362-.457-.482-.488-.482-.039 0-.206.137-.51.463l-.024.026C6.936 3.841 6.748 4 6.4 4c-.39 0-.64-.204-1.112-.734-.322-.362-.457-.482-.488-.482-.039 0-.206.137-.51.463l-.024.026C3.736 3.841 3.548 4 3.2 4c-.39 0-.64-.204-1.112-.734-.322-.362-.457-.482-.488-.482-.039 0-.206.137-.51.463l-.024.026C.536 3.841.348 4 0 4v-.784c.034 0 .199-.139.526-.489l.024-.026C1.04 2.177 1.254 2 1.6 2c.357 0 .506.133 1.04.734.31.347.476.482.56.482zm0 2c.034 0 .199-.139.526-.489l.024-.026C4.24 4.177 4.454 4 4.8 4c.357 0 .506.133 1.04.734.31.347.476.482.56.482.034 0 .199-.139.526-.489l.024-.026C7.44 4.177 7.654 4 8 4c.357 0 .506.133 1.04.734.31.347.476.482.56.482.034 0 .199-.139.526-.489l.024-.026c.49-.524.704-.701 1.05-.701.357 0 .506.133 1.04.734.31.347.476.482.56.482.034 0 .199-.139.526-.489l.024-.026c.49-.524.704-.701 1.05-.701.357 0 .506.133 1.04.734.31.347.476.482.56.482V6c-.39 0-.64-.204-1.112-.734-.322-.362-.457-.482-.488-.482-.039 0-.206.137-.51.463l-.024.026c-.53.568-.718.727-1.066.727-.39 0-.64-.204-1.112-.734-.322-.362-.457-.482-.488-.482-.039 0-.206.137-.51.463l-.024.026C10.136 5.841 9.948 6 9.6 6c-.39 0-.64-.204-1.112-.734-.322-.362-.457-.482-.488-.482-.039 0-.206.137-.51.463l-.024.026C6.936 5.841 6.748 6 6.4 6c-.39 0-.64-.204-1.112-.734-.322-.362-.457-.482-.488-.482-.039 0-.206.137-.51.463l-.024.026C3.736 5.841 3.548 6 3.2 6c-.39 0-.64-.204-1.112-.734-.322-.362-.457-.482-.488-.482-.039 0-.206.137-.51.463l-.024.026C.536 5.841.348 6 0 6v-.784c.034 0 .199-.139.526-.489l.024-.026C1.04 4.177 1.254 4 1.6 4c.357 0 .506.133 1.04.734.31.347.476.482.56.482zm0 2c.034 0 .199-.139.526-.489l.024-.026C4.24 6.177 4.454 6 4.8 6c.357 0 .506.133 1.04.734.31.347.476.482.56.482.034 0 .199-.139.526-.489l.024-.026C7.44 6.177 7.654 6 8 6c.357 0 .506.133 1.04.734.31.347.476.482.56.482.034 0 .199-.139.526-.489l.024-.026c.49-.524.704-.701 1.05-.701.357 0 .506.133 1.04.734.31.347.476.482.56.482.034 0 .199-.139.526-.489l.024-.026c.49-.524.704-.701 1.05-.701.357 0 .506.133 1.04.734.31.347.476.482.56.482V8c-.39 0-.64-.204-1.112-.734-.322-.362-.457-.482-.488-.482-.039 0-.206.137-.51.463l-.024.026c-.53.568-.718.727-1.066.727-.39 0-.64-.204-1.112-.734-.322-.362-.457-.482-.488-.482-.039 0-.206.137-.51.463l-.024.026C10.136 7.841 9.948 8 9.6 8c-.39 0-.64-.204-1.112-.734-.322-.362-.457-.482-.488-.482-.039 0-.206.137-.51.463l-.024.026C6.936 7.841 6.748 8 6.4 8c-.39 0-.64-.204-1.112-.734-.322-.362-.457-.482-.488-.482-.039 0-.206.137-.51.463l-.024.026C3.736 7.841 3.548 8 3.2 8c-.39 0-.64-.204-1.112-.734-.322-.362-.457-.482-.488-.482-.039 0-.206.137-.51.463l-.024.026C.536 7.841.348 8 0 8v-.784c.034 0 .199-.139.526-.489l.024-.026C1.04 6.177 1.254 6 1.6 6c.357 0 .506.133 1.04.734.31.347.476.482.56.482zm0 2c.034 0 .199-.139.526-.489l.024-.026C4.24 8.177 4.454 8 4.8 8c.357 0 .506.133 1.04.734.31.347.476.482.56.482.034 0 .199-.139.526-.489l.024-.026C7.44 8.177 7.654 8 8 8c.357 0 .506.133 1.04.734.31.347.476.482.56.482.034 0 .199-.139.526-.489l.024-.026c.49-.524.704-.701 1.05-.701.357 0 .506.133 1.04.734.31.347.476.482.56.482.034 0 .199-.139.526-.489l.024-.026c.49-.524.704-.701 1.05-.701.357 0 .506.133 1.04.734.31.347.476.482.56.482V10c-.39 0-.64-.204-1.112-.734-.322-.362-.457-.482-.488-.482-.039 0-.206.137-.51.463l-.024.026c-.53.568-.718.727-1.066.727-.39 0-.64-.204-1.112-.734-.322-.362-.457-.482-.488-.482-.039 0-.206.137-.51.463l-.024.026c-.53.568-.718.727-1.066.727-.39 0-.64-.204-1.112-.734-.322-.362-.457-.482-.488-.482-.039 0-.206.137-.51.463l-.024.026c-.53.568-.718.727-1.066.727-.39 0-.64-.204-1.112-.734-.322-.362-.457-.482-.488-.482-.039 0-.206.137-.51.463l-.024.026c-.53.568-.718.727-1.066.727-.39 0-.64-.204-1.112-.734-.322-.362-.457-.482-.488-.482-.039 0-.206.137-.51.463l-.024.026C.536 9.841.348 10 0 10v-.784c.034 0 .199-.139.526-.489l.024-.026C1.04 8.177 1.254 8 1.6 8c.357 0 .506.133 1.04.734.31.347.476.482.56.482zm0 2c.034 0 .199-.139.526-.489l.024-.026c.49-.524.704-.701 1.05-.701.357 0 .506.133 1.04.734.31.347.476.482.56.482.034 0 .199-.139.526-.489l.024-.026C7.44 10.177 7.654 10 8 10c.357 0 .506.133 1.04.734.31.347.476.482.56.482.034 0 .199-.139.526-.489l.024-.026c.49-.524.704-.701 1.05-.701.357 0 .506.133 1.04.734.31.347.476.482.56.482.034 0 .199-.139.526-.489l.024-.026c.49-.524.704-.701 1.05-.701.357 0 .506.133 1.04.734.31.347.476.482.56.482V12c-.39 0-.64-.204-1.112-.734-.322-.362-.457-.482-.488-.482-.039 0-.206.137-.51.463l-.024.026c-.53.568-.718.727-1.066.727-.39 0-.64-.204-1.112-.734-.322-.362-.457-.482-.488-.482-.039 0-.206.137-.51.463l-.024.026c-.53.568-.718.727-1.066.727-.39 0-.64-.204-1.112-.734-.322-.362-.457-.482-.488-.482-.039 0-.206.137-.51.463l-.024.026c-.53.568-.718.727-1.066.727-.39 0-.64-.204-1.112-.734-.322-.362-.457-.482-.488-.482-.039 0-.206.137-.51.463l-.024.026c-.53.568-.718.727-1.066.727-.39 0-.64-.204-1.112-.734-.322-.362-.457-.482-.488-.482-.039 0-.206.137-.51.463l-.024.026C.536 11.841.348 12 0 12v-.784c.034 0 .199-.139.526-.489l.024-.026c.49-.524.704-.701 1.05-.701.357 0 .506.133 1.04.734.31.347.476.482.56.482z" mask="url(#cr-flag-IO-b)"/><g mask="url(#cr-flag-IO-b)"><g transform="translate(8 1)"><path fill="#A24300" d="M2.97 3h1v8h-1z"/><path fill="#C00" d="M1.973 7h2.992v2H1.973z"/><ellipse cx="3.469" cy="2.5" fill="#006D00" rx="2.493" ry="2.5"/></g></g><g mask="url(#cr-flag-IO-b)"><mask id="cr-flag-IO-d" fill="#fff"><use xlink:href="#cr-flag-IO-c"/></mask><use fill="#FFF" xlink:href="#cr-flag-IO-c"/><g mask="url(#cr-flag-IO-d)"><path fill="#00247D" d="M0 0h8v6H0z"/><path fill="#FFF" d="M-.118-1l8.97 6.516L7.97 6.73-1 .213z"/><path fill="#FFF" d="M7.97-1L-1 5.517l.88 1.213L8.851.213z"/></g><g fill="#CF142B" mask="url(#cr-flag-IO-d)"><path d="M-.206-.15l4.14 3.007-.588.81L-.794.658zm4.5 2.8l4.14 3.007-.588.81-4.14-3.008z"/><path d="M3.615 2.561L8.105-.7l.587.809-4.49 3.261z"/><path d="M-.153 5.758l4.14-3.008.587.809-4.14 3.008z"/></g><g mask="url(#cr-flag-IO-d)"><path fill="#FFF" d="M3 2V0h2v2h3v2H5v2H3V4H0V2h3z"/><path fill="#CF142B" d="M8 2.5v1H4.5V6h-1V3.5H0v-1h3.5V0h1v2.5z"/></g></g><g stroke="#000" stroke-opacity=".1" mask="url(#cr-flag-IO-b)"><path d="M.5.5h15v11H.5z" style="mix-blend-mode:multiply"/></g></g></svg>