<svg xmlns="http://www.w3.org/2000/svg" xmlns:xlink="http://www.w3.org/1999/xlink" viewBox="0 0 16 12"><defs><rect id="cr-flag-LK-a" width="16" height="12" rx="1"/></defs><g fill="none" fill-rule="evenodd"><mask id="cr-flag-LK-b" fill="#fff"><use xlink:href="#cr-flag-LK-a"/></mask><use fill="#FFF" xlink:href="#cr-flag-LK-a"/><path fill="#FFBE29" d="M0 0h16v12H0z" mask="url(#cr-flag-LK-b)"/><path fill="#00534E" d="M1 1h2v10H1z" mask="url(#cr-flag-LK-b)"/><path fill="#EB7400" d="M3 1h2v10H3z" mask="url(#cr-flag-LK-b)"/><path fill="#8D153A" d="M6 1h9v10H6z" mask="url(#cr-flag-LK-b)"/><path fill="#FFBE29" d="M14 7v2h-2V7h-2v2H9V7h1l3-2h-1V4h2v3zm-3-1H9V3h2v3zM9 7H8v1H7V3h1v3z" mask="url(#cr-flag-LK-b)" opacity=".7"/><circle cx="6.5" cy="1.5" r="1" fill="#FFBE29" mask="url(#cr-flag-LK-b)"/><circle cx="14.5" cy="1.5" r="1" fill="#FFBE29" mask="url(#cr-flag-LK-b)"/><circle cx="6.5" cy="10.5" r="1" fill="#FFBE29" mask="url(#cr-flag-LK-b)"/><circle cx="14.5" cy="10.5" r="1" fill="#FFBE29" mask="url(#cr-flag-LK-b)"/><g stroke="#000" stroke-opacity=".1" mask="url(#cr-flag-LK-b)"><path d="M.5.5h15v11H.5z" style="mix-blend-mode:multiply"/></g></g></svg>