<svg xmlns="http://www.w3.org/2000/svg" xmlns:xlink="http://www.w3.org/1999/xlink" viewBox="0 0 16 12"><defs><rect id="cr-flag-MA-a" width="16" height="12" rx="1"/></defs><g fill="none" fill-rule="evenodd"><mask id="cr-flag-MA-b" fill="#fff"><use xlink:href="#cr-flag-MA-a"/></mask><use fill="#FFF" xlink:href="#cr-flag-MA-a"/><path fill="#C1272D" d="M0 0h16v12H0z" mask="url(#cr-flag-MA-b)"/><path fill="#006233" d="M7.45 5.716h-.53l-.262-.078.257.089.43.307.104-.318zm.29 0l-.16.487.42.3.42-.3-.16-.487h-.52zm-.2-.273l.447-1.358L7.985 4 8 4.045 8.015 4l-.002.085.448 1.358H9.91l.08-.028-.038.028H10l-.082.024-1.172.84.447 1.358.052.068-.039-.028.015.045-.049-.07L8 6.84l-1.172.84-.05.07.016-.045-.04.028.053-.068.447-1.358-1.172-.84L6 5.443h.048l-.039-.028.081.028h1.45zm.29 0h.34l-.164-.497L8 4.678l-.006.268-.164.497zm-.66 1.75l.166-.213.429-.308-.275-.196-.164.497-.155.22zm1.66 0l-.156-.22-.164-.497-.275.196.43.308.164.213zm-.174-1.159l.429-.307.257-.088-.261.077h-.53l.105.318z" mask="url(#cr-flag-MA-b)"/><g stroke="#000" stroke-opacity=".1" mask="url(#cr-flag-MA-b)"><path d="M.5.5h15v11H.5z" style="mix-blend-mode:multiply"/></g></g></svg>