<svg xmlns="http://www.w3.org/2000/svg" xmlns:xlink="http://www.w3.org/1999/xlink" viewBox="0 0 16 12"><defs><rect id="cr-flag-MK-a" width="16" height="12" rx="1"/><circle id="cr-flag-MK-c" cx="8" cy="6" r="2"/></defs><g fill="none" fill-rule="evenodd"><mask id="cr-flag-MK-b" fill="#fff"><use xlink:href="#cr-flag-MK-a"/></mask><use fill="#FFF" xlink:href="#cr-flag-MK-a"/><path fill="#D20000" d="M0 0h16v12H0z" mask="url(#cr-flag-MK-b)"/><g fill="#FFE600" mask="url(#cr-flag-MK-b)"><path d="M0 0h1l7 6-8-5zm16 0h-1L8 6l8-5z"/></g><g fill="#FFE600" mask="url(#cr-flag-MK-b)"><path d="M0 12h1l7-6-8 5zm16 0h-1L8 6l8 5z"/></g><path fill="#FFE600" d="M7 0h2L8 4z" mask="url(#cr-flag-MK-b)"/><path fill="#FFE600" d="M7 8h2l-1 4z" mask="url(#cr-flag-MK-b)" transform="matrix(1 0 0 -1 0 20)"/><path fill="#FFE600" d="M10 6l6-1v2z" mask="url(#cr-flag-MK-b)"/><path fill="#FFE600" d="M0 6l6-1v2z" mask="url(#cr-flag-MK-b)" transform="matrix(-1 0 0 1 6 0)"/><g mask="url(#cr-flag-MK-b)"><use fill="#FFF800" xlink:href="#cr-flag-MK-c"/><circle cx="8" cy="6" r="2.25" stroke="#D20000" stroke-width=".5"/></g><g stroke="#000" stroke-opacity=".1" mask="url(#cr-flag-MK-b)"><path d="M.5.5h15v11H.5z" style="mix-blend-mode:multiply"/></g></g></svg>