<svg xmlns="http://www.w3.org/2000/svg" xmlns:xlink="http://www.w3.org/1999/xlink" viewBox="0 0 16 12"><defs><rect id="cr-flag-MY-a" width="16" height="12" rx="1"/></defs><g fill="none" fill-rule="evenodd"><mask id="cr-flag-MY-b" fill="#fff"><use xlink:href="#cr-flag-MY-a"/></mask><use fill="#FFF" xlink:href="#cr-flag-MY-a"/><path fill="#CC0001" d="M0 0h16v12H0z" mask="url(#cr-flag-MY-b)"/><path fill="#FFF" d="M0 1h16v1H0zm0 2h16v1H0zm0 2h16v1H0zm0 2h16v1H0zm0 2h16v1H0zm0 2h16v1H0z" mask="url(#cr-flag-MY-b)"/><path fill="#010066" d="M0 0h8v6H0z" mask="url(#cr-flag-MY-b)"/><circle cx="5" cy="3" r="1" fill="#FC0" mask="url(#cr-flag-MY-b)"/><path fill="#FC0" d="M4.67 1.898a1.625 1.625 0 1 0 0 2.204 2 2 0 1 1 0-2.204z" mask="url(#cr-flag-MY-b)"/><g stroke="#000" stroke-opacity=".1" mask="url(#cr-flag-MY-b)"><path d="M.5.5h15v11H.5z" style="mix-blend-mode:multiply"/></g></g></svg>