<svg xmlns="http://www.w3.org/2000/svg" xmlns:xlink="http://www.w3.org/1999/xlink" viewBox="0 0 16 12"><defs><rect id="cr-flag-MZ-a" width="16" height="12" rx="1"/></defs><g fill="none" fill-rule="evenodd"><mask id="cr-flag-MZ-b" fill="#fff"><use xlink:href="#cr-flag-MZ-a"/></mask><use fill="#FFF" xlink:href="#cr-flag-MZ-a"/><path fill="#FCE100" d="M0 0h16v12H0z" mask="url(#cr-flag-MZ-b)"/><path fill="#007168" d="M0 0h16v4H0z" mask="url(#cr-flag-MZ-b)"/><g mask="url(#cr-flag-MZ-b)"><path fill="#000" d="M0 4.667h16v2.667H0z"/><path fill="#FFF" d="M0 4h16v1H0zm0 3.333h16v1H0z"/></g><path fill="#D21034" d="M0 0l6 6-6 6z" mask="url(#cr-flag-MZ-b)"/><path fill="#FCE100" d="M2.105 6.646l-.992.707.366-1.162L.5 5.466l1.218-.011.387-1.155.387 1.155 1.218.011-.979.725.366 1.162z" mask="url(#cr-flag-MZ-b)"/><path fill="#000" d="M.82 7.547h.427l.814-1.204h.015l.801 1.204h.452L2.31 6.05v-.012l1.042-1.511h-.429l-.816 1.214h-.015l-.805-1.214H.833l1.015 1.492v.015z" mask="url(#cr-flag-MZ-b)"/><g stroke="#000" stroke-opacity=".1" mask="url(#cr-flag-MZ-b)"><path d="M.5.5h15v11H.5z" style="mix-blend-mode:multiply"/></g></g></svg>