<svg xmlns="http://www.w3.org/2000/svg" xmlns:xlink="http://www.w3.org/1999/xlink" viewBox="0 0 16 12"><defs><rect id="cr-flag-NA-a" width="16" height="12" rx="1"/></defs><g fill="none" fill-rule="evenodd"><mask id="cr-flag-NA-b" fill="#fff"><use xlink:href="#cr-flag-NA-a"/></mask><use fill="#FFF" xlink:href="#cr-flag-NA-a"/><path fill="#009543" d="M0 0h16v12H0z" mask="url(#cr-flag-NA-b)"/><path fill="#003580" d="M0 0h16L0 12z" mask="url(#cr-flag-NA-b)"/><g mask="url(#cr-flag-NA-b)"><path fill="#D21034" d="M-1.39 11.229L15.556-.636l1.53 2.185L.14 13.413z"/><path fill="#FFF" d="M-1.772 10.682L15.172-1.182l.574.819-16.944 11.864zM.14 13.413L17.084 1.548l.574.82L.713 14.231z"/></g><circle cx="3" cy="3" r="1" fill="#FFCE00" mask="url(#cr-flag-NA-b)"/><path fill="#FFCE00" d="M3 1l.25 1h-.5L3 1zm1 .268l-.283.991-.434-.25L4 1.268zM4.732 2l-.741.717-.25-.434L4.732 2zM5 3l-1 .25v-.5L5 3zm-.268 1l-.991-.283.25-.434.741.717zM4 4.732l-.717-.741.434-.25.283.991zM3 5l-.25-1h.5L3 5zm-1-.268l.283-.991.434.25L2 4.732zM1.268 4l.741-.717.25.434L1.268 4zM1 3l1-.25v.5L1 3zm.268-1l.991.283-.25.434L1.268 2zM2 1.268l.717.741-.434.25L2 1.268z" mask="url(#cr-flag-NA-b)"/><g stroke="#000" stroke-opacity=".1" mask="url(#cr-flag-NA-b)"><path d="M.5.5h15v11H.5z" style="mix-blend-mode:multiply"/></g></g></svg>