<svg xmlns="http://www.w3.org/2000/svg" xmlns:xlink="http://www.w3.org/1999/xlink" viewBox="0 0 16 12"><defs><rect id="cr-flag-NU-a" width="16" height="12" rx="1"/><path id="cr-flag-NU-c" d="M0 0h8v6H0z"/></defs><g fill="none" fill-rule="evenodd"><mask id="cr-flag-NU-b" fill="#fff"><use xlink:href="#cr-flag-NU-a"/></mask><use fill="#FFF" xlink:href="#cr-flag-NU-a"/><path fill="#FCD116" d="M0 0h16v12H0z" mask="url(#cr-flag-NU-b)"/><g mask="url(#cr-flag-NU-b)"><mask id="cr-flag-NU-d" fill="#fff"><use xlink:href="#cr-flag-NU-c"/></mask><use fill="#FFF" xlink:href="#cr-flag-NU-c"/><g mask="url(#cr-flag-NU-d)"><path fill="#00247D" d="M0 0h8v6H0z"/><path fill="#FFF" d="M-.118-1l8.97 6.516L7.97 6.73-1 .213z"/><path fill="#FFF" d="M7.97-1L-1 5.517l.88 1.213L8.851.213z"/></g><g fill="#CF142B" mask="url(#cr-flag-NU-d)"><path d="M-.206-.15l4.14 3.007-.588.81L-.794.658zm4.5 2.8l4.14 3.007-.588.81-4.14-3.008z"/><path d="M3.615 2.561L8.105-.7l.587.809-4.49 3.261z"/><path d="M-.153 5.758l4.14-3.008.587.809-4.14 3.008z"/></g><g mask="url(#cr-flag-NU-d)"><path fill="#FFF" d="M3 2V0h2v2h3v2H5v2H3V4H0V2h3z"/><path fill="#CF142B" d="M8 2.5v1H4.5V6h-1V3.5H0v-1h3.5V0h1v2.5z"/></g></g><circle cx="4" cy="3" r="1" fill="#00247D" mask="url(#cr-flag-NU-b)"/><path fill="#FCD116" d="M4 3.388l-.587.419.216-.688-.579-.429.721-.006L4 2l.229.684.721.006-.579.429.216.688zM1 2.5h1v1H1zm5 0h1v1H6zM3.5.5h1v1h-1zm0 4h1v1h-1z" mask="url(#cr-flag-NU-b)"/><g stroke="#000" stroke-opacity=".1" mask="url(#cr-flag-NU-b)"><path d="M.5.5h15v11H.5z" style="mix-blend-mode:multiply"/></g></g></svg>