<svg xmlns="http://www.w3.org/2000/svg" xmlns:xlink="http://www.w3.org/1999/xlink" viewBox="0 0 16 12"><defs><rect id="cr-flag-PG-a" width="16" height="12" rx="1"/></defs><g fill="none" fill-rule="evenodd"><mask id="cr-flag-PG-b" fill="#fff"><use xlink:href="#cr-flag-PG-a"/></mask><use fill="#FFF" xlink:href="#cr-flag-PG-a"/><path fill="#000" d="M0 0h16v12H0z" mask="url(#cr-flag-PG-b)"/><path fill="#FFF" d="M2 3h1v1H2zM1 6h1v1H1zm3-1h1v1H4zM3 7h1v1H3zm-1 3h1v1H2z" mask="url(#cr-flag-PG-b)"/><path fill="#CE1126" d="M0 0h16v12z" mask="url(#cr-flag-PG-b)"/><path fill="#FCD116" d="M10.742 4.398l-1.21.492-.871-.492 1.21-1.154-1.005-.641-.205-1.278 1.823 1.124.807-1.579.89.455-.643 1.384.802-.453h.759l.864.799-.864.918.987.816.329 1.775-.983.182-.263-1.418-.723-.597-.671 1.427-.905-.426-.224-.643z" mask="url(#cr-flag-PG-b)"/><g stroke="#000" stroke-opacity=".1" mask="url(#cr-flag-PG-b)"><path d="M.5.5h15v11H.5z" style="mix-blend-mode:multiply"/></g></g></svg>