<svg xmlns="http://www.w3.org/2000/svg" xmlns:xlink="http://www.w3.org/1999/xlink" viewBox="0 0 16 12"><defs><rect id="cr-flag-PN-a" width="16" height="12" rx="1"/><path id="cr-flag-PN-c" d="M0 0h4v4L2 6 0 4z"/><path id="cr-flag-PN-e" d="M0 0h8v6H0z"/></defs><g fill="none" fill-rule="evenodd"><mask id="cr-flag-PN-b" fill="#fff"><use xlink:href="#cr-flag-PN-a"/></mask><use fill="#FFF" xlink:href="#cr-flag-PN-a"/><path fill="#00247D" d="M0 0h16v12H0z" mask="url(#cr-flag-PN-b)"/><circle cx="12" cy="6" r="3" fill="#F7E017" mask="url(#cr-flag-PN-b)"/><g mask="url(#cr-flag-PN-b)"><g transform="translate(10 4)"><mask id="cr-flag-PN-d" fill="#fff"><use xlink:href="#cr-flag-PN-c"/></mask><use fill="#006EC7" xlink:href="#cr-flag-PN-c"/><path fill="#337321" d="M-.041 4.13L2.042-.023 4.125 4.13 2.042 6.507z" mask="url(#cr-flag-PN-d)"/></g></g><g mask="url(#cr-flag-PN-b)"><use fill="#FFF" xlink:href="#cr-flag-PN-e"/><g mask="url(#cr-pn-f)"><path fill="#00247D" d="M0 0h8v6H0z"/><path fill="#FFF" d="M-.118-1l8.97 6.516L7.97 6.73-1 .213z"/><path fill="#FFF" d="M7.97-1L-1 5.517l.88 1.213L8.851.213z"/></g><g fill="#CF142B" mask="url(#cr-pn-f)"><path d="M-.206-.15l4.14 3.007-.588.81L-.794.658zm4.5 2.8l4.14 3.007-.588.81-4.14-3.008z"/><path d="M3.615 2.561L8.105-.7l.587.809-4.49 3.261z"/><path d="M-.153 5.758l4.14-3.008.587.809-4.14 3.008z"/></g><g mask="url(#cr-pn-f)"><path fill="#FFF" d="M3 2V0h2v2h3v2H5v2H3V4H0V2h3z"/><path fill="#CF142B" d="M8 2.5v1H4.5V6h-1V3.5H0v-1h3.5V0h1v2.5z"/></g></g><path fill="#96877D" d="M11 2h2v2h-2z" mask="url(#cr-flag-PN-b)"/><g stroke="#000" stroke-opacity=".1" mask="url(#cr-flag-PN-b)"><path d="M.5.5h15v11H.5z" style="mix-blend-mode:multiply"/></g></g></svg>