<svg xmlns="http://www.w3.org/2000/svg" xmlns:xlink="http://www.w3.org/1999/xlink" viewBox="0 0 16 12"><defs><rect id="cr-flag-ST-a" width="16" height="12" rx="1"/></defs><g fill="none" fill-rule="evenodd"><mask id="cr-flag-ST-b" fill="#fff"><use xlink:href="#cr-flag-ST-a"/></mask><use fill="#FFF" xlink:href="#cr-flag-ST-a"/><path fill="#12AD2B" d="M0 0h16v12H0z" mask="url(#cr-flag-ST-b)"/><path fill="#FFCE00" d="M0 4h16v4H0z" mask="url(#cr-flag-ST-b)"/><path fill="#D21034" d="M0 0l4 6-4 6z" mask="url(#cr-flag-ST-b)"/><path fill="#000" d="M7.5 6.692l-.927.661.342-1.086L6 5.59l1.138-.01L7.5 4.5l.362 1.08L9 5.59l-.915.677.342 1.086zm5 0l-.927.661.342-1.086L11 5.59l1.138-.01.362-1.08.362 1.08L14 5.59l-.915.677.342 1.086z" mask="url(#cr-flag-ST-b)"/><g stroke="#000" stroke-opacity=".1" mask="url(#cr-flag-ST-b)"><path d="M.5.5h15v11H.5z" style="mix-blend-mode:multiply"/></g></g></svg>