<svg xmlns="http://www.w3.org/2000/svg" xmlns:xlink="http://www.w3.org/1999/xlink" viewBox="0 0 16 12"><defs><rect id="cr-flag-SZ-a" width="16" height="12" rx="1"/><path id="cr-flag-SZ-c" d="M5 .5C7.761.5 9.36 3 10 3c-.717 0-2.239 2.5-5 2.5S.717 3 0 3C.64 3 2.239.5 5 .5z"/></defs><g fill="none" fill-rule="evenodd"><mask id="cr-flag-SZ-b" fill="#fff"><use xlink:href="#cr-flag-SZ-a"/></mask><use fill="#FFF" xlink:href="#cr-flag-SZ-a"/><path fill="#3E5EB9" d="M0 0h16v12H0z" mask="url(#cr-flag-SZ-b)"/><path fill="#FFD900" d="M0 2.28h16v7.44H0z" mask="url(#cr-flag-SZ-b)"/><path fill="#B10C0C" d="M0 3h16v6H0z" mask="url(#cr-flag-SZ-b)"/><path fill="#FFD900" d="M2 5.75h12v.5H2zm1.5-1h9v.5h-9zm1-1h9v.5h-9z" mask="url(#cr-flag-SZ-b)"/><g mask="url(#cr-flag-SZ-b)"><g transform="translate(3 3)"><mask id="cr-flag-SZ-d" fill="#fff"><use xlink:href="#cr-flag-SZ-c"/></mask><use fill="#FFF" xlink:href="#cr-flag-SZ-c"/><path fill="#000" d="M5.134.244c-.308.385-.23 1.077-.308 1.27-.077.192 0 .423.154.576.154.154.539-.384.539.424 0 .807-.362.576-.362.807 0 .231.323.5-.177.5-.333 0-.551.116-.654.346v.231c0 .116.731.154.808.308.051.102-.24.233-.872.39.92-.067 1.264.104 1.033.515-.346.615-.276.056-.969.095-.461.025-1.32-.064-2.577-.27l-2.346-.73V2.09L1.75.552C4.211.09 5.34-.012 5.134.244z" mask="url(#cr-flag-SZ-d)"/><path fill="#FFF" d="M2 2.25h2v.5H2v-.5zm0 1h2v.5H2v-.5z" mask="url(#cr-flag-SZ-d)"/><path fill="#000" d="M6 2.25h2v.5H6v-.5zm0 1h2v.5H6v-.5z" mask="url(#cr-flag-SZ-d)"/></g></g><circle cx="2.5" cy="6.5" r="1" fill="#3D5DA7" mask="url(#cr-flag-SZ-b)"/><circle cx="7.112" cy="4.051" r="1" fill="#3D5DA7" mask="url(#cr-flag-SZ-b)"/><circle cx="13.255" cy="6.5" r="1" fill="#3D5DA7" mask="url(#cr-flag-SZ-b)"/><g stroke="#000" stroke-opacity=".1" mask="url(#cr-flag-SZ-b)"><path d="M.5.5h15v11H.5z" style="mix-blend-mode:multiply"/></g></g></svg>