<svg xmlns="http://www.w3.org/2000/svg" xmlns:xlink="http://www.w3.org/1999/xlink" viewBox="0 0 16 12"><defs><rect id="cr-flag-TC-a" width="16" height="12" rx="1"/><path id="cr-flag-TC-c" d="M10 3h4v4l-2 2-2-2z"/><path id="cr-flag-TC-d" d="M0 0h8v6H0z"/></defs><g fill="none" fill-rule="evenodd"><mask id="cr-flag-TC-b" fill="#fff"><use xlink:href="#cr-flag-TC-a"/></mask><use fill="#FFF" xlink:href="#cr-flag-TC-a"/><path fill="#FFF" d="M0 0h16v12H0z" mask="url(#cr-flag-TC-b)"/><path fill="#00247D" d="M0 0h16v12H0z" mask="url(#cr-flag-TC-b)"/><g mask="url(#cr-flag-TC-b)"><use fill="#FDC300" xlink:href="#cr-flag-TC-c"/><path stroke="#FFF" stroke-width=".5" d="M10.25 3.25v3.646L12 8.646l1.75-1.75V3.25h-3.5z"/></g><path fill="#2D9C4B" d="M11.5 6.5h1v1h-1z" mask="url(#cr-flag-TC-b)"/><path fill="#FF927F" d="M10.5 4.5h1v1h-1z" mask="url(#cr-flag-TC-b)"/><path fill="#B95A1E" d="M12.5 4.5h1v1h-1z" mask="url(#cr-flag-TC-b)"/><g mask="url(#cr-flag-TC-b)"><mask id="cr-flag-TC-e" fill="#fff"><use xlink:href="#cr-flag-TC-d"/></mask><use fill="#FFF" xlink:href="#cr-flag-TC-d"/><g mask="url(#cr-flag-TC-e)"><path fill="#00247D" d="M0 0h8v6H0z"/><path fill="#FFF" d="M-.118-1l8.97 6.516L7.97 6.73-1 .213z"/><path fill="#FFF" d="M7.97-1L-1 5.517l.88 1.213L8.851.213z"/></g><g fill="#CF142B" mask="url(#cr-flag-TC-e)"><path d="M-.206-.15l4.14 3.007-.588.81L-.794.658zm4.5 2.8l4.14 3.007-.588.81-4.14-3.008z"/><path d="M3.615 2.561L8.105-.7l.587.809-4.49 3.261z"/><path d="M-.153 5.758l4.14-3.008.587.809-4.14 3.008z"/></g><g mask="url(#cr-flag-TC-e)"><path fill="#FFF" d="M3 2V0h2v2h3v2H5v2H3V4H0V2h3z"/><path fill="#CF142B" d="M8 2.5v1H4.5V6h-1V3.5H0v-1h3.5V0h1v2.5z"/></g></g><g stroke="#000" stroke-opacity=".1" mask="url(#cr-flag-TC-b)"><path d="M.5.5h15v11H.5z" style="mix-blend-mode:multiply"/></g></g></svg>