<svg xmlns="http://www.w3.org/2000/svg" xmlns:xlink="http://www.w3.org/1999/xlink" viewBox="0 0 16 12"><defs><rect id="cr-flag-TF-a" width="16" height="12" rx="1"/><path id="cr-flag-TF-c" d="M0 0h8v6H0z"/></defs><g fill="none" fill-rule="evenodd"><mask id="cr-flag-TF-b" fill="#fff"><use xlink:href="#cr-flag-TF-a"/></mask><use fill="#FFF" xlink:href="#cr-flag-TF-a"/><path fill="#002395" d="M0 0h16v12H0z" mask="url(#cr-flag-TF-b)"/><g mask="url(#cr-flag-TF-b)"><mask id="cr-flag-TF-d" fill="#fff"><use xlink:href="#cr-flag-TF-c"/></mask><use fill="#FFF" xlink:href="#cr-flag-TF-c"/><path fill="#ED2939" d="M5.5 0H8v6H5.5z" mask="url(#cr-flag-TF-d)"/><path fill="#FFF" d="M2.5 0h3v6h-3z" mask="url(#cr-flag-TF-d)"/><path fill="#002395" d="M0 0h2.5v6H0z" mask="url(#cr-flag-TF-d)"/></g><g fill="#FFF" mask="url(#cr-flag-TF-b)"><path d="M9 6h1v1H9zm6 0h1v1h-1zm-1 4h1v1h-1zm-4 0h1v1h-1zm2 1h1v1h-1z"/></g><path fill="#FFF" d="M13 8v2l-.5.5-.5-.5V6h-2V5h5v1h-2v1h1v1h-1zm-2 0l1 2h-2l1-2zm3 0l1 2h-2l1-2z" mask="url(#cr-flag-TF-b)"/><g stroke="#000" stroke-opacity=".1" mask="url(#cr-flag-TF-b)"><path d="M.5.5h15v11H.5z" style="mix-blend-mode:multiply"/></g></g></svg>