<svg xmlns="http://www.w3.org/2000/svg" xmlns:xlink="http://www.w3.org/1999/xlink" viewBox="0 0 16 12"><defs><rect id="cr-flag-US-a" width="16" height="12" rx="1"/></defs><g fill="none" fill-rule="evenodd"><mask id="cr-flag-US-b" fill="#fff"><use xlink:href="#cr-flag-US-a"/></mask><use fill="#FFF" xlink:href="#cr-flag-US-a"/><path fill="#B22234" d="M0 0h16v12H0z" mask="url(#cr-flag-US-b)"/><g mask="url(#cr-flag-US-b)"><path fill="#3C3B6E" d="M0 0h7v7H0z"/><path fill="#FFF" d="M1 1h1v1H1zm2 0h1v1H3zm2 0h1v1H5zm0 2h1v1H5zM3 3h1v1H3zM1 3h1v1H1zm4 2h1v1H5zM3 5h1v1H3zM1 5h1v1H1z"/></g><g fill="#FFF" mask="url(#cr-flag-US-b)"><path d="M7 1h9v1H7zm0 2h9v1H7zm0 2h9v1H7zM-3 7h19v1H-3zm0 4h19v1H-3zm0-2h19v1H-3z"/></g><g stroke="#000" stroke-opacity=".1" mask="url(#cr-flag-US-b)"><path d="M.5.5h15v11H.5z" style="mix-blend-mode:multiply"/></g></g></svg>