<svg xmlns="http://www.w3.org/2000/svg" xmlns:xlink="http://www.w3.org/1999/xlink" viewBox="0 0 16 12"><defs><rect id="cr-flag-YT-a" width="16" height="12" rx="1"/></defs><g fill="none" fill-rule="evenodd"><mask id="cr-flag-YT-b" fill="#fff"><use xlink:href="#cr-flag-YT-a"/></mask><use fill="#FFF" xlink:href="#cr-flag-YT-a"/><path fill="#FFF" d="M0 0h16v12H0z" mask="url(#cr-flag-YT-b)"/><path fill="#F00" d="M4.859 1.554V3h-.237v-.934c0-.037.001-.078.006-.121l-.438.821a.101.101 0 0 1-.095.059h-.037a.101.101 0 0 1-.095-.059l-.442-.824a2.309 2.309 0 0 1 .006.124V3h-.236V1.554h.203l.03.001c.01 0 .017.002.024.005a.051.051 0 0 1 .019.013.111.111 0 0 1 .016.024l.433.803a.858.858 0 0 1 .06.136 1.595 1.595 0 0 1 .062-.138l.426-.801a.101.101 0 0 1 .018-.024.056.056 0 0 1 .019-.013.084.084 0 0 1 .024-.005.412.412 0 0 1 .03-.001h.204zm1.085.9l-.175-.481a2.476 2.476 0 0 1-.055-.171 1.802 1.802 0 0 1-.054.173l-.176.479h.46zM6.42 3h-.208a.089.089 0 0 1-.058-.018.109.109 0 0 1-.032-.043l-.109-.295h-.598l-.109.295a.096.096 0 0 1-.03.042.087.087 0 0 1-.058.019h-.21l.57-1.446h.273L6.42 3zm.77-.56V3h-.268v-.56l-.526-.886h.237c.023 0 .041.006.055.017a.143.143 0 0 1 .035.043l.264.483a1.526 1.526 0 0 1 .072.157.898.898 0 0 1 .069-.157l.263-.483a.134.134 0 0 1 .032-.041.083.083 0 0 1 .056-.019h.239l-.527.886zm2.054-.163a.808.808 0 0 1-.052.294.675.675 0 0 1-.38.389.782.782 0 0 1-.3.056.78.78 0 0 1-.299-.055.68.68 0 0 1-.38-.39.801.801 0 0 1-.054-.294c0-.106.018-.204.053-.295a.68.68 0 0 1 .381-.389.78.78 0 0 1 .3-.055c.073 0 .142.008.207.025a.658.658 0 0 1 .433.334c.03.055.052.114.068.178a.847.847 0 0 1 .024.202zm-.274 0a.65.65 0 0 0-.033-.214.458.458 0 0 0-.09-.16.39.39 0 0 0-.144-.101.494.494 0 0 0-.19-.035.494.494 0 0 0-.191.035.394.394 0 0 0-.144.101.453.453 0 0 0-.092.16.664.664 0 0 0-.031.214c0 .08.01.15.031.213a.448.448 0 0 0 .092.16c.04.044.088.078.144.101.056.023.12.035.19.035a.5.5 0 0 0 .191-.035.392.392 0 0 0 .144-.1.452.452 0 0 0 .09-.16.664.664 0 0 0 .033-.214zm1.521-.502h-.435V3h-.27V1.775h-.435v-.221h1.14v.221zm1.2 0h-.436V3h-.269V1.775h-.436v-.221h1.141v.221zm.46-.007v.401h.507v.207h-.506v.409h.642V3h-.912V1.554h.912v.214h-.643z" mask="url(#cr-flag-YT-b)"/><path fill="#00009C" d="M6 5h4v2H6z" mask="url(#cr-flag-YT-b)"/><path fill="#F00" d="M6 7h4v2H6z" mask="url(#cr-flag-YT-b)"/><path fill="#D8D8D8" fill-rule="nonzero" d="M4.268 9.295l-.811-.17-.205.979 1.913.4.178-2.028-2.102-1.967 1.038-1.29.7 1.117.847-.531L4.38 3.498 1.881 6.605l2.424 2.269z" mask="url(#cr-flag-YT-b)"/><path fill="#D8D8D8" fill-rule="nonzero" d="M12.387 9.295l-.811-.17-.205.979 1.914.4.177-2.028-2.101-1.967 1.037-1.29.7 1.117.847-.531L12.5 3.498 10 6.605l2.424 2.269z" mask="url(#cr-flag-YT-b)" transform="matrix(-1 0 0 1 23.945 0)"/><g stroke="#000" stroke-opacity=".1" mask="url(#cr-flag-YT-b)"><path d="M.5.5h15v11H.5z" style="mix-blend-mode:multiply"/></g></g></svg>