<svg xmlns="http://www.w3.org/2000/svg" xmlns:xlink="http://www.w3.org/1999/xlink" viewBox="0 0 16 12"><defs><rect id="cr-flag-ZA-a" width="16" height="12" rx="1"/><path id="cr-flag-ZA-c" d="M8.268 7.333H16V4.667H8.268L.414-1.445-.919.865 5.244 6l-6.163 5.135 1.333 2.31z"/></defs><g fill="none" fill-rule="evenodd"><mask id="cr-flag-ZA-b" fill="#fff"><use xlink:href="#cr-flag-ZA-a"/></mask><use fill="#BB7474" xlink:href="#cr-flag-ZA-a"/><path fill="#002395" d="M0 0h16v12H0z" mask="url(#cr-flag-ZA-b)"/><path fill="#DE3831" d="M0 0h16v4H0z" mask="url(#cr-flag-ZA-b)"/><g mask="url(#cr-flag-ZA-b)"><use fill="#007A4D" xlink:href="#cr-flag-ZA-c"/><path stroke="#FFF" stroke-width=".67" d="M8.383 7.668L.316 13.945-1.35 11.06 4.72 6-1.35.941.316-1.945l8.067 6.277h7.952v3.336H8.383z"/></g><path fill="#FFB612" d="M-.67 1.024L5.277 6-.67 10.976z" mask="url(#cr-flag-ZA-b)"/><path fill="#000" fill-rule="nonzero" d="M0 2.458v7.084L4.233 6z" mask="url(#cr-flag-ZA-b)"/><g stroke="#000" stroke-opacity=".1" mask="url(#cr-flag-ZA-b)"><path d="M.5.5h15v11H.5z" style="mix-blend-mode:multiply"/></g></g></svg>