<svg xmlns="http://www.w3.org/2000/svg" xmlns:xlink="http://www.w3.org/1999/xlink" viewBox="0 0 16 12"><defs><rect id="cr-flag-ZM-a" width="16" height="12" rx="1"/></defs><g fill="none" fill-rule="evenodd"><mask id="cr-flag-ZM-b" fill="#fff"><use xlink:href="#cr-flag-ZM-a"/></mask><use fill="#FFF" xlink:href="#cr-flag-ZM-a"/><path fill="#198A00" d="M0 0h16v12H0z" mask="url(#cr-flag-ZM-b)"/><path fill="#DE2010" d="M10 4.32h6V12h-6z" mask="url(#cr-flag-ZM-b)"/><path fill="#EF7D00" d="M14 4.32h2V12h-2z" mask="url(#cr-flag-ZM-b)"/><path fill="#000" d="M12 4.32h2V12h-2z" mask="url(#cr-flag-ZM-b)"/><path fill="#EF7D00" fill-rule="nonzero" d="M12.977 3.479l.78-1.039h1.854v-1h-2.355l-.614.819.838.059-.34-.619-.438.241h.5V.817h-.5c-.246 0-.314.06-.495.275a6.33 6.33 0 0 0-.18.232c-.017.02-.017.02-.033.042a3.51 3.51 0 0 1-.06.074h-1.46v1h1.634a.602.602 0 0 0 .272-.048l.597 1.087z" mask="url(#cr-flag-ZM-b)"/><g stroke="#000" stroke-opacity=".1" mask="url(#cr-flag-ZM-b)"><path d="M.5.5h15v11H.5z" style="mix-blend-mode:multiply"/></g></g></svg>