<svg xmlns="http://www.w3.org/2000/svg" viewBox="0 0 16 16"><g id="delete"><path id="base-1" d="M5 3V1a1 1 0 0 1 1-1h4a1 1 0 0 1 1 1v2h2.5a.5.5 0 0 1 .5.5v1a.5.5 0 0 1-.5.5h-11a.5.5 0 0 1-.5-.5v-1a.5.5 0 0 1 .5-.5H5zm2.5-1a.5.5 0 0 0-.5.5V3h2v-.5a.5.5 0 0 0-.5-.5h-1zM3.25 6h9.5a.25.25 0 0 1 .25.25V15a1 1 0 0 1-1 1H4a1 1 0 0 1-1-1V6.25A.25.25 0 0 1 3.25 6zM6.5 8a.5.5 0 0 0-.5.5v5a.5.5 0 1 0 1 0v-5a.5.5 0 0 0-.5-.5zm3 0a.5.5 0 0 0-.5.5v5a.5.5 0 1 0 1 0v-5a.5.5 0 0 0-.5-.5z"/><path id="details-1" d="M6.5 8a.5.5 0 0 1 .5.5v5a.5.5 0 1 1-1 0v-5a.5.5 0 0 1 .5-.5zm3 0a.5.5 0 0 1 .5.5v5a.5.5 0 1 1-1 0v-5a.5.5 0 0 1 .5-.5z" fill="none"/></g></svg>