<svg xmlns="http://www.w3.org/2000/svg" viewBox="0 0 16 16"><g id="returns"><path id="base-1" d="M0 3.303a1 1 0 0 1 .168-.555L1.703.445A1 1 0 0 1 2.535 0h10.93a1 1 0 0 1 .832.445l1.535 2.303a1 1 0 0 1 .168.555v.447a.25.25 0 0 1-.25.25H.25A.25.25 0 0 1 0 3.75v-.447zM.25 6h15.5a.25.25 0 0 1 .25.25V14a2 2 0 0 1-2 2H2a2 2 0 0 1-2-2V6.25A.25.25 0 0 1 .25 6zM4 11l3.675 2.953A.2.2 0 0 0 8 13.797v-1.526c0-.11.09-.2.2-.2h3.3a.5.5 0 0 0 .5-.5V10.43a.5.5 0 0 0-.5-.5H8.2a.2.2 0 0 1-.2-.2V8.203a.2.2 0 0 0-.325-.156L4 11z"/><path id="details-1" d="M4 11l3.675 2.953A.2.2 0 0 0 8 13.797v-1.526c0-.11.09-.2.2-.2h3.3a.5.5 0 0 0 .5-.5V10.43a.5.5 0 0 0-.5-.5H8.2a.2.2 0 0 1-.2-.2V8.203a.2.2 0 0 0-.325-.156L4 11z" fill="none"/><path id="details-2" d="M7 0h2v4H7z" opacity=".7" fill="#fff"/></g></svg>