<svg xmlns="http://www.w3.org/2000/svg" viewBox="0 0 16 16"><g id="wifi"><path id="base-1" d="M8 11a2 2 0 1 1 0 4 2 2 0 0 1 0-4zm4.145-2.593c.472.471.487 1.22.034 1.673-.453.453-1.202.438-1.673-.033-1.415-1.415-3.663-1.46-5.021-.101-.453.453-1.202.438-1.674-.034-.471-.471-.486-1.22-.033-1.673 2.264-2.265 6.01-2.19 8.367.168zm3.348-3.213c.47.472.486 1.22.033 1.674-.453.453-1.202.437-1.673-.034-3.3-3.3-8.545-3.405-11.715-.235-.453.453-1.202.437-1.674-.034-.471-.471-.486-1.22-.033-1.673C4.506.816 11.25.952 15.493 5.194z"/></g></svg>