<svg xmlns="http://www.w3.org/2000/svg" viewBox="0 0 16 16"><g id="cash-fill"><g id="cash"><path id="base-2" d="M2 2a1 1 0 0 1 1-1h10a1 1 0 0 1 1 1H2zM1 4a1 1 0 0 1 1-1h12a1 1 0 0 1 1 1H1z" opacity=".7"/><path id="base-1" d="M1.467 5h13.066C15.326 5 16 5.611 16 6.402v7.196c0 .79-.674 1.402-1.467 1.402H1.467C.674 15 0 14.389 0 13.598V6.402C0 5.612.674 5 1.467 5zM2 6a1 1 0 0 0-1 1v1a2 2 0 0 0 2-2H2zm11 0a2 2 0 0 0 2 2V7a1 1 0 0 0-1-1h-1zm2 6a2 2 0 0 0-2 2h1a1 1 0 0 0 1-1v-1zM1 12v1a1 1 0 0 0 1 1h1a2 2 0 0 0-2-2z"/><path id="details-2" d="M8 13a3 3 0 1 1 0-6 3 3 0 0 1 0 6zm0-1a2 2 0 1 0 0-4 2 2 0 0 0 0 4z" opacity=".7" fill="#fff"/><path id="details-1" d="M2 6h1a2 2 0 0 1-2 2V7a1 1 0 0 1 1-1zm11 0h1a1 1 0 0 1 1 1v1a2 2 0 0 1-2-2zm2 6v1a1 1 0 0 1-1 1h-1a2 2 0 0 1 2-2zM1 12a2 2 0 0 1 2 2H2a1 1 0 0 1-1-1v-1z" fill="none"/></g></g></svg>