<svg xmlns="http://www.w3.org/2000/svg" viewBox="0 0 16 16"><g id="cc-union-pay"><path id="base-1" d="M1.5 3h13A1.5 1.5 0 0 1 16 4.5v7a1.5 1.5 0 0 1-1.5 1.5h-13A1.5 1.5 0 0 1 0 11.5v-7A1.5 1.5 0 0 1 1.5 3zm.454 1.865A7.009 7.009 0 0 1 1 7.085l.636.372c.074-.124.155-.248.229-.371v.453h.392v.695H1.25v.66h1.006V10.2c0 .123-.111.213-.318.268l.295.59a8.473 8.473 0 0 0 1.582-.515l-.125-.612a5.127 5.127 0 0 1-.71.29V8.892h.931v-.66H2.98V7.54h.687v-.646h-1.7a9.24 9.24 0 0 0 .318-.66h1.552v-.68h-1.3c.051-.172.103-.35.155-.543l-.74-.145zm5.403 3.5c-.281.308-.57.55-.865.72a3.559 3.559 0 0 1-.31-.913h1.212V5.065H4.17v5.23c0 .097-.067.159-.2.2l.163.598a16.387 16.387 0 0 0 1.996-.577l-.178-.626a8.707 8.707 0 0 1-1.057.365V8.172H5.5c.222 1.258.887 2.254 1.996 2.99l.407-.619a3.925 3.925 0 0 1-1.065-.92c.37-.193.71-.468 1.006-.812l-.488-.447zM4.895 6.94h1.796v.591H4.895v-.59zm1.796-.618H4.895V5.71h1.796v.612zm4.835-.049v.674h1.36v.254c0 .248-.015.482-.045.715h-1.434v.688h1.323c-.229.948-.717 1.643-1.463 2.069l.466.584c.768-.467 1.3-1.175 1.603-2.117.237.687.717 1.382 1.442 2.083l.532-.536c-.813-.702-1.323-1.396-1.523-2.083h1.405v-.688h-1.604c.03-.275.044-.57.044-.88v-.089h1.427v-.674h-.939c.207-.323.414-.714.62-1.168l-.716-.254a8.577 8.577 0 0 1-.665 1.422H12.5l.525-.343a8.656 8.656 0 0 0-.636-1.052l-.591.35c.266.379.48.73.643 1.045h-.916zm-3.06-1.21v.66h.369V9.74l-.407.055.185.68a48.92 48.92 0 0 0 1.715-.35v1.093h.747V9.93c.133-.034.273-.068.406-.11v-.694c-.133.041-.266.083-.406.124V5.725h.391v-.66h-3zm1.1 4.551V8.612h.762v.838l-.761.165zm0-1.65v-.783h.762v.783h-.761zm0-1.43v-.81h.762v.81h-.761z"/><path id="details-1" d="M1.954 4.865l.739.145a18.75 18.75 0 0 1-.156.543h1.301v.68H2.286a9.618 9.618 0 0 1-.318.66h1.7v.646h-.687v.695h.931v.66h-.931v1.326a5.09 5.09 0 0 0 .71-.289l.125.612a8.473 8.473 0 0 1-1.582.516l-.295-.591c.207-.055.318-.145.318-.268V8.893H1.25v-.66h1.006V7.54h-.392v-.453c-.074.123-.155.247-.23.37L1 7.087c.45-.695.769-1.437.954-2.22zm5.403 3.5l.488.446a3.418 3.418 0 0 1-1.006.811c.281.358.636.66 1.065.921l-.407.619c-1.109-.736-1.774-1.732-1.996-2.99h-.606v2.083c.355-.097.71-.22 1.057-.365l.178.626c-.532.2-1.198.392-1.996.577l-.163-.598c.133-.041.2-.103.2-.2v-5.23h3.223v3.107H6.18c.067.33.17.639.31.914a3.69 3.69 0 0 0 .866-.722zM4.895 6.94v.591h1.796v-.59H4.895zm1.796-.618V5.71H4.895v.612h1.796zm4.835-.049h.916A8.98 8.98 0 0 0 11.8 5.23l.591-.35c.274.398.488.748.636 1.05l-.525.344h.858c.258-.44.48-.914.665-1.422l.717.254a9.496 9.496 0 0 1-.621 1.168h.939v.674h-1.427v.09c0 .309-.015.604-.044.88h1.604v.687h-1.405c.2.687.71 1.381 1.523 2.083l-.532.536c-.725-.701-1.205-1.396-1.442-2.083-.303.942-.835 1.65-1.603 2.117l-.466-.584c.746-.426 1.234-1.12 1.463-2.07h-1.323v-.687h1.434c.03-.233.045-.467.045-.715v-.254h-1.36v-.674zm-3.06-1.21h3v.66h-.391V9.25c.14-.041.273-.083.406-.124v.694c-.133.042-.273.076-.406.11v1.286h-.747v-1.093a48.92 48.92 0 0 1-1.715.35l-.185-.68.407-.055V5.725h-.37v-.66zm1.1 4.551c.26-.055.51-.11.762-.165v-.838h-.761v1.003zm0-1.65h.762v-.783h-.761v.783zm0-1.43h.762v-.81h-.761v.81z" fill="none"/></g></svg>