<svg viewBox="0 0 14 16" fill="none" xmlns="http://www.w3.org/2000/svg">
	<g id="rotate-right">
		<path id="base-2" d="M10.191 3.84063L6.35034 0V2.59375C2.99722 3.00937 0.428467 5.84688 0.428467 9.29688C0.428467 12.7469 2.99722 15.5844 6.35034 16V14.2875C3.95347 13.8969 2.11909 11.7906 2.11909 9.29688C2.11909 6.80313 3.95347 4.69688 6.35034 4.30625V7.60938L10.191 3.84063ZM13.8847 8.44063C13.7625 7.46263 13.6317 6.9906 13.1552 6.29579C12.9653 6.01889 12.6087 5.91654 12.2913 6.02604V6.02604C11.8014 6.19505 11.6109 6.78691 11.819 7.26155C11.986 7.64239 12.1051 8.0382 12.1722 8.44063H13.8847ZM8.03784 14.2875V16C9.21284 15.8531 10.3628 15.3875 11.341 14.6313L10.116 13.4062C9.48159 13.8719 8.77222 14.1656 8.03784 14.2875ZM11.316 12.2312L12.516 13.4312C13.2753 12.4531 13.7378 11.3281 13.8847 10.1531H12.1722C12.0503 10.8875 11.7816 11.5969 11.316 12.2312Z" />
	</g>
</svg>
