<svg xmlns="http://www.w3.org/2000/svg" viewBox="0 0 16 16"><g id="help"><path id="base-1" d="M8 16A8 8 0 1 1 8 0a8 8 0 0 1 0 16zM5.25 6.323h1.761c.016-.52.374-.864.895-.864.508 0 .866.3.866.735 0 .472-.191.697-.927 1.126-.754.43-1.025.913-.92 1.83l.016.216h1.69v-.253c0-.504.206-.745.948-1.17.797-.455 1.171-1.003 1.171-1.797C10.75 4.858 9.677 4 8.03 4c-1.735 0-2.765.918-2.78 2.323zM7.833 12c.7 0 1.106-.36 1.106-.977 0-.622-.405-.98-1.106-.98-.697 0-1.11.358-1.11.98 0 .618.413.977 1.111.977z"/><path id="details-1" d="M5.25 6.323h1.761c.016-.52.374-.864.895-.864.508 0 .866.3.866.735 0 .472-.191.697-.927 1.126-.754.43-1.025.913-.92 1.83l.016.216h1.69v-.253c0-.504.206-.745.948-1.17.797-.455 1.171-1.003 1.171-1.797C10.75 4.858 9.677 4 8.03 4c-1.735 0-2.765.918-2.78 2.323zM7.833 12c.7 0 1.106-.36 1.106-.977 0-.622-.405-.98-1.106-.98-.697 0-1.11.358-1.11.98 0 .618.413.977 1.111.977z" fill="none"/><path id="details-2" d="M8 14A6 6 0 1 0 8 2a6 6 0 0 0 0 12zm0 1A7 7 0 1 1 8 1a7 7 0 0 1 0 14z" opacity=".7" fill="#fff"/></g></svg>