<svg xmlns="http://www.w3.org/2000/svg" viewBox="0 0 16 16"><g id="blogs"><path id="base-1" d="M3 3h7a2 2 0 0 1 2 2v9a2 2 0 0 1-2 2H3a2 2 0 0 1-2-2V5a2 2 0 0 1 2-2zm.5 2a.5.5 0 0 0-.5.5v2a.5.5 0 0 0 .5.5h6a.5.5 0 0 0 .5-.5v-2a.5.5 0 0 0-.5-.5h-6z"/><path id="details-1" d="M3.5 5h6a.5.5 0 0 1 .5.5v2a.5.5 0 0 1-.5.5h-6a.5.5 0 0 1-.5-.5v-2a.5.5 0 0 1 .5-.5z" fill="none"/><path id="base-1" d="M4 6.25v.5c0 .138.112.25.25.25h4.5A.25.25 0 0 0 9 6.75v-.5A.25.25 0 0 0 8.75 6h-4.5a.25.25 0 0 0-.25.25z"/><path id="details-2" d="M4 9h5a1 1 0 1 1 0 2H4a1 1 0 0 1 0-2zm0 3h5a1 1 0 0 1 0 2H4a1 1 0 0 1 0-2z" opacity=".7" fill="#fff"/><path id="base-2" d="M13 13V4a2 2 0 0 0-2-2H5a2 2 0 0 1 2-2h6a2 2 0 0 1 2 2v9a2 2 0 0 1-2 2z" opacity=".7"/></g></svg>