<svg xmlns="http://www.w3.org/2000/svg" viewBox="0 0 16 16"><g id="lock-closed"><path id="base-1" d="M4.015 6h7.97c1.105 0 2.005.895 2.005 2v6c0 1.113-.898 2-2.005 2h-7.97a2.004 2.004 0 0 1-2.005-2V8c0-1.113.898-2 2.005-2zm2.124 6.792c-.077.116-.024.209.111.209h3.5c.138 0 .184-.098.111-.209L9 11.5v-1.498a.999.999 0 1 0-2 0V11.5l-.861 1.292z"/><path id="details-1" d="M6.139 12.792c-.077.116-.024.209.111.209h3.5c.138 0 .184-.098.111-.209L9 11.5v-1.498a1 1 0 0 0-2 0V11.5l-.861 1.292z" fill="none"/><path id="base-2" d="M4 6V4s0-4 4-4 4 4 4 4v2h-2V4c0-1.105-.888-2-2-2-1.105 0-2 .888-2 2v2H4z" opacity=".7"/></g></svg>