<svg xmlns="http://www.w3.org/2000/svg" viewBox="0 0 16 16"><g id="Icons" fill-rule="evenodd"><g id="plan"><path id="base-1" d="M9.01.279l4.98 2.96A2.092 2.092 0 0 1 15 5.04v5.92c0 .743-.385 1.43-1.01 1.802l-4.98 2.96a1.97 1.97 0 0 1-2.02 0l-4.98-2.96A2.092 2.092 0 0 1 1 10.96V5.04c0-.743.385-1.43 1.01-1.802L6.99.278a1.97 1.97 0 0 1 2.02 0zM8.551 3a.229.229 0 0 0-.227.23v.923a.23.23 0 0 1-.227.23H6.183C4.425 4.384 3 5.83 3 7.614v.5c0 .255.074.887.61.887.668 0 1.147-.634 1.209-1.388l.017-.14c.115-.69.64-1.243 1.347-1.243h1.914a.23.23 0 0 1 .227.23v.923c0 .057.02.112.058.154a.225.225 0 0 0 .321.017l2.261-2.163a.116.116 0 0 0 .005-.163l-.005-.005-2.26-2.163A.225.225 0 0 0 8.55 3z"/><path id="details-2" d="M5.61 13c-.536 0-.61-.632-.61-.887v-.5c0-1.784 1.425-3.23 3.183-3.23h1.914a.23.23 0 0 0 .227-.23v-.922c0-.128.102-.231.227-.231.056 0 .11.021.152.06l2.261 2.162a.116.116 0 0 1 0 .168l-2.26 2.163a.225.225 0 0 1-.322-.017.233.233 0 0 1-.058-.154v-.923a.23.23 0 0 0-.227-.23H8.183c-.753 0-1.302.63-1.364 1.383C6.757 12.366 6.278 13 5.611 13z" opacity=".7" transform="rotate(180 9 10)" fill="#fff"/><path id="details-1" d="M3.61 9C3.075 9 3 8.368 3 8.113v-.5c0-1.784 1.425-3.23 3.183-3.23h1.914a.23.23 0 0 0 .227-.23v-.922c0-.128.102-.231.227-.231.056 0 .11.021.152.06l2.261 2.162a.116.116 0 0 1 0 .168l-2.26 2.163a.225.225 0 0 1-.322-.017.233.233 0 0 1-.058-.154v-.923a.23.23 0 0 0-.227-.23H6.183c-.753 0-1.302.63-1.364 1.383C4.757 8.366 4.278 9 3.611 9z" fill="none"/></g></g></svg>