<svg xmlns="http://www.w3.org/2000/svg" viewBox="0 0 16 16"><g id="apps-purchased"><path id="base-1" d="M1 0h5a1 1 0 0 1 1 1v5a1 1 0 0 1-1 1H1a1 1 0 0 1-1-1V1a1 1 0 0 1 1-1zm0 9h5a1 1 0 0 1 1 1v5a1 1 0 0 1-1 1H1a1 1 0 0 1-1-1v-5a1 1 0 0 1 1-1zm9-9h5a1 1 0 0 1 1 1v5a1 1 0 0 1-1 1h-5a1 1 0 0 1-1-1V1a1 1 0 0 1 1-1z"/><path id="base-2" d="M10.984 15.15a.846.846 0 0 0 1.27-.043l3.033-3.618a.923.923 0 0 0-.085-1.268.846.846 0 0 0-1.223.088L11.6 13.147l-1.118-1.076a.845.845 0 0 0-1.226-.006.923.923 0 0 0-.006 1.272l1.733 1.813z" opacity=".7"/></g></svg>