<svg viewBox="0 0 16 16" fill="none" xmlns="http://www.w3.org/2000/svg">
	<g id="align-left">
		<path id="base-1" d="M14.8571 0C15.4883 0 16 0.511675 16 1.14286C16 1.77404 15.4883 2.28571 14.8571 2.28571H1.14286C0.511675 2.28571 0 1.77404 0 1.14286C0 0.511675 0.511674 0 1.14286 0H14.8571ZM14.8571 9.14286C15.4883 9.14286 16 9.65454 16 10.2857C16 10.9169 15.4883 11.4286 14.8571 11.4286H4.14286C3.51167 11.4286 3 10.9169 3 10.2857C3 9.65454 3.51167 9.14286 4.14286 9.14286H14.8571Z" fill="#232429" />
		<path id="base-2" d="M14.8571 4.57141C15.4883 4.57141 16 5.08309 16 5.71427C16 6.34545 15.4883 6.85713 14.8571 6.85713H8.14286C7.51167 6.85713 7 6.34545 7 5.71427C7 5.08309 7.51167 4.57141 8.14286 4.57141H14.8571ZM14.8571 13.7143C15.4883 13.7143 16 14.2259 16 14.8571C16 15.4883 15.4883 16 14.8571 16H8.14286C7.51167 16 7 15.4883 7 14.8571C7 14.2259 7.51167 13.7143 8.14286 13.7143H14.8571Z" fill="#232429" />
	</g>
</svg>
