<svg xmlns="http://www.w3.org/2000/svg" viewBox="0 0 16 16"><g id="item-outline"><path id="base-1" d="M9.01.279l4.98 2.96A2.092 2.092 0 0 1 15 5.04v5.92c0 .743-.385 1.43-1.01 1.802l-4.98 2.96a1.97 1.97 0 0 1-2.02 0l-4.98-2.96A2.092 2.092 0 0 1 1 10.96V5.04c0-.743.385-1.43 1.01-1.802L6.99.278a1.97 1.97 0 0 1 2.02 0zm-.505.9a.985.985 0 0 0-1.01 0l-4.98 2.96c-.312.186-.505.53-.505.901v5.92c0 .371.193.715.506.9l4.979 2.96a.985.985 0 0 0 1.01 0l4.98-2.96c.312-.185.505-.529.505-.9V5.04c0-.371-.193-.715-.506-.9L8.505 1.18z"/><path id="base-2" d="M8 7.207l3.76-2.143a.491.491 0 0 1 .678.205.528.528 0 0 1-.197.704l-3.74 2.132v4.877a.51.51 0 0 1-.5.518.51.51 0 0 1-.5-.518V8.105L3.758 5.973a.528.528 0 0 1-.197-.704.491.491 0 0 1 .68-.205L8 7.207z" opacity=".7"/></g></svg>