<svg xmlns="http://www.w3.org/2000/svg" viewBox="0 0 16 16"><g id="cheque"><path id="base-2" d="M1 4h9v8H1a1 1 0 0 1-1-1V5a1 1 0 0 1 1-1zm13 0h1a1 1 0 0 1 1 1v6a1 1 0 0 1-1 1h-1V4zM2.5 7a.5.5 0 0 0 0 1h3a.5.5 0 0 0 0-1h-3zm0 2a.5.5 0 0 0 0 1h5a.5.5 0 0 0 0-1h-5z" opacity=".7"/><path id="base-1" d="M12.845 14.37l-.621 1.488a.247.247 0 0 1-.448 0l-.621-1.488a2 2 0 0 1-.155-.771v-11.6h2v11.6a2 2 0 0 1-.155.771zM11.5 0h1a.5.5 0 0 1 .5.5V1h-2V.5a.5.5 0 0 1 .5-.5z"/><path id="details-1" d="M2.5 7h3a.5.5 0 0 1 0 1h-3a.5.5 0 0 1 0-1zm0 2h5a.5.5 0 0 1 0 1h-5a.5.5 0 0 1 0-1z" fill="none"/></g></svg>