<svg xmlns="http://www.w3.org/2000/svg" viewBox="0 0 16 16">
  <g id="info">
    <path id="base-1" fill-rule="evenodd" clip-rule="evenodd" d="M8 14C11.3137 14 14 11.3137 14 8C14 4.68629 11.3137 2 8 2C4.68629 2 2 4.68629 2 8C2 11.3137 4.68629 14 8 14ZM8 16C12.4183 16 16 12.4183 16 8C16 3.58172 12.4183 0 8 0C3.58172 0 0 3.58172 0 8C0 12.4183 3.58172 16 8 16Z" />
    <path id="details-1" fill-rule="evenodd" clip-rule="evenodd" d="M9 6.796V11.996H7V6.796H9ZM9.06 5.00552C9.06 5.14181 9.03166 5.2698 8.97498 5.3895C8.91829 5.50921 8.84082 5.61418 8.74257 5.70442C8.64432 5.79466 8.53 5.86648 8.39963 5.91989C8.26925 5.9733 8.13038 6 7.983 6C7.8394 6 7.70524 5.9733 7.58054 5.91989C7.45583 5.86648 7.3453 5.79466 7.24893 5.70442C7.15257 5.61418 7.07699 5.50921 7.02219 5.3895C6.9674 5.2698 6.94 5.14181 6.94 5.00552C6.94 4.86556 6.9674 4.73481 7.02219 4.61326C7.07699 4.49171 7.15257 4.3849 7.24893 4.29282C7.3453 4.20074 7.45583 4.12891 7.58054 4.07735C7.70524 4.02578 7.8394 4 7.983 4C8.13038 4 8.26925 4.02578 8.39963 4.07735C8.53 4.12891 8.64432 4.20074 8.74257 4.29282C8.84082 4.3849 8.91829 4.49171 8.97498 4.61326C9.03166 4.73481 9.06 4.86556 9.06 5.00552Z" />
  </g>
</svg>
