<svg xmlns="http://www.w3.org/2000/svg" viewBox="0 0 16 16"><g id="hardware"><path id="base-2" d="M15.5 11a.5.5 0 0 1 .5.5V16h-2v-3a1 1 0 0 0-1-1h-3v-.5a.5.5 0 0 1 .5-.5h5z" opacity=".7"/><path id="base-1" d="M12.5 13a.5.5 0 0 1 .5.5v2a.5.5 0 0 1-.5.5H.5a.5.5 0 0 1-.5-.5v-2a.5.5 0 0 1 .5-.5h12zm-6 1a.5.5 0 1 0 0 1 .5.5 0 0 0 0-1zm5 0h-1a.5.5 0 0 0-.09.992l.09.008h1a.5.5 0 1 0 0-1zm-9 0h-1a.5.5 0 0 0-.09.992L1.5 15h1a.5.5 0 1 0 0-1zM12 0a1 1 0 0 1 1 1v7a1 1 0 0 1-1 1H9v3H4V9H1a1 1 0 0 1-1-1V1a1 1 0 0 1 1-1h11zm0 1H1v7h11V1z"/></g></svg>