<svg xmlns="http://www.w3.org/2000/svg" viewBox="0 0 16 16"><g id="faq"><path id="base-1" d="M9.528 14H2.997A3.003 3.003 0 0 1 0 11.005v-8.01A3.003 3.003 0 0 1 3.002 0h9.996A3.007 3.007 0 0 1 16 3.002V14a2 2 0 0 1-2.894 1.789L9.528 14zM7.29 7.896v.481h1.657V8.06c0-.124.03-.248.089-.371.059-.124.173-.252.342-.383.266-.204.485-.392.658-.563a2.97 2.97 0 0 0 .42-.508c.107-.168.182-.337.227-.508a2.31 2.31 0 0 0 .066-.574c0-.35-.066-.66-.199-.929a1.962 1.962 0 0 0-.542-.678 2.357 2.357 0 0 0-.79-.41A3.259 3.259 0 0 0 8.263 3c-.774 0-1.407.202-1.9.607-.495.404-.782.992-.863 1.765l1.702.109a1.1 1.1 0 0 1 .304-.689c.18-.19.444-.284.79-.284a.83.83 0 0 1 .57.202c.15.135.226.323.226.563a.664.664 0 0 1-.105.355c-.07.113-.168.234-.293.361a6.475 6.475 0 0 1-.447.41 12.41 12.41 0 0 0-.57.514c-.14.13-.24.273-.298.426a1.555 1.555 0 0 0-.088.557zm-.188 2.099a1.013 1.013 0 0 0 .293.715 1.045 1.045 0 0 0 .724.29 1.045 1.045 0 0 0 .723-.29 1.013 1.013 0 0 0 .293-.716 1.013 1.013 0 0 0-.293-.715 1.045 1.045 0 0 0-.724-.29 1.045 1.045 0 0 0-.723.29 1.013 1.013 0 0 0-.293.716z"/><path id="details-1" d="M7.29 7.896c0-.218.03-.404.089-.557.059-.153.158-.295.298-.426.207-.197.396-.368.57-.514.173-.146.322-.282.447-.41.125-.127.223-.248.293-.36a.664.664 0 0 0 .105-.356c0-.24-.075-.428-.226-.563a.823.823 0 0 0-.57-.202c-.346 0-.61.095-.79.284-.18.19-.282.42-.304.689L5.5 5.37c.081-.772.368-1.36.862-1.764C6.856 3.202 7.49 3 8.263 3c.34 0 .658.046.956.137.299.09.562.227.79.41.229.182.41.407.542.677.133.27.199.58.199.929 0 .211-.022.403-.066.574-.045.171-.12.34-.227.508a2.97 2.97 0 0 1-.42.508 7.102 7.102 0 0 1-.658.563c-.169.131-.283.259-.342.383a.858.858 0 0 0-.089.371v.317H7.291v-.48zm-.187 2.099a1.013 1.013 0 0 1 .293-.716 1.045 1.045 0 0 1 .724-.29 1.045 1.045 0 0 1 .723.29 1.013 1.013 0 0 1 .293.716 1.013 1.013 0 0 1-.293.715 1.045 1.045 0 0 1-.724.29 1.045 1.045 0 0 1-.723-.29 1.013 1.013 0 0 1-.293-.716z" fill="none"/></g></svg>