<svg xmlns="http://www.w3.org/2000/svg" viewBox="0 0 16 16"><g id="apple"><path id="base-1" d="M13.748 11.819c-.215.504-.47.967-.765 1.393-.403.581-.733.983-.987 1.207-.394.366-.816.554-1.268.565-.325 0-.716-.094-1.171-.283-.458-.189-.878-.282-1.262-.282-.402 0-.834.093-1.296.282-.463.19-.836.288-1.12.298-.434.018-.866-.175-1.297-.58-.276-.243-.62-.66-1.032-1.25a8.678 8.678 0 0 1-1.092-2.193C2.153 10.077 2 9.206 2 8.363c0-.966.206-1.8.62-2.497a3.656 3.656 0 0 1 1.297-1.328 3.46 3.46 0 0 1 1.754-.501c.345 0 .796.108 1.357.32.56.212.919.32 1.076.32.118 0 .517-.126 1.194-.378.64-.233 1.18-.329 1.622-.291 1.198.098 2.099.576 2.697 1.437-1.071.657-1.602 1.578-1.591 2.758.01.92.34 1.685.987 2.293.294.282.622.5.987.655a11.5 11.5 0 0 1-.252.668zM11 .338c0 .845-.26 1.633-.779 2.364-.626.867-1.383 1.369-2.204 1.29A3.113 3.113 0 0 1 8 3.672c0-.811.298-1.68.826-2.389.264-.36.6-.658 1.007-.896.406-.235.79-.365 1.152-.387.01.113.015.226.015.338z"/></g></svg>