<svg xmlns="http://www.w3.org/2000/svg" viewBox="0 0 16 16"><g id="content"><path id="base-1" d="M0 6h16v8a2 2 0 0 1-2 2H2a2 2 0 0 1-2-2V6zm3 2a1 1 0 1 0 0 2h10a1 1 0 0 0 0-2H3z"/><rect id="details-1" width="12" height="2" x="2" y="8" rx="1" fill="none"/><path id="base-2" d="M2 0h12a2 2 0 0 1 2 2v2H0V2a2 2 0 0 1 2-2zm0 3a1 1 0 1 0 0-2 1 1 0 0 0 0 2zm3 0a1 1 0 1 0 0-2 1 1 0 0 0 0 2zm3 0a1 1 0 1 0 0-2 1 1 0 0 0 0 2z" opacity=".7"/><path id="details-1" d="M2 3a1 1 0 1 1 0-2 1 1 0 0 1 0 2zm3 0a1 1 0 1 1 0-2 1 1 0 0 1 0 2zm3 0a1 1 0 1 1 0-2 1 1 0 0 1 0 2z" fill="none"/><rect id="details-2" width="9" height="2" x="2" y="12" opacity=".7" rx="1" fill="#fff"/></g></svg>