<svg xmlns="http://www.w3.org/2000/svg" viewBox="0 0 16 16"><g id="cc-interac"><path id="base-1" d="M14.5 3A1.5 1.5 0 0 1 16 4.5v7a1.5 1.5 0 0 1-1.5 1.5h-13A1.5 1.5 0 0 1 0 11.5v-7A1.5 1.5 0 0 1 1.5 3h13zM2.757 10.071a.486.486 0 0 0-.478.493V13l.996-.001-.008-.006a.108.108 0 0 1-.03-.075l-.003-2.353a.486.486 0 0 0-.477-.493zm.685.926v1.92l-.008.042a.107.107 0 0 1-.022.033l-.009.006h1.522v-.617l-.009-.107a.648.648 0 0 0-.269-.431l-1.205-.846zm-1.362.975l-.999.243-.008.003a.451.451 0 0 0-.073.245.431.431 0 0 0 .511.43c.056-.012.327-.077.554-.133l.015-.004v-.784zm0-1.004l-.999.244-.008.002a.453.453 0 0 0-.022.455.423.423 0 0 0 .46.22c.056-.012.327-.077.554-.133l.015-.004v-.784zm0-4.606l-.774.19v4.386l.774-.19V6.362zm1.8 1.144a1.05 1.05 0 0 0-.69.55v-.308l-.697.17.001 1.969a.695.695 0 0 1 .734.132V8.75c0-.305.147-.549.356-.596.158-.036.29.022.29.312v1.855l.734-.178V8.18c0-.476-.177-.808-.729-.674zM5.887 6.48l-.735.179v.611l-.356.087v.561l.355-.087v1.361c0 .513.078.72.104.774l.009.015.785-.192s-.162-.121-.162-.751V7.65l.519-.127v-.56l-.52.127v-.61zM8.64 7.577c.012-.661-.28-1.154-1.085-.965-.409.096-.69.307-.86.63-.144.272-.211.627-.211 1.113 0 .797.233 1.35 1.109 1.135.924-.226.998-.877 1.004-1.14l-.001-.119-.665.165s-.002.08-.005.112c-.019.195-.087.354-.332.407-.283.062-.377-.157-.377-.619v-.023l1.42-.345.003-.351zm1.742-1.624a.385.385 0 0 0-.192.013c-.415.11-.594.581-.594.581V6.19l-.691.169.001 2.734.73-.175v-1.51c0-.347.129-.574.384-.679a.941.941 0 0 1 .362-.077zm2.171.343c0-.511-.242-.84-.968-.668-.558.134-.88.389-.99.768a1.445 1.445 0 0 0-.047.416l.682-.167a1.31 1.31 0 0 1 .004-.14.374.374 0 0 1 .293-.358c.242-.064.31.066.308.218-.002.18-.013.284-.5.492-.54.23-.899.431-.899 1.065 0 .465.281.805.812.676.505-.123.652-.504.652-.504.022.085.052.168.09.248l.668-.163s-.105-.086-.105-.672zm-.723.76v.382c0 .29-.15.498-.367.555-.202.051-.313-.07-.313-.256 0-.213.1-.352.324-.465a2.63 2.63 0 0 0 .356-.215zm3.02-1.836c-.11-.149-.328-.303-.901-.168-.9.21-1.108.871-1.08 1.704.027.854.206 1.397 1.116 1.177.66-.159 1.013-.595 1.015-1.286v-.113l-.703.171-.002.14-.003.071c-.012.192-.067.388-.304.438-.306.067-.376-.175-.376-.702V6.41c0-.519.107-.78.373-.848.223-.058.309.063.309.38v.102l.704-.173-.001-.049c0-.268-.041-.46-.147-.602zM7.584 7.122c.261-.062.35.095.352.393l-.001.12-.714.175c.005-.395.128-.633.363-.688z"/><path id="details-1" d="M2.757 10.071c.263 0 .477.22.477.493l.003 2.353c0 .03.011.056.03.075l.008.006H2.28v-2.434c0-.272.214-.493.478-.493zm.685.926l1.205.846c.145.1.241.257.27.431l.008.107v.618l-1.522-.001.009-.006a.107.107 0 0 0 .022-.033l.008-.042v-1.92zm-1.362.975v.784l-.015.004c-.227.056-.498.121-.554.133a.431.431 0 0 1-.511-.43c0-.084.024-.167.068-.238l.005-.007.008-.003 1-.243zm0-1.004v.784l-.015.004c-.227.056-.498.12-.554.133a.423.423 0 0 1-.46-.22.451.451 0 0 1 .017-.448l.005-.007.008-.002 1-.244zm0-4.606v4.386l-.774.19V6.55l.774-.189zm1.8 1.144c.55-.134.728.198.728.674v1.962l-.734.178V8.465c0-.29-.132-.348-.29-.312-.21.047-.356.29-.356.595v1.271a.695.695 0 0 0-.734-.132V7.918l.696-.17v.308a1.05 1.05 0 0 1 .69-.55zM5.887 6.48v.611l.519-.127v.56l-.52.127v1.387c0 .63.163.75.163.75l-.785.193-.009-.015c-.026-.055-.104-.261-.104-.774V7.831l-.355.087v-.56l.356-.088v-.61l.735-.18zM8.64 7.577c-.004.236-.003.351-.003.351l-1.42.345v.023c0 .462.094.681.377.62.245-.054.313-.213.332-.408.003-.032.005-.112.005-.112l.665-.165v.12c-.005.262-.079.913-1.003 1.139-.876.214-1.11-.338-1.11-1.135 0-.486.068-.841.211-1.113.172-.323.452-.534.861-.63.806-.19 1.097.304 1.085.965zm1.742-1.624v.698a.941.941 0 0 0-.362.077c-.255.105-.384.332-.384.679v1.51l-.73.175-.001-2.734.69-.17v.36s.18-.472.595-.582a.385.385 0 0 1 .192-.013zm2.171.343v1.211c0 .586.105.672.105.672l-.669.163a1.534 1.534 0 0 1-.09-.248s-.146.381-.651.504c-.53.13-.812-.21-.812-.676 0-.634.36-.834.9-1.065.486-.208.497-.311.499-.492.002-.152-.066-.282-.308-.218a.374.374 0 0 0-.293.358 1.347 1.347 0 0 0-.004.14l-.682.167c-.005-.14.011-.281.047-.416.11-.38.432-.634.99-.768.726-.172.967.157.968.668zm-.723.76a2.509 2.509 0 0 1-.356.216c-.223.113-.324.252-.324.465 0 .186.111.307.313.256.217-.057.367-.265.367-.555v-.381zm3.02-1.836c.106.142.147.334.147.602v.05l-.703.172v-.101c0-.318-.086-.44-.31-.381-.265.069-.373.33-.373.848v.242c0 .527.07.769.377.702.237-.05.292-.246.304-.438l.003-.071.002-.14.702-.171.001.113c-.002.691-.354 1.127-1.015 1.286-.91.22-1.089-.323-1.117-1.177-.027-.833.182-1.494 1.081-1.704.573-.135.79.02.901.168zM7.584 7.122c-.235.055-.358.293-.363.688l.714-.176v-.119c0-.298-.09-.455-.35-.393z" fill="none"/></g></svg>