<svg xmlns="http://www.w3.org/2000/svg" viewBox="0 0 16 16"><g id="verified"><path id="base-1" d="M8 16A8 8 0 1 1 8 0a8 8 0 0 1 0 16zm-1.558-5.295a1.12 1.12 0 0 0 1.563-.048l3.733-4.007a.95.95 0 0 0-.105-1.406 1.12 1.12 0 0 0-1.505.099L7.2 8.486 5.825 7.294a1.122 1.122 0 0 0-1.509-.007.95.95 0 0 0-.007 1.409l2.133 2.009z"/><path id="details-1" d="M6.442 10.705a1.12 1.12 0 0 0 1.563-.048l3.733-4.007a.95.95 0 0 0-.105-1.406 1.12 1.12 0 0 0-1.505.099L7.2 8.486 5.825 7.294a1.122 1.122 0 0 0-1.509-.007.95.95 0 0 0-.007 1.409l2.133 2.009z" fill="none"/></g></svg>