<svg xmlns="http://www.w3.org/2000/svg" viewBox="0 0 16 16"><g id="files"><path id="base-1" d="M1.614 14.39a5.495 5.495 0 0 1 0-7.775l.353-.353 5.11-5.086a4.001 4.001 0 0 1 5.657 0 3.996 3.996 0 0 1 0 5.654l-5.11 5.086-.353.354a2.5 2.5 0 0 1-3.536-3.534l.354-.354 5.11-5.086a1 1 0 0 1 1.414 1.413l-5.11 5.087-.354.354a.5.5 0 1 0 .707.706l.354-.354 5.11-5.087a1.998 1.998 0 0 0 0-2.827 2.001 2.001 0 0 0-2.829 0l-5.11 5.088-.353.353a3.497 3.497 0 0 0 0 4.947 3.502 3.502 0 0 0 4.95 0l.354-.353 5.964-5.93a1 1 0 0 1 1.414 1.414l-5.964 5.93-.354.353a5.502 5.502 0 0 1-7.778 0z"/></g></svg>