<svg xmlns="http://www.w3.org/2000/svg" viewBox="0 0 16 16"><g id="desktop"><path id="base-1" d="M9 12a1 1 0 0 1 1 1v1l2 2H4l2-2v-1a1 1 0 0 1 1-1h2zm4.436-12c.892 0 1.215.093 1.54.267.327.174.583.43.757.756.174.326.267.65.267 1.54v5.873c0 .892-.093 1.215-.267 1.54a1.81 1.81 0 0 1-.756.757c-.326.174-.65.267-1.54.267H2.563c-.892 0-1.215-.093-1.54-.267a1.817 1.817 0 0 1-.757-.756C.093 9.65 0 9.327 0 8.437V2.563c0-.892.093-1.215.267-1.54a1.81 1.81 0 0 1 .756-.757C1.35.093 1.673 0 2.563 0h10.873z"/><path id="details-2" d="M2.282 1h11.436c.446 0 .607.046.77.134a.906.906 0 0 1 .378.378c.088.163.134.324.134.77v6.436c0 .446-.046.607-.134.77a.909.909 0 0 1-.378.378c-.163.088-.324.134-.77.134H2.282c-.446 0-.607-.046-.77-.134a.909.909 0 0 1-.378-.378C1.046 9.325 1 9.164 1 8.718V2.282c0-.446.046-.607.134-.77a.909.909 0 0 1 .378-.378c.163-.088.324-.134.77-.134z" opacity=".7" fill="#fff"/></g></svg>