<svg xmlns="http://www.w3.org/2000/svg" width="16" height="16" fill="none" viewBox="0 0 16 16">
  <g id="copy">
    <path id="base-1" fill="#232429" fill-rule="evenodd" d="M6.587 16a2.824 2.824 0 0 1-2.823-2.823v-7.53a2.824 2.824 0 0 1 2.823-2.823h5.647a2.824 2.824 0 0 1 2.824 2.823v7.53A2.824 2.824 0 0 1 12.234 16H6.587Zm-.941-2.823c0 .52.421.94.941.94h5.647a.94.94 0 0 0 .941-.94v-7.53a.941.941 0 0 0-.94-.941H6.586a.941.941 0 0 0-.941.941v7.53Z" clip-rule="evenodd"/>
    <path id="base-2" fill="#232429" fill-rule="evenodd" d="M2.822 2.824v8.47a.941.941 0 1 1-1.882 0v-8.47A2.824 2.824 0 0 1 3.764 0h6.588a.941.941 0 0 1 0 1.882H3.764a.941.941 0 0 0-.942.942Z" clip-rule="evenodd"/>
  </g>
</svg>
