<svg xmlns="http://www.w3.org/2000/svg" viewBox="0 0 16 16"><g id="apps"><path id="base-1" d="M1 0h5a1 1 0 0 1 1 1v5a1 1 0 0 1-1 1H1a1 1 0 0 1-1-1V1a1 1 0 0 1 1-1zm0 9h5a1 1 0 0 1 1 1v5a1 1 0 0 1-1 1H1a1 1 0 0 1-1-1v-5a1 1 0 0 1 1-1zm9-9h5a1 1 0 0 1 1 1v5a1 1 0 0 1-1 1h-5a1 1 0 0 1-1-1V1a1 1 0 0 1 1-1z"/><path id="base-2" d="M11.625 11.625h-1.75a.875.875 0 1 0 0 1.75h1.75v1.75a.875.875 0 1 0 1.75 0v-1.75h1.75a.875.875 0 1 0 0-1.75h-1.75v-1.75a.875.875 0 1 0-1.75 0v1.75z" opacity=".7"/></g></svg>