<svg xmlns="http://www.w3.org/2000/svg" viewBox="0 0 16 16"><g id="brands-missing"><path id="base-1" d="M5.112 3.543L3.764 4.85a.47.47 0 1 0 .653.674l1.349-1.307a.47.47 0 1 0-.654-.674zM2.415 6.158L1.066 7.465a.47.47 0 1 0 .654.675l1.35-1.308a.47.47 0 1 0-.654-.674zM.002 9.388c-.028.642.205 1.27.66 1.74l.026.026.255.255a.47.47 0 0 0 .664-.664l-.255-.256-.015-.015A1.403 1.403 0 0 1 .94 9.43a.47.47 0 0 0-.939-.041zm2.27 3.35l1.327 1.327a.47.47 0 0 0 .665-.664l-1.329-1.328a.47.47 0 0 0-.664.664zM4.95 15.41c.632.56 1.51.733 2.3.469a.47.47 0 1 0-.297-.89 1.41 1.41 0 0 1-1.38-.281.47.47 0 0 0-.623.702zm3.915-.818l1.308-1.349a.47.47 0 1 0-.675-.654l-1.307 1.349a.47.47 0 1 0 .674.654zm2.615-2.698l1.308-1.348a.47.47 0 1 0-.674-.654l-1.308 1.349a.47.47 0 1 0 .674.653zm2.616-2.697l.976-1.006c.13-.134.247-.278.351-.43a.47.47 0 1 0-.774-.531c-.075.109-.16.212-.252.307l-.976 1.007a.47.47 0 1 0 .675.653zM16 5.664V3.786a.47.47 0 0 0-.94 0v1.878a.47.47 0 0 0 .94 0zm-.064-3.863A2.351 2.351 0 0 0 14.32.097a.47.47 0 0 0-.267.9c.48.143.853.535.97 1.022a.47.47 0 0 0 .913-.218zM12.33 0h-1.88a.47.47 0 1 0 0 .94h1.879a.47.47 0 1 0 0-.94zM8.473 1.592a.478.478 0 0 1-.01.01L7.115 2.909a.47.47 0 0 1-.654-.674L7.809.927a.478.478 0 0 1 .028-.026c.168-.16.351-.3.548-.42a.47.47 0 0 1 .49.802 2.347 2.347 0 0 0-.402.309z"/><path id="base-2" d="M10.586 2.586a2 2 0 1 1 2.828 2.828 2 2 0 0 1-2.828-2.828zm.707 2.121a1 1 0 1 0 1.414-1.414 1 1 0 0 0-1.414 1.414z" opacity=".7"/></g></svg>