<svg xmlns="http://www.w3.org/2000/svg" viewBox="0 0 16 16"><g id="navigation"><path id="base-1" d="M2 3h9.586a1 1 0 0 1 .707.293l3.353 3.353a.5.5 0 0 1 0 .708l-3.353 3.353a1 1 0 0 1-.707.293H2a2 2 0 0 1-2-2V5a2 2 0 0 1 2-2zm1.5 3a.5.5 0 0 0-.5.5v1a.5.5 0 0 0 .5.5h1a.5.5 0 0 0 .5-.5v-1a.5.5 0 0 0-.5-.5h-1zm3 0a.5.5 0 0 0-.5.5v1a.5.5 0 0 0 1 0v-1a.5.5 0 0 0-.5-.5zm2 0a.5.5 0 0 0-.5.5v1a.5.5 0 0 0 .5.5h2a.5.5 0 0 0 .5-.5v-1a.5.5 0 0 0-.5-.5h-2z"/><path id="base-2" d="M8 14h1a1 1 0 0 1 1 1v1H4v-1a1 1 0 0 1 1-1h1v-2h2v2zM7 0a1 1 0 0 1 1 1v1H6V1a1 1 0 0 1 1-1z" opacity=".7"/><path id="details-1" d="M3.5 6h1a.5.5 0 0 1 .5.5v1a.5.5 0 0 1-.5.5h-1a.5.5 0 0 1-.5-.5v-1a.5.5 0 0 1 .5-.5zm3 0a.5.5 0 0 1 .5.5v1a.5.5 0 0 1-1 0v-1a.5.5 0 0 1 .5-.5zm2 0h2a.5.5 0 0 1 .5.5v1a.5.5 0 0 1-.5.5h-2a.5.5 0 0 1-.5-.5v-1a.5.5 0 0 1 .5-.5z" fill="none"/></g></svg>