<svg viewBox="0 0 16 16" fill="none" xmlns="http://www.w3.org/2000/svg">
	<g id="align-center">
		<path id="base-1" d="M1.57132 0C0.940141 0 0.428467 0.511675 0.428467 1.14286C0.428467 1.77404 0.940141 2.28571 1.57132 2.28571H14.2856C14.9168 2.28571 15.4285 1.77404 15.4285 1.14286C15.4285 0.511675 14.9168 0 14.2856 0H1.57132ZM1.57132 9.14286C0.940141 9.14286 0.428467 9.65453 0.428467 10.2857C0.428467 10.9169 0.940141 11.4286 1.57132 11.4286H14.2856C14.9168 11.4286 15.4285 10.9169 15.4285 10.2857C15.4285 9.65453 14.9168 9.14286 14.2856 9.14286H1.57132Z" fill="#232429" />
		<path id="base-2" d="M5.32132 4.57141C4.69014 4.57141 4.17847 5.08309 4.17847 5.71427C4.17847 6.34545 4.69014 6.85713 5.32132 6.85713H11.4731C12.1043 6.85713 12.616 6.34545 12.616 5.71427C12.616 5.08309 12.1043 4.57141 11.4731 4.57141H5.32132ZM5.32135 13.7143C4.69016 13.7143 4.17849 14.2259 4.17849 14.8571C4.17849 15.4883 4.69016 16 5.32135 16H11.4731C12.1043 16 12.616 15.4883 12.616 14.8571C12.616 14.2259 12.1043 13.7143 11.4731 13.7143H5.32135Z" fill="#232429" />
	</g>
</svg>
