<svg xmlns="http://www.w3.org/2000/svg" viewBox="0 0 16 16"><g id="pages"><path id="base-2" d="M12 3h1a2 2 0 0 1 2 2v9a2 2 0 0 1-2 2H6a2 2 0 0 1-2-2h5a3 3 0 0 0 3-3V3zM4 0v4H0l4-4z" opacity=".7"/><path id="base-1" d="M5 0h4a2 2 0 0 1 2 2v9a2 2 0 0 1-2 2H2a2 2 0 0 1-2-2V5h4a1 1 0 0 0 1-1V0zM2.5 7a.5.5 0 0 0 0 1h6a.5.5 0 0 0 0-1h-6zm0 3a.5.5 0 1 0 0 1h6a.5.5 0 1 0 0-1h-6zm5-8a.5.5 0 0 0-.5.5v2a.5.5 0 0 0 .5.5h1a.5.5 0 0 0 .5-.5v-2a.5.5 0 0 0-.5-.5h-1z"/><path id="details-1" d="M2.5 7h6a.5.5 0 0 1 0 1h-6a.5.5 0 0 1 0-1zm0 3h6a.5.5 0 1 1 0 1h-6a.5.5 0 1 1 0-1zm5-8h1a.5.5 0 0 1 .5.5v2a.5.5 0 0 1-.5.5h-1a.5.5 0 0 1-.5-.5v-2a.5.5 0 0 1 .5-.5z" fill="none"/></g></svg>