<svg xmlns="http://www.w3.org/2000/svg" viewBox="0 0 16 16"><g id="support-tickets"><path id="base-1" d="M12 4.99h2a1 1 0 0 1 1 1v4.02a1 1 0 0 1-1 1h-2a1 1 0 0 1-1-1V5.99a1 1 0 0 1 1-1zM2 5h2a1 1 0 0 1 1 1v4a1 1 0 0 1-1 1H2a1 1 0 0 1-1-1V6a1 1 0 0 1 1-1zm6-3c-2.667 0-4 .667-4 2H2c0-2.667 2-4 6-4s6 1.333 6 4h-1.983C12.006 2.667 10.667 2 8 2z"/><path id="base-2" d="M10 14l2.658-.886A.5.5 0 0 0 13 12.64V12h1v1.5a.5.5 0 0 1-.5.5H13l-3 1a1 1 0 0 1-1 1H7a1 1 0 0 1-1-1v-1a1 1 0 0 1 1-1h2a1 1 0 0 1 1 1z" opacity=".7"/></g></svg>