<svg xmlns="http://www.w3.org/2000/svg" viewBox="0 0 16 16"><g id="phone"><path id="base-1" d="M4.132 11.868c2.1 2.1 4.488 3.73 7.105 4.074 2.617.344 3.82-.938 4.236-1.48.447-.586.482-1.103.516-1.412.046-.417-.034-.724-.654-1.068l-2.443-1.45a1.133 1.133 0 0 0-1.411.207l-1.218 1.321c-.181.147-.262.281-.61.232-.562-.08-2.49-1.595-3.42-2.525-.93-.93-2.445-2.858-2.525-3.42-.05-.348.085-.429.232-.61l1.32-1.218c.394-.362.48-.951.207-1.411L4.018.665c-.344-.62-.651-.7-1.068-.654-.31.034-.826.069-1.411.516C.996.943-.286 2.146.058 4.763c.344 2.617 1.974 5.004 4.074 7.105"/><path id="base-2" d="M15.923 6.617a.979.979 0 0 1-.527 1.284.988.988 0 0 1-1.291-.524A10.366 10.366 0 0 0 8.6 1.884.979.979 0 0 1 8.079.598a.988.988 0 0 1 1.293-.52 12.333 12.333 0 0 1 6.55 6.539zm-3.993.02a.979.979 0 0 1-.525 1.286.988.988 0 0 1-1.292-.523 2.724 2.724 0 0 0-1.448-1.44.979.979 0 0 1-.524-1.285.988.988 0 0 1 1.293-.52 4.69 4.69 0 0 1 2.496 2.483z" opacity=".7"/></g></svg>