<svg xmlns="http://www.w3.org/2000/svg" viewBox="0 0 16 16"><g id="Icons" fill-rule="evenodd"><g id="subscription"><g id="subscriptions"><path id="base-2" d="M3.992 16.006c-.871 0-.992-1.054-.992-1.478v-.836c0-2.974 2.316-5.384 5.173-5.384h3.109c.204 0 .37-.173.37-.385V6.385c0-.213.165-.385.369-.385a.36.36 0 0 1 .247.099l3.674 3.607a.198.198 0 0 1 0 .28l-3.674 3.608a.359.359 0 0 1-.522-.03.394.394 0 0 1-.094-.256v-1.539a.377.377 0 0 0-.37-.384h-3.11c-1.224 0-2.115 1.05-2.216 2.307-.101 1.257-.88 2.314-1.964 2.314z" opacity=".7" transform="rotate(180 9.5 11.003)"/><path id="base-1" d="M.992 10.006C.121 10.006 0 8.952 0 8.528v-.836c0-2.974 2.316-5.384 5.173-5.384h3.109c.204 0 .37-.173.37-.385V.385c0-.213.165-.385.369-.385a.36.36 0 0 1 .247.099l3.674 3.607a.198.198 0 0 1 0 .28L9.268 7.594a.359.359 0 0 1-.522-.03.394.394 0 0 1-.094-.256V5.769a.377.377 0 0 0-.37-.384h-3.11c-1.224 0-2.115 1.05-2.216 2.307-.101 1.257-.88 2.314-1.964 2.314z"/></g></g></g></svg>