<svg xmlns="http://www.w3.org/2000/svg" viewBox="0 0 16 16"><g id="receipt"><path id="base-1" d="M3 0h10a2 2 0 0 1 2 2v13.001a1 1 0 0 1-1.003 1L13 16l-2.5-2L8 16l-2.5-2L3 16l-.997.001a1 1 0 0 1-1.003-1V2a2 2 0 0 1 2-2zm1 10a1 1 0 0 0 0 2h2a1 1 0 0 0 0-2H4zm0-3a1 1 0 1 0 0 2h4a1 1 0 1 0 0-2H4zm8 3a1 1 0 1 0 0 2 1 1 0 0 0 0-2zm0-3a1 1 0 1 0 0 2 1 1 0 0 0 0-2z"/><path id="details-1" d="M4 10h2a1 1 0 0 1 0 2H4a1 1 0 0 1 0-2zm0-3h4a1 1 0 1 1 0 2H4a1 1 0 1 1 0-2zm8 3a1 1 0 1 1 0 2 1 1 0 0 1 0-2zm0-3a1 1 0 1 1 0 2 1 1 0 0 1 0-2z" fill="none"/><rect id="details-2" width="10" height="3" x="3" y="2" opacity=".7" rx="1" fill="#fff"/></g></svg>