<svg xmlns="http://www.w3.org/2000/svg" viewBox="0 0 16 16"><g id="suppliers"><path id="base-1" d="M5 12V6.5l4.413-2.4c.304-.165.735-.12.963.101a.405.405 0 0 1 .124.3V7l4.439-2.9c.304-.165 1.061-.126 1.061.15V12H5zm3-4a1 1 0 1 0 0 2h1a1 1 0 1 0 0-2H8zm4 0h1a1 1 0 0 1 0 2h-1a1 1 0 0 1 0-2zM1 13h14a1 1 0 0 1 1 1v1a1 1 0 0 1-1 1H1a1 1 0 0 1-1-1v-1a1 1 0 0 1 1-1z"/><path id="base-2" d="M1 4.003h1a1 1 0 0 1 1 1v7H0v-7a1 1 0 0 1 1-1zm1-2.997v1.513a.487.487 0 0 1-.5.484.487.487 0 0 1-.5-.484V0h7.5a.502.502 0 0 1 0 1.006H2z" opacity=".7"/><path id="details-1" d="M8 8h1a1 1 0 1 1 0 2H8a1 1 0 1 1 0-2zm4 0h1a1 1 0 0 1 0 2h-1a1 1 0 0 1 0-2z" fill="none"/></g></svg>