<svg xmlns="http://www.w3.org/2000/svg" viewBox="0 0 16 16"><g id="close"><path id="base-1" d="M8 0a8 8 0 1 1 0 16A8 8 0 0 1 8 0zm1.478 8l2.216-2.216a1.045 1.045 0 1 0-1.478-1.478L8 6.522 5.784 4.306a1.045 1.045 0 0 0-1.478 1.478L6.522 8l-2.216 2.216a1.045 1.045 0 1 0 1.478 1.478L8 9.478l2.216 2.216a1.045 1.045 0 1 0 1.478-1.478L9.478 8z"/><path id="details-1" d="M9.478 8l2.216-2.216a1.045 1.045 0 1 0-1.478-1.478L8 6.522 5.784 4.306a1.045 1.045 0 0 0-1.478 1.478L6.522 8l-2.216 2.216a1.045 1.045 0 1 0 1.478 1.478L8 9.478l2.216 2.216a1.045 1.045 0 1 0 1.478-1.478L9.478 8z" fill="none"/></g></svg>