<svg xmlns="http://www.w3.org/2000/svg" viewBox="0 0 16 16"><g id="item-missing"><path id="base-1" d="M14.123 3.32a.5.5 0 0 1 .07.687.46.46 0 0 1-.662.074 1.414 1.414 0 0 0-.18-.128l-1.38-.826a.498.498 0 0 1-.172-.667.462.462 0 0 1 .643-.179l1.38.826c.106.063.206.134.3.213zM15 7.478a.48.48 0 0 1-.471.488.48.48 0 0 1-.471-.488V5.524a.48.48 0 0 1 .47-.488.48.48 0 0 1 .472.488v1.954zm-.113 4.05a.468.468 0 0 1-.592.315.492.492 0 0 1-.305-.614c.045-.144.068-.295.068-.448v-1.35a.48.48 0 0 1 .47-.488.48.48 0 0 1 .472.489v1.35c0 .254-.038.505-.113.746zm-3.202 2.647a.462.462 0 0 1-.644-.178.498.498 0 0 1 .173-.668l1.632-.977a.462.462 0 0 1 .644.18.498.498 0 0 1-.173.666l-1.632.977zM8.13 16a.478.478 0 0 1-.496-.46.482.482 0 0 1 .444-.515 1.39 1.39 0 0 0 .629-.194l.874-.524a.462.462 0 0 1 .644.179.498.498 0 0 1-.172.667l-.875.524c-.322.192-.68.302-1.048.323zm-3.698-1.754a.498.498 0 0 1-.172-.667.462.462 0 0 1 .644-.179l1.632.977a.498.498 0 0 1 .172.668.462.462 0 0 1-.643.178l-1.633-.977zm-3.23-2.472a.496.496 0 0 1 .24-.645.465.465 0 0 1 .622.248c.121.282.325.518.585.674l.622.373a.498.498 0 0 1 .173.667.462.462 0 0 1-.644.179l-.622-.373a2.414 2.414 0 0 1-.975-1.123zM1 7.618a.48.48 0 0 1 .471-.488.48.48 0 0 1 .471.488v1.954a.48.48 0 0 1-.47.489A.48.48 0 0 1 1 9.572V7.618zm.705-4.138a.46.46 0 0 1 .666.006.501.501 0 0 1-.006.69c-.27.275-.423.651-.423 1.046v.442a.48.48 0 0 1-.47.489A.48.48 0 0 1 1 5.664v-.442c0-.658.255-1.285.705-1.742zm3.368-2.106a.462.462 0 0 1 .643.179.498.498 0 0 1-.172.667l-1.632.977a.462.462 0 0 1-.644-.179.498.498 0 0 1 .172-.667l1.633-.977zM9.09.286c.03.01.06.024.088.041l1.632.977a.498.498 0 0 1 .173.667.462.462 0 0 1-.644.18l-1.632-.978a.475.475 0 0 1-.049-.033.466.466 0 0 1-.054-.023 1.37 1.37 0 0 0-1.31.056l-.118.07a.462.462 0 0 1-.644-.178.498.498 0 0 1 .173-.668l.117-.07A2.283 2.283 0 0 1 9.007.234a.47.47 0 0 1 .083.052z"/></g></svg>