<svg viewBox="0 0 16 16" fill="none" xmlns="http://www.w3.org/2000/svg">
	<g id="align-left">
		<path id="base-1" d="M1.47889 0C0.884835 0 0.403259 0.511675 0.403259 1.14286C0.403259 1.77404 0.884835 2.28571 1.47889 2.28571H14.3864C14.9805 2.28571 15.4621 1.77404 15.4621 1.14286C15.4621 0.511675 14.9805 0 14.3864 0H1.47889ZM1.47889 9.14286C0.884835 9.14286 0.403259 9.65454 0.403259 10.2857C0.403259 10.9169 0.884835 11.4286 1.47889 11.4286H11.5629C12.157 11.4286 12.6386 10.9169 12.6386 10.2857C12.6386 9.65454 12.157 9.14286 11.5629 9.14286H1.47889Z" fill="#232429" />
		<path id="base-2" d="M1.47889 4.57141C0.884835 4.57141 0.403259 5.08309 0.403259 5.71427C0.403259 6.34545 0.884835 6.85713 1.47889 6.85713H7.79822C8.39227 6.85713 8.87385 6.34545 8.87385 5.71427C8.87385 5.08309 8.39227 4.57141 7.79822 4.57141H1.47889ZM1.47889 13.7143C0.884835 13.7143 0.403259 14.2259 0.403259 14.8571C0.403259 15.4883 0.884835 16 1.47889 16H7.79822C8.39227 16 8.87385 15.4883 8.87385 14.8571C8.87385 14.2259 8.39227 13.7143 7.79822 13.7143H1.47889Z" fill="#232429" />
	</g>
</svg>
