<svg xmlns="http://www.w3.org/2000/svg" fill="none" viewBox="0 0 16 16">
  <g id="rocket">
    <path id="base-1" fill="#000" fill-rule="evenodd" d="M 7.248 1.1 a 1.054 1.054 90 0 1 1.24 -0.276 a 1.05 1.05 90 0 1 0.36 0.2715 l 0.0015 0.0015 c 3.145 3.695 2.897 8.1325 1.101 10.699 a 0.5 0.5 90 0 1 -0.4085 0.213 l -1.1615 0.0035 h -0.0005 l -1.815 0.002 a 0.5 0.5 90 0 1 -0.4175 -0.2245 c -1.733 -2.622 -1.836 -7.1885 1.098 -10.6875 l 0.0025 -0.0025 z m 1.1305 9.9125 H 7.695 v 0.0005 l -0.853 0.0015 c -1.3475 -2.282 -1.4015 -6.201 1.1685 -9.2675 a 0.055 0.055 90 0 1 0.04 -0.0185 a 0.0515 0.0515 90 0 1 0.039 0.018 l 0.38 -0.3255 l -0.381 0.324 c 2.769 3.2535 2.585 7.0475 1.1845 9.265 l -0.8925 0.0025 h -0.0015 z" clip-rule="evenodd"></path>
    <path id="details-1" fill="#000" d="M 9.05 5 a 1 1 90 1 1 -2 0 a 1 1 90 0 1 2 0 z"></path>
    <path id="details-2" fill="#000" fill-rule="evenodd" d="M 12.141 9.355 l -1.815 -0.908 l 0.4475 -0.894 l 2 1 a 0.5 0.5 90 0 1 0.251 0.289 l 0.5 1.5 A 0.5 0.5 90 0 1 13.05 11 h -3 v -1 h 2.3065 l -0.215 -0.645 z M 3.959 9.355 l 1.815 -0.908 l -0.4475 -0.894 l -2 1 a 0.5 0.5 90 0 0 -0.251 0.289 l -0.5 1.5 A 0.5 0.5 90 0 0 3.05 11 h 3 v -1 h -2.3065 l 0.215 -0.645 z M 7.05 12.5 a 0.5 0.5 90 0 1 0.5 0.5 v 1 a 0.5 0.5 90 1 1 -1 0 v -1 a 0.5 0.5 90 0 1 0.5 -0.5 z M 9.05 13.5 a 0.5 0.5 90 0 1 0.5 0.5 v 1 a 0.5 0.5 90 1 1 -1 0 v -1 a 0.5 0.5 90 0 1 0.5 -0.5 z" clip-rule="evenodd"></path>
  </g>
</svg>
