<svg viewBox="0 0 14 16" fill="none" xmlns="http://www.w3.org/2000/svg">
	<g id="rotate-left">
		<path id="base-1" d="M3.69375 3.84063L7.53438 0V2.59375C10.8875 3.00937 13.4563 5.84688 13.4563 9.29688C13.4563 12.7469 10.8875 15.5844 7.53438 16V14.2875C9.93125 13.8969 11.7656 11.7906 11.7656 9.29688C11.7656 6.80313 9.93125 4.69688 7.53438 4.30625V7.60938L3.69375 3.84063ZM3.8743e-06 8.44063C0.122254 7.46263 0.25305 6.9906 0.729554 6.29579C0.919452 6.01889 1.27599 5.91654 1.59339 6.02604V6.02604C2.08333 6.19505 2.27386 6.78691 2.06571 7.26155C1.8987 7.64239 1.77957 8.0382 1.7125 8.44063H3.8743e-06ZM5.84688 14.2875V16C4.67188 15.8531 3.52188 15.3875 2.54375 14.6313L3.76875 13.4062C4.40313 13.8719 5.1125 14.1656 5.84688 14.2875ZM2.56875 12.2312L1.36875 13.4312C0.609378 12.4531 0.146879 11.3281 3.8743e-06 10.1531H1.7125C1.83438 10.8875 2.10313 11.5969 2.56875 12.2312Z" />
	</g>
</svg>
