<svg xmlns="http://www.w3.org/2000/svg" viewBox="0 0 16 16"><g id="clock"><path id="base-1" d="M8 16A8 8 0 1 1 8 0a8 8 0 0 1 0 16zM7 3.25v6.5c0 .129.108.25.241.25h4.518A.24.24 0 0 0 12 9.755v-1.51A.25.25 0 0 0 11.744 8H9.256A.248.248 0 0 1 9 7.759V3.24A.241.241 0 0 0 8.755 3h-1.51A.246.246 0 0 0 7 3.25z"/><path id="details-1" d="M7 3.25c0-.138.108-.25.245-.25h1.51A.24.24 0 0 1 9 3.241V7.76c0 .133.114.241.256.241h2.488a.25.25 0 0 1 .256.245v1.51a.241.241 0 0 1-.241.245H7.24C7.108 10 7 9.879 7 9.75v-6.5z" fill="none"/></g></svg>