<svg xmlns="http://www.w3.org/2000/svg" viewBox="0 0 16 16"><g id="warning"><path id="base-1" d="M6.47 2.215c.845-1.43 2.213-1.435 3.061 0l6.022 10.194c.845 1.431.195 2.591-1.47 2.591H1.917C.26 15-.4 13.844.447 12.41L6.47 2.214zM7.5 4a.5.5 0 0 0-.5.5V9a1 1 0 1 0 2 0V4.5a.5.5 0 0 0-.5-.5h-1zM7 12c0 .556.448 1 1 1 .556 0 1-.448 1-1 0-.556-.448-1-1-1-.556 0-1 .448-1 1z"/><path id="details-1" d="M7.5 4h1a.5.5 0 0 1 .5.5V9a1 1 0 1 1-2 0V4.5a.5.5 0 0 1 .5-.5zM7 12c0-.552.444-1 1-1 .552 0 1 .444 1 1 0 .552-.444 1-1 1-.552 0-1-.444-1-1z" fill="none"/></g></svg>