<svg xmlns="http://www.w3.org/2000/svg" viewBox="0 0 16 16"><g id="custom-fields"><path id="base-1" d="M2 0h12a2 2 0 0 1 2 2v12a2 2 0 0 1-2 2H2a2 2 0 0 1-2-2V2a2 2 0 0 1 2-2zm1 2a1 1 0 0 0-1 1v3a1 1 0 0 0 1 1h3a1 1 0 0 0 1-1V3a1 1 0 0 0-1-1H3zm6.5 2a.5.5 0 0 0 0 1h4a.5.5 0 1 0 0-1h-4zM3 9a1 1 0 0 0-1 1v3a1 1 0 0 0 1 1h3a1 1 0 0 0 1-1v-3a1 1 0 0 0-1-1H3zm6.5 2a.5.5 0 1 0 0 1h4a.5.5 0 1 0 0-1h-4z"/><path id="details-1" d="M9.5 4h4a.5.5 0 1 1 0 1h-4a.5.5 0 0 1 0-1zm0 7h4a.5.5 0 1 1 0 1h-4a.5.5 0 1 1 0-1zM3 9h3a1 1 0 0 1 1 1v3a1 1 0 0 1-1 1H3a1 1 0 0 1-1-1v-3a1 1 0 0 1 1-1zm0-7h3a1 1 0 0 1 1 1v3a1 1 0 0 1-1 1H3a1 1 0 0 1-1-1V3a1 1 0 0 1 1-1z" fill="none"/><circle id="base-2" cx="4.5" cy="11.5" r="1.5" opacity=".7"/></g></svg>