<svg xmlns="http://www.w3.org/2000/svg" viewBox="0 0 16 16"><g id="discount-rules"><path id="base-1" d="M3 15a1 1 0 0 1-1-1v-2.5a.5.5 0 0 1 .501-.499l3 .007a.5.5 0 0 1 .499.5v.002a.499.499 0 0 1-.5.498l-.5.001V14a1 1 0 0 1-1 1H3zM7 4.132c0-.083.04-.16.109-.207C9.965 1.975 11.762 1 12.5 1c.5 0 .5 4 .5 6s0 6-.5 6c-.733 0-2.53-.978-5.391-2.935A.25.25 0 0 1 7 9.86V4.132zM2 4h3.75a.25.25 0 0 1 .25.25v5.5a.25.25 0 0 1-.25.25H2a2 2 0 0 1-2-2V6a2 2 0 0 1 2-2z"/><path id="base-2" d="M14 7v1.6a.4.4 0 0 0 .455.396C15.485 8.852 16 8.186 16 7c0-1.187-.515-1.852-1.545-1.996A.4.4 0 0 0 14 5.4V7z" opacity=".7"/></g></svg>