<svg xmlns="http://www.w3.org/2000/svg" viewBox="0 0 16 16"><g id="theme-editor"><path id="base-2" d="M4.732 4.5l-.967.967c-.531.532-.427 1.66.233 2.508 0 0 .651.862.068 1.444-.031.032-3.385 2.723-3.408 2.747a2.246 2.246 0 0 0 3.177 3.176c.023-.023 2.714-3.376 2.746-3.408.583-.583 1.444.068 1.444.068.848.66 1.976.764 2.508.232l.967-.966L4.732 4.5z" opacity=".7"/><path id="base-1" d="M12.27 3.04l-1.036 1.035a.489.489 0 0 1-.69-.69l1.035-1.036-.69-.691L9.16 3.385a.488.488 0 0 1-.69-.69L10.196.966 9.23 0 5.5 3.73l6.77 6.77L16 6.77l-3.73-3.73z"/></g></svg>