<svg xmlns="http://www.w3.org/2000/svg" viewBox="0 0 16 16"><g id="money-sent"><path id="base-1" d="M14.533 3c.746 0 1.387.541 1.46 1.265l.007.137v7.196c0 .744-.597 1.33-1.328 1.396l-.139.006H3.435c-.746 0-1.387-.541-1.46-1.265l-.007-.137V7.5a.5.5 0 0 1 .41-.492L2.468 7H4.5a.5.5 0 0 0 .09-.992L4.5 6h-1a.5.5 0 0 1 0-1h2l.09-.008a.5.5 0 0 0 0-.984L5.5 4h-5a.5.5 0 0 1 0-1h14.033zM3 10v1a1 1 0 0 0 1 1h1l-.005-.15A2 2 0 0 0 3 10zm12 0l-.15.005A2 2 0 0 0 13 12h1a1 1 0 0 0 1-1v-1zM1.5 5a.5.5 0 1 1 0 1 .5.5 0 0 1 0-1zM14 4h-1a2 2 0 0 0 2 2V5a1 1 0 0 0-1-1z"/><path id="details-2" d="M9 5a3 3 0 1 1 0 6 3 3 0 0 1 0-6zm0 1a2 2 0 1 0 0 4 2 2 0 0 0 0-4z" opacity=".7" fill="#fff"/><path id="details-1" d="M15 10v1a1 1 0 0 1-1 1h-1a2 2 0 0 1 1.85-1.995L15 10zM1 10a2 2 0 0 1 1.995 1.85L3 12H2a1 1 0 0 1-1-1v-1zm13-6a1 1 0 0 1 1 1v1a2 2 0 0 1-2-2h1z" fill="none"/></g></svg>