<svg xmlns="http://www.w3.org/2000/svg" viewBox="0 0 16 16"><g id="mobile"><path id="base-1" d="M5.564 0h4.872c.892 0 1.215.093 1.54.267.327.174.583.43.757.756.174.326.267.65.267 1.54v10.873c0 .892-.093 1.215-.267 1.54a1.81 1.81 0 0 1-.756.757c-.326.174-.65.267-1.54.267H5.563c-.892 0-1.215-.093-1.54-.267a1.817 1.817 0 0 1-.757-.756c-.174-.326-.267-.65-.267-1.54V2.563c0-.892.093-1.215.267-1.54a1.81 1.81 0 0 1 .756-.757C4.35.093 4.673 0 5.563 0z"/><path id="details-2" d="M5.282 1h5.436c.446 0 .607.046.77.134a.906.906 0 0 1 .378.378c.088.163.134.324.134.77v11.436c0 .446-.046.607-.134.77a.909.909 0 0 1-.378.378c-.163.088-.324.134-.77.134H5.282c-.446 0-.607-.046-.77-.134a.909.909 0 0 1-.378-.378c-.088-.163-.134-.324-.134-.77V2.282c0-.446.046-.607.134-.77a.909.909 0 0 1 .378-.378c.163-.088.324-.134.77-.134z" opacity=".7" fill="#fff"/><rect id="base-2" width="2" height="2" x="7" y="12" opacity=".7" rx="1"/></g></svg>