<svg xmlns="http://www.w3.org/2000/svg" viewBox="0 0 16 16"><g id="cc-jcb"><path id="base-1" d="M1.5 3h13A1.5 1.5 0 0 1 16 4.5v7a1.5 1.5 0 0 1-1.5 1.5h-13A1.5 1.5 0 0 1 0 11.5v-7A1.5 1.5 0 0 1 1.5 3zM11 5a1 1 0 0 0-1 1v5h1a1 1 0 0 0 1-1V5h-1zM5 5a1 1 0 0 0-1 1v5h1a1 1 0 0 0 1-1V5H5z"/><path id="base-2" d="M5 5h1v5a1 1 0 0 1-1 1H4V6a1 1 0 0 1 1-1z" opacity=".7"/><path id="details-2" d="M8 5h1v5a1 1 0 0 1-1 1H7V6a1 1 0 0 1 1-1z" opacity=".7" fill="#fff"/><path id="details-1" d="M11 5h1v5a1 1 0 0 1-1 1h-1V6a1 1 0 0 1 1-1z" fill="none"/></g></svg>