<svg xmlns="http://www.w3.org/2000/svg" viewBox="0 0 16 16"><g id="upload"><path id="base-1" d="M8 16A8 8 0 1 1 8 0a8 8 0 0 1 0 16zM7.8 5L5.3 8.333a.25.25 0 0 0 .2.4h1.25a.25.25 0 0 1 .25.25v3.5c0 .138.112.25.25.25h1.5a.25.25 0 0 0 .25-.25v-3.5a.25.25 0 0 1 .25-.25h1.25a.25.25 0 0 0 .2-.4L8.2 5a.25.25 0 0 0-.4 0zM5.5 3a.5.5 0 0 0 0 1h5a.5.5 0 1 0 0-1h-5z"/><path id="details-1" d="M7.8 5a.25.25 0 0 1 .4 0l2.5 3.333a.25.25 0 0 1-.2.4H9.25a.25.25 0 0 0-.25.25v3.5a.25.25 0 0 1-.25.25h-1.5a.25.25 0 0 1-.25-.25v-3.5a.25.25 0 0 0-.25-.25H5.5a.25.25 0 0 1-.2-.4L7.8 5zM5.5 3h5a.5.5 0 1 1 0 1h-5a.5.5 0 0 1 0-1z" fill="none"/></g></svg>