<svg xmlns="http://www.w3.org/2000/svg" viewBox="0 0 16 16"><g id="content-templates"><path id="base-1" d="M5 0h9a2 2 0 0 1 2 2v12a2 2 0 0 1-2 2H5V0zm3 6a1 1 0 1 0 0 2h1a1 1 0 1 0 0-2H8zm4 0a1 1 0 0 0 0 2h1a1 1 0 0 0 0-2h-1zM8 2a1 1 0 1 0 0 2h2a1 1 0 0 0 0-2H8zm-.5 10a.5.5 0 0 0-.5.5v1a.5.5 0 1 0 1 0v-1a.5.5 0 0 0-.5-.5zm2.5 0a1 1 0 0 0 0 2h3a1 1 0 0 0 0-2h-3zm3-10a1 1 0 1 0 0 2 1 1 0 0 0 0-2z"/><path id="base-2" d="M3 0v16H2a2 2 0 0 1-2-2V2a2 2 0 0 1 2-2h1z" opacity=".7"/><path id="details-1" d="M8 6h1a1 1 0 1 1 0 2H8a1 1 0 1 1 0-2zm4 0h1a1 1 0 0 1 0 2h-1a1 1 0 0 1 0-2zM8 2h2a1 1 0 0 1 0 2H8a1 1 0 1 1 0-2zm-.5 10a.5.5 0 0 1 .5.5v1a.5.5 0 1 1-1 0v-1a.5.5 0 0 1 .5-.5zm2.5 0h3a1 1 0 0 1 0 2h-3a1 1 0 0 1 0-2zm3-10a1 1 0 1 1 0 2 1 1 0 0 1 0-2z" fill="none"/></g></svg>