<svg xmlns="http://www.w3.org/2000/svg" viewBox="0 0 16 16"><g id="barcode"><path id="base-2" d="M0 15v-2a1 1 0 0 1 2 0v1h1a1 1 0 0 1 0 2H1a1 1 0 0 1-1-1zM16 1v2a1 1 0 0 1-2 0V2h-1a1 1 0 0 1 0-2h2a1 1 0 0 1 1 1zm-2 13v-1a1 1 0 0 1 2 0v2a1 1 0 0 1-1 1h-2a1 1 0 0 1 0-2h1zM2 2v1a1 1 0 1 1-2 0V1a1 1 0 0 1 1-1h2a1 1 0 1 1 0 2H2z" opacity=".7"/><path id="base-1" d="M3.5 4a.5.5 0 0 1 .5.5v7a.5.5 0 1 1-1 0v-7a.5.5 0 0 1 .5-.5zm2 0h1a.5.5 0 0 1 .5.5v7a.5.5 0 0 1-.5.5h-1a.5.5 0 0 1-.5-.5v-7a.5.5 0 0 1 .5-.5zm3 0a.5.5 0 0 1 .5.5v7a.5.5 0 1 1-1 0v-7a.5.5 0 0 1 .5-.5zm2 0h2a.5.5 0 0 1 .5.5v7a.5.5 0 0 1-.5.5h-2a.5.5 0 0 1-.5-.5v-7a.5.5 0 0 1 .5-.5z"/></g></svg>