<svg xmlns="http://www.w3.org/2000/svg" viewBox="0 0 13 13"><g id="external-link" transform="translate(-2 -2)"><path id="base-2" d="M3 15a1 1 0 0 1-1-1V6a1 1 0 0 1 1-1h1a1 1 0 1 1 0 2v6h6a1 1 0 0 1 2 0v1a1 1 0 0 1-.883.993L11 15H3z" opacity=".7"/><path id="base-1" d="M11.354 1.968l3.139 3.175a.999.999 0 0 1-.078 1.496 1.228 1.228 0 0 1-1.63-.071l-1.312-1.329v5.166a1 1 0 0 1-2 0V5.292L8.215 6.568a1.228 1.228 0 0 1-1.63.07.999.999 0 0 1-.078-1.495l3.14-3.175a1.225 1.225 0 0 1 1.707 0z" transform="rotate(45 10.5 6.513)"/></g></svg>