<svg xmlns="http://www.w3.org/2000/svg" viewBox="0 0 16 16"><g id="cc-visa"><path id="base-1" d="M1.5 3h13A1.5 1.5 0 0 1 16 4.5v7a1.5 1.5 0 0 1-1.5 1.5h-13A1.5 1.5 0 0 1 0 11.5v-7A1.5 1.5 0 0 1 1.5 3zm6.24 4.199c-.006.619.527.964.93 1.17.413.21.551.345.55.534-.003.288-.33.415-.635.42-.534.01-.843-.15-1.09-.271l-.192.942c.248.119.705.223 1.18.228 1.114 0 1.843-.577 1.847-1.47.004-1.135-1.497-1.198-1.487-1.704.004-.155.144-.318.45-.36a1.918 1.918 0 0 1 1.046.192l.187-.912a2.736 2.736 0 0 0-.993-.19c-1.048 0-1.787.584-1.793 1.42zm4.805-1.421a.479.479 0 0 0-.446.326l-1.573 4.118h1.1l.219-.664h1.345l.126.664h.97l-.847-4.444h-.894zm.274 1.11l.392 1.668h-1.074l.682-1.667zm-6.692-1.11l-.973 4.444H6.33l.973-4.444H6.127zm-1.516 0L3.54 8.803 3.107 6.23c-.051-.287-.252-.453-.475-.453H.882l-.025.129c.36.087.768.228 1.015.378.152.092.195.172.245.39l.82 3.547h1.087l1.667-4.444h-1.08z"/><path id="details-1" d="M4.61 5.778h1.081l-1.667 4.444H2.937l-.82-3.547c-.05-.218-.093-.298-.245-.39-.247-.15-.656-.291-1.015-.378l.024-.13h1.751c.223 0 .424.167.475.454l.433 2.572 1.07-3.025zm1.517 0h1.176l-.973 4.444H5.154l.973-4.444zm6.418 0h.894l.847 4.444h-.97l-.126-.664h-1.345l-.219.664h-1.1l1.573-4.118a.479.479 0 0 1 .446-.326zm.274 1.11l-.682 1.668h1.074l-.392-1.667zm-5.079.31c.006-.836.745-1.42 1.793-1.42.409 0 .737.093.993.19l-.187.912a1.922 1.922 0 0 0-1.046-.193c-.306.043-.446.206-.45.36-.01.507 1.491.57 1.487 1.704-.004.894-.733 1.471-1.847 1.471-.475-.005-.932-.109-1.18-.228l.192-.942c.247.12.556.28 1.09.271.305-.005.632-.132.635-.42.001-.189-.137-.324-.55-.534-.403-.206-.936-.551-.93-1.17z" fill="none"/></g></svg>