<svg xmlns="http://www.w3.org/2000/svg" viewBox="0 0 16 16"><g id="cc-debit"><path id="base-1" d="M1.5 3h13A1.5 1.5 0 0 1 16 4.5v7a1.5 1.5 0 0 1-1.5 1.5h-13A1.5 1.5 0 0 1 0 11.5v-7A1.5 1.5 0 0 1 1.5 3zm1.874 4.084A.5.5 0 0 0 3.651 8h8.698a.5.5 0 0 0 .277-.916L8.555 4.37a1 1 0 0 0-1.11 0L3.374 7.084zM8 7a.75.75 0 1 1 0-1.5A.75.75 0 0 1 8 7zm-3 4V9a.5.5 0 0 0-1 0v2h-.5a.5.5 0 1 0 0 1h9a.5.5 0 1 0 0-1H12V9a.5.5 0 1 0-1 0v2h-1V9a.5.5 0 0 0-1 0v2H7V9a.5.5 0 0 0-1 0v2H5z"/><path id="details-1" d="M3.374 7.084L7.445 4.37a1 1 0 0 1 1.11 0l4.071 2.714a.5.5 0 0 1-.277.916H3.65a.5.5 0 0 1-.277-.916zM8 7a.75.75 0 1 0 0-1.5A.75.75 0 0 0 8 7zm-3 4h1V9a.5.5 0 0 1 1 0v2h2V9a.5.5 0 0 1 1 0v2h1V9a.5.5 0 1 1 1 0v2h.5a.5.5 0 1 1 0 1h-9a.5.5 0 1 1 0-1H4V9a.5.5 0 0 1 1 0v2z" fill="none"/></g></svg>