<svg xmlns="http://www.w3.org/2000/svg" viewBox="0 0 16 16"><g id="quotes"><path id="base-2" d="M4 1.245C4 1.11 4.107 1 4.252 1H5l1-1h4l1 1h.748c.139 0 .252.108.252.245v1.51a.248.248 0 0 1-.248.245H4.248A.245.245 0 0 1 4 2.755v-1.51z" opacity=".7"/><path id="base-1" d="M1 2.992C1 1.892 1.897 1 3.006 1h9.988A2 2 0 0 1 15 2.992v11.016c0 1.1-.897 1.992-2.006 1.992H3.006A2 2 0 0 1 1 14.008V2.992zM3 1v2.505c0 .28.228.495.51.495h8.98c.282 0 .51-.222.51-.495V1H3zm6 8V7.5a.5.5 0 0 0-.5-.5h-1a.5.5 0 0 0-.5.5V9H5.5a.5.5 0 0 0-.5.5v1a.5.5 0 0 0 .5.5H7v1.5a.5.5 0 0 0 .5.5h1a.5.5 0 0 0 .5-.5V11h1.5a.5.5 0 0 0 .5-.5v-1a.5.5 0 0 0-.5-.5H9z"/><path id="details-1" d="M9 9V7.5a.5.5 0 0 0-.5-.5h-1a.5.5 0 0 0-.5.5V9H5.5a.5.5 0 0 0-.5.5v1a.5.5 0 0 0 .5.5H7v1.5a.5.5 0 0 0 .5.5h1a.5.5 0 0 0 .5-.5V11h1.5a.5.5 0 0 0 .5-.5v-1a.5.5 0 0 0-.5-.5H9z" fill="none"/></g></svg>