<svg xmlns="http://www.w3.org/2000/svg" viewBox="0 0 16 16"><g id="brands"><path id="base-1" d="M11.44 2.435a1.5 1.5 0 1 0 2.12 2.121 1.5 1.5 0 0 0-2.12-2.121zM8.144.845A2.993 2.993 0 0 1 10.228 0h3.776C15.107 0 16 .893 16 1.996v3.776c0 .778-.303 1.525-.844 2.083l-7.31 7.539a1.994 1.994 0 0 1-2.844.022L.584 10.998a1.995 1.995 0 0 1 .022-2.844L8.145.844z"/><path id="details-1" d="M12.5 5.003a1.5 1.5 0 1 1 .002-3.001 1.5 1.5 0 0 1-.002 3.001z" fill="none"/><path id="details-2" d="M4.303 7.736l2.933-2.933a1.033 1.033 0 0 1 1.461 1.461L5.764 9.197a1.033 1.033 0 0 1-1.461-1.461zm2.5 2.5l2.933-2.933a1.033 1.033 0 0 1 1.461 1.461l-2.933 2.933a1.033 1.033 0 0 1-1.461-1.461z" opacity=".7" fill="#fff"/></g></svg>