<svg xmlns="http://www.w3.org/2000/svg" viewBox="0 0 16 16"><g id="design"><path id="base-1" d="M8 0a8 8 0 0 1 8 8c0 2.206-1.993 3.667-4.333 3.667H10c-.59 0-1.333.107-1.333 1 0 .875.666 1.426.666 2.333 0 .539-.424 1-1.333 1A8 8 0 1 1 8 0zM5.997 14a1 1 0 1 0 0-2 1 1 0 0 0 0 2zm-2.5-5a1.5 1.5 0 1 0 0-3 1.5 1.5 0 0 0 0 3zm7-4a1.5 1.5 0 1 0 0-3 1.5 1.5 0 0 0 0 3z"/><path id="details-1" d="M3.497 9a1.5 1.5 0 1 1 0-3 1.5 1.5 0 0 1 0 3zm7-4a1.5 1.5 0 1 1 0-3 1.5 1.5 0 0 1 0 3z" fill="none"/><path id="details-2" d="M5.497 5a1.5 1.5 0 1 1 0-3 1.5 1.5 0 0 1 0 3zm7 4a1.5 1.5 0 1 1 0-3 1.5 1.5 0 0 1 0 3z" opacity=".7" fill="#fff"/></g></svg>