<svg xmlns="http://www.w3.org/2000/svg" viewBox="0 0 16 16"><g id="ecom-am"><path id="base-1" d="M8 16A8 8 0 1 1 8 0a8 8 0 0 1 0 16zM6.317 1A6.929 6.929 0 0 0 2.75 3.275l.231 2.403.84 1.344 1.576.833 1.218.35 1.25.913-.21.753v1.182l.893 1.613-.683 2.096.419.238.102-.004 4.364-3.244-.21-1.075-1.786-1.559-1.628-.914-1.26.538-.893-1.075-1.996-.968.21-.806 1.786-.215.682 1.021.21-1.827.998-1.828 1.156-.322-1.47-1.183h-.684l-.682-.43-.21 1.29-1.05-.86L6.316 1z"/><path id="details-1" d="M6.317 1l-.395.539 1.05.86.21-1.29.683.43h.683l1.47 1.183-1.155.322-.998 1.828-.21 1.827-.682-1.021-1.786.215-.21.806 1.996.968.892 1.075 1.261-.538 1.628.914 1.786 1.559.21 1.075-4.364 3.244a6.879 6.879 0 0 1-.102.004l-.419-.238.683-2.096-.893-1.613V9.871l.21-.753-1.25-.914-1.218-.35-1.576-.832-.84-1.344-.231-2.403A6.929 6.929 0 0 1 6.317 1z" fill="none"/></g></svg>