<svg xmlns="http://www.w3.org/2000/svg" viewBox="0 0 16 16"><g id="headlines"><path id="base-1" d="M4 0h10a2 2 0 0 1 2 2v12a2 2 0 0 1-2 2H3.5c.314-.418.5-.937.5-1.5V0zm3 2a1 1 0 0 0-1 1v2a1 1 0 0 0 1 1h2a1 1 0 0 0 1-1V3a1 1 0 0 0-1-1H7z"/><path id="base-2" d="M0 5h3v9.5a1.5 1.5 0 0 1-3 0V5z" opacity=".7"/><path id="details-1" d="M6 2h4v4H6z" fill="none"/><path id="details-2" d="M13 3a1 1 0 1 1 0 2 1 1 0 0 1 0-2zM7 8h6a1 1 0 0 1 0 2H7a1 1 0 1 1 0-2zm4 4h2a1 1 0 0 1 0 2h-2a1 1 0 0 1 0-2zm-4 0a1 1 0 1 1 0 2 1 1 0 0 1 0-2z" opacity=".7" fill="#fff"/></g></svg>